<svg id="Layer_1" data-name="Layer 1" xmlns="http://www.w3.org/2000/svg" viewBox="0 0 50 50"><defs><style>.cls-1{fill:#efe8d8;}.cls-2{fill:#bfbba6;}.cls-3{fill:#e8e3d1;}.cls-4{fill:#dbd6c1;}.cls-5{fill:#f9f2e5;}.cls-6{fill:#444846;}.cls-7{fill:#3a3a3a;}.cls-8{fill:#f9f5e4;}</style></defs><title>Edificio</title><polygon class="cls-1" points="25 0 12.1 0 12 0 12 50 12.1 50 25 50 38 50 38 0 25 0"/><polygon class="cls-2" points="16 9 13 9 13 9 13 11 13 11 16 11 19 11 19 9 16 9"/><polygon class="cls-2" points="34.5 9 31 9 31 9 31 11 31 11 34.5 11 38 11 38 9 34.5 9"/><polygon class="cls-3" points="39.5 9 38 9 38 9 38 11 38 11 39.5 11 41 11 41 9 39.5 9"/><polygon class="cls-3" points="11.5 9 10 9 10 9 10 11 10 11 11.5 11 13 11 13 9 11.5 9"/><polygon class="cls-2" points="25 9 21 9 21 9 21 11 21 11 25 11 29 11 29 9 25 9"/><polygon class="cls-4" points="19.5 0 19 0 19 0 19 39 19 39 19.5 39 20 39 20 0 19.5 0"/><polygon class="cls-4" points="21.5 43 21 43 21 43 21 50 21 50 21.5 50 22 50 22 43 21.5 43"/><polygon class="cls-4" points="28.5 43 28 43 28 43 28 50 28 50 28.5 50 29 50 29 43 28.5 43"/><rect class="cls-5" x="10" y="11" width="3" height="39"/><rect class="cls-5" x="10" width="3" height="9"/><rect class="cls-5" x="38" y="11" width="3" height="39"/><rect class="cls-5" x="38" width="3" height="9"/><polygon class="cls-4" points="25 5 21 5 21 5 21 6 21 6 25 6 29 6 29 5 25 5"/><polygon class="cls-4" points="25 4 22 4 22 4 22 5 22 5 25 5 28 5 28 4 25 4"/><polygon class="cls-4" points="25 0 22 0 22 0 22 1 22 1 25 1 28 1 28 0 25 0"/><polygon class="cls-4" points="15.5 0 14 0 14 0 14 1 14 1 15.5 1 17 1 17 0 15.5 0"/><polygon class="cls-4" points="34.5 0 33 0 33 0 33 1 33 1 34.5 1 36 1 36 0 34.5 0"/><polygon class="cls-4" points="30.5 0 30 0 30 0 30 39 30 39 30.5 39 31 39 31 0 30.5 0"/><polygon class="cls-6" points="15.5 6 14 6 14 6 14 9 14 9 15.5 9 17 9 17 6 15.5 6"/><polygon class="cls-6" points="22.5 6 21 6 21 6 21 9 21 9 22.5 9 24 9 24 6 22.5 6"/><polygon class="cls-6" points="34.5 6 33 6 33 6 33 9 33 9 34.5 9 36 9 36 6 34.5 6"/><polygon class="cls-6" points="27.5 6 26 6 26 6 26 9 26 9 27.5 9 29 9 29 6 27.5 6"/><polygon class="cls-6" points="15.5 12 14 12 14 12 14 15 14 15 15.5 15 17 15 17 12 15.5 12"/><polygon class="cls-6" points="22.5 12 21 12 21 12 21 15 21 15 22.5 15 24 15 24 12 22.5 12"/><polygon class="cls-6" points="34.5 12 33 12 33 12 33 15 33 15 34.5 15 36 15 36 12 34.5 12"/><polygon class="cls-6" points="27.5 12 26 12 26 12 26 15 26 15 27.5 15 29 15 29 12 27.5 12"/><polygon class="cls-6" points="15.5 19 14 19 14 19 14 22 14 22 15.5 22 17 22 17 19 15.5 19"/><polygon class="cls-6" points="22.5 19 21 19 21 19 21 22 21 22 22.5 22 24 22 24 19 22.5 19"/><polygon class="cls-6" points="34.5 19 33 19 33 19 33 22 33 22 34.5 22 36 22 36 19 34.5 19"/><polygon class="cls-6" points="27.5 19 26 19 26 19 26 22 26 22 27.5 22 29 22 29 19 27.5 19"/><polygon class="cls-6" points="15.5 26 14 26 14 26 14 29 14 29 15.5 29 17 29 17 26 15.5 26"/><polygon class="cls-6" points="22.5 26 21 26 21 26 21 29 21 29 22.5 29 24 29 24 26 22.5 26"/><polygon class="cls-6" points="34.5 26 33 26 33 26 33 29 33 29 34.5 29 36 29 36 26 34.5 26"/><polygon class="cls-6" points="27.5 26 26 26 26 26 26 29 26 29 27.5 29 29 29 29 26 27.5 26"/><polygon class="cls-6" points="15.5 33 14 33 14 33 14 36 14 36 15.5 36 17 36 17 33 15.5 33"/><polygon class="cls-6" points="22.5 33 21 33 21 33 21 36 21 36 22.5 36 24 36 24 33 22.5 33"/><polygon class="cls-7" points="25 43 22 43 22 43 22 50 22 50 25 50 28 50 28 43 25 43"/><polygon class="cls-6" points="34.5 33 33 33 33 33 33 36 33 36 34.5 36 36 36 36 33 34.5 33"/><polygon class="cls-6" points="27.5 33 26 33 26 33 26 36 26 36 27.5 36 29 36 29 33 27.5 33"/><polygon class="cls-2" points="14 40 16 40 16 41 35 41 35 40 36 40 36 39 25 39 14.1 39 14 39 14 40"/><polygon class="cls-8" points="19 41 18.5 41 19 41 19 43 18.5 43 19 43 20 43 20 41 19 41"/><polygon class="cls-8" points="30 41 29.5 41 30 41 30 43 29.5 43 30 43 31 43 31 41 30 41"/><polygon class="cls-4" points="38.4 12 38 12 38 12 38 39 38 39 38.4 39 38.9 39 38.9 12 38.4 12"/><polygon class="cls-4" points="11.4 12 11 12 11 12 11 39 11 39 11.4 39 11.9 39 11.9 12 11.4 12"/></svg>