<svg id="Layer_1" data-name="Layer 1" xmlns="http://www.w3.org/2000/svg" viewBox="0 0 50 50"><defs><style>.cls-1{fill:#303030;}.cls-2{fill:#3f3f3f;}.cls-3{fill:#191918;}.cls-4{fill:#212120;}.cls-5{fill:#4f2f19;}.cls-6{fill:#070707;}.cls-7{fill:#f2f2f2;}.cls-8{fill:#e53e46;}.cls-9{fill:#f1c1f4;}.cls-10{fill:#bcbcbc;}</style></defs><title>Escultura-Monumento</title><rect class="cls-1" x="27" y="35" width="13" height="4"/><rect class="cls-1" x="10" y="35" width="13" height="4"/><rect class="cls-1" x="9" y="37" width="13" height="4"/><rect class="cls-1" x="7" y="46" width="13" height="4"/><rect class="cls-1" x="30" y="46" width="13" height="4"/><rect class="cls-1" x="28" y="37" width="13" height="4"/><rect class="cls-1" x="40" y="39" width="2" height="11"/><rect class="cls-1" x="10" y="17" width="30" height="2"/><rect class="cls-1" x="15" y="2" width="19" height="26"/><rect class="cls-1" x="10" y="2" width="7" height="15"/><rect class="cls-1" x="12" y="16" width="4" height="6"/><rect class="cls-1" x="14" y="22" width="2" height="6"/><rect class="cls-2" x="23" y="11" width="4" height="7"/><rect class="cls-2" x="22" y="18" width="7" height="2"/><rect class="cls-1" x="34" y="16" width="4" height="6"/><rect class="cls-1" x="34" y="22" width="2" height="6"/><rect class="cls-1" x="33" y="2" width="7" height="15"/><rect class="cls-3" x="34" y="2" width="6" height="4"/><rect class="cls-3" x="40" y="2" width="2" height="11"/><rect class="cls-3" x="36" y="5" width="4" height="4"/><rect class="cls-3" x="38" y="9" width="2" height="4"/><rect class="cls-3" x="10" y="2" width="6" height="4"/><rect class="cls-3" x="8" y="2" width="2" height="11"/><rect class="cls-3" x="10" y="5" width="4" height="4"/><rect class="cls-3" x="10" y="9" width="2" height="4"/><rect class="cls-1" x="8" y="39" width="34" height="11"/><rect class="cls-4" x="28" y="9" width="6" height="6"/><rect class="cls-4" x="29" y="7" width="2" height="2"/><rect class="cls-4" x="30" y="7" width="2" height="2"/><rect class="cls-4" x="18" y="7" width="2" height="2"/><rect class="cls-4" x="19" y="7" width="2" height="2"/><rect class="cls-4" x="19" y="9" width="2" height="2"/><rect class="cls-4" x="19" y="11" width="2" height="2"/><rect class="cls-4" x="19" y="13" width="2" height="2"/><rect class="cls-4" x="18" y="13" width="2" height="2"/><rect class="cls-4" x="16" y="13" width="2" height="2"/><rect class="cls-5" x="16" y="9" width="4" height="4"/><rect class="cls-5" x="30" y="9" width="4" height="4"/><rect class="cls-3" x="19" y="20" width="2" height="2"/><rect class="cls-3" x="29" y="20" width="2" height="2"/><rect class="cls-6" x="18" y="11" width="2" height="2"/><rect class="cls-6" x="30" y="11" width="2" height="2"/><rect class="cls-7" x="30" y="9" width="2" height="2"/><rect class="cls-7" x="18" y="9" width="2" height="2"/><rect class="cls-8" x="14" y="28" width="22" height="11"/><rect class="cls-8" x="36" y="29" width="2" height="4"/><rect class="cls-8" x="38" y="31" width="2" height="4"/><rect class="cls-8" x="12" y="29" width="2" height="4"/><rect class="cls-8" x="10" y="31" width="2" height="4"/><rect class="cls-8" x="12" y="33" width="2" height="2"/><rect class="cls-8" x="36" y="33" width="2" height="2"/><rect class="cls-8" x="17" y="39" width="15" height="4"/><rect class="cls-8" x="22" y="42" width="7" height="4"/><rect class="cls-8" x="25" y="46" width="2" height="4"/><rect class="cls-8" x="23" y="46" width="4" height="2"/><rect class="cls-8" x="27" y="43" width="4" height="2"/><rect class="cls-8" x="19" y="43" width="4" height="2"/><rect class="cls-8" x="16" y="39" width="4" height="2"/><rect class="cls-8" x="12" y="35" width="4" height="2"/><rect class="cls-8" x="30" y="39" width="4" height="2"/><rect class="cls-1" x="8" y="2" width="4" height="6"/><rect class="cls-1" x="10" width="4" height="2"/><rect class="cls-1" x="36" width="4" height="2"/><rect class="cls-1" x="6" y="3" width="4" height="6"/><rect class="cls-1" x="4" y="6" width="4" height="9"/><rect class="cls-1" x="3" y="7" width="2" height="6"/><rect class="cls-1" x="45" y="7" width="2" height="6"/><rect class="cls-1" x="42" y="6" width="4" height="9"/><rect class="cls-1" x="6" y="7" width="2" height="6"/><rect class="cls-1" x="6" y="11" width="2" height="6"/><rect class="cls-1" x="42" y="11" width="2" height="6"/><rect class="cls-2" x="42" y="15" width="4" height="2"/><rect class="cls-2" x="4" y="15" width="4" height="2"/><rect class="cls-2" x="6" y="9" width="2" height="6"/><rect class="cls-1" x="38" y="2" width="4" height="6"/><rect class="cls-1" x="40" y="3" width="4" height="6"/><rect class="cls-1" x="42" y="7" width="2" height="6"/><rect class="cls-1" x="17" y="28" width="15" height="2"/><rect class="cls-1" x="20" y="30" width="11" height="2"/><rect class="cls-9" x="22" y="26" width="7" height="2"/><rect class="cls-7" x="22" y="28" width="7" height="2"/><rect class="cls-7" x="18" y="37" width="2" height="2"/><rect class="cls-7" x="16" y="35" width="2" height="2"/><rect class="cls-7" x="14" y="33" width="2" height="2"/><rect class="cls-7" x="23" y="43" width="2" height="2"/><rect class="cls-7" x="25" y="43" width="2" height="2"/><rect class="cls-7" x="25" y="44" width="2" height="2"/><rect class="cls-7" x="21" y="41" width="2" height="2"/><rect class="cls-7" x="27" y="41" width="2" height="2"/><rect class="cls-7" x="29" y="39" width="2" height="2"/><rect class="cls-7" x="30" y="37" width="2" height="2"/><rect class="cls-7" x="32" y="35" width="2" height="2"/><rect class="cls-7" x="34" y="33" width="2" height="2"/><rect class="cls-7" x="36" y="31" width="2" height="2"/><rect class="cls-7" x="25" y="33" width="2" height="2"/><rect class="cls-7" x="23" y="35" width="2" height="2"/><rect class="cls-7" x="21" y="33" width="2" height="2"/><rect class="cls-7" x="21" y="33" width="2" height="2"/><rect class="cls-7" x="18" y="31" width="2" height="2"/><rect class="cls-7" x="16" y="30" width="2" height="2"/><rect class="cls-7" x="25" y="37" width="2" height="2"/><rect class="cls-7" x="30" y="31" width="2" height="2"/><rect class="cls-7" x="30" y="30" width="2" height="2"/><rect class="cls-7" x="32" y="30" width="2" height="2"/><rect class="cls-7" x="34" y="28" width="2" height="2"/><rect class="cls-7" x="19" y="39" width="2" height="2"/><rect class="cls-7" x="12" y="31" width="2" height="2"/><rect class="cls-7" x="23" y="24" width="4" height="2"/><rect class="cls-10" x="27" y="22" width="4" height="4"/><rect class="cls-10" x="19" y="22" width="4" height="4"/><rect class="cls-6" x="22" y="20" width="7" height="4"/><rect class="cls-2" x="42" y="9" width="2" height="6"/></svg>