<?xml version="1.0" encoding="utf-8"?>
<!-- Generator: Adobe Illustrator 23.0.2, SVG Export Plug-In . SVG Version: 6.00 Build 0)  -->
<svg version="1.1" id="Layer_1" xmlns="http://www.w3.org/2000/svg" xmlns:xlink="http://www.w3.org/1999/xlink" x="0px" y="0px"
	 viewBox="0 0 100 100" style="enable-background:new 0 0 100 100;" xml:space="preserve">
<style type="text/css">
	.st0{display:none;}
	.st1{fill:#FFFFFF;}
</style>
<g id="nbqsAw_1_">
</g>
<g id="wcrDnW_1_" class="st0">
</g>
<polygon class="st1" points="0,46.8 33,46.8 33,39.4 39.4,39.4 39.4,25.5 46.8,25.5 46.8,12.8 53.2,12.8 53.2,25.5 60.6,25.5 
	60.6,39.4 66,39.4 66,46.8 100,46.8 100,53.2 87.2,53.2 87.2,60.6 79.8,60.6 79.8,66 73.4,66 73.4,79.8 79.8,79.8 79.8,93.6 
	86.2,93.6 86.2,100 72.3,100 72.3,93.6 66,93.6 66,87.2 59.6,87.2 59.6,80 53.2,80 53.2,72.3 46.8,72.3 46.8,80 40.4,80 40.4,87.2 
	34,87.2 34,93.6 26.6,93.6 26.6,100 12.8,100 12.8,93.6 19.1,93.6 19.1,79.8 25.5,79.8 25.5,66 19.1,66 19.1,60.6 12.8,60.6 
	12.8,53.2 0,53.2 "/>
</svg>
