<svg id="Layer_1" data-name="Layer 1" xmlns="http://www.w3.org/2000/svg" viewBox="0 0 50 50"><defs><style>.cls-1{fill:#4a534f;}.cls-2{fill:#9e9e9e;}.cls-3{fill:#92a1a8;}.cls-4{fill:#272a20;}.cls-5{fill:#adadad;}.cls-6{fill:#727272;}.cls-7{fill:#9eabaf;}.cls-8{fill:#99a5a8;}</style></defs><title>Mobiliario</title><rect class="cls-1" x="36" y="18" width="1" height="24"/><rect class="cls-1" x="37" y="18" width="1" height="24"/><rect class="cls-2" x="14" y="38" width="1" height="1"/><rect class="cls-2" x="15" y="38" width="1" height="1"/><rect class="cls-2" x="13" y="38" width="1" height="1"/><rect class="cls-2" x="12" y="38" width="1" height="1"/><rect class="cls-2" x="10" y="20" width="10" height="18"/><rect class="cls-2" x="11" y="19" width="1" height="1"/><rect class="cls-2" x="12" y="19" width="8" height="1"/><rect class="cls-2" x="12" y="18" width="1" height="1"/><rect class="cls-2" x="13" y="18" width="6" height="1"/><rect class="cls-2" x="13" y="17" width="1" height="1"/><rect class="cls-2" x="14" y="17" width="5" height="1"/><rect class="cls-2" x="14" y="16" width="1" height="1"/><rect class="cls-2" x="15" y="16" width="3" height="1"/><rect class="cls-2" x="13" y="11" width="1" height="1"/><rect class="cls-2" x="13" y="15" width="1" height="1"/><rect class="cls-2" x="14" y="15" width="1" height="1"/><rect class="cls-2" x="11" y="18" width="1" height="1"/><rect class="cls-2" x="11" y="17" width="1" height="1"/><rect class="cls-2" x="12" y="17" width="1" height="1"/><rect class="cls-2" x="12" y="16" width="1" height="1"/><rect class="cls-2" x="12" y="15" width="1" height="1"/><rect class="cls-2" x="13" y="16" width="1" height="1"/><rect class="cls-3" x="14" y="46" width="1" height="1"/><rect class="cls-4" x="16" y="40" width="1" height="1"/><rect class="cls-4" x="16" y="39" width="1" height="1"/><rect class="cls-4" x="17" y="39" width="1" height="1"/><rect class="cls-4" x="20" y="39" width="1" height="1"/><rect class="cls-4" x="21" y="39" width="1" height="1"/><rect class="cls-4" x="22" y="39" width="1" height="1"/><rect class="cls-4" x="23" y="38" width="1" height="1"/><rect class="cls-4" x="24" y="38" width="1" height="1"/><rect class="cls-4" x="25" y="38" width="1" height="1"/><rect class="cls-4" x="26" y="37" width="1" height="1"/><rect class="cls-4" x="27" y="37" width="1" height="1"/><rect class="cls-4" x="21" y="17" width="1" height="1"/><rect class="cls-4" x="22" y="17" width="1" height="1"/><rect class="cls-4" x="23" y="17" width="1" height="1"/><rect class="cls-4" x="24" y="17" width="1" height="1"/><rect class="cls-4" x="25" y="17" width="1" height="1"/><rect class="cls-4" x="25" y="16" width="1" height="1"/><rect class="cls-4" x="26" y="16" width="1" height="1"/><rect class="cls-4" x="27" y="16" width="1" height="1"/><rect class="cls-4" x="28" y="16" width="1" height="1"/><rect class="cls-4" x="28" y="15" width="1" height="1"/><rect class="cls-4" x="29" y="15" width="1" height="1"/><rect class="cls-4" x="30" y="15" width="1" height="1"/><rect class="cls-4" x="31" y="15" width="1" height="1"/><rect class="cls-4" x="31" y="14" width="1" height="1"/><rect class="cls-4" x="32" y="14" width="1" height="1"/><rect class="cls-4" x="33" y="14" width="1" height="1"/><rect class="cls-4" x="34" y="14" width="1" height="1"/><rect class="cls-4" x="34" y="13" width="1" height="1"/><rect class="cls-4" x="34" y="12" width="1" height="1"/><rect class="cls-4" x="34" y="11" width="1" height="1"/><rect class="cls-4" x="34" y="10" width="1" height="1"/><rect class="cls-4" x="34" y="9" width="1" height="1"/><rect class="cls-4" x="32" y="9" width="1" height="1"/><rect class="cls-4" x="32" y="9" width="1" height="1"/><rect class="cls-4" x="33" y="9" width="1" height="1"/><rect class="cls-4" x="33" y="10" width="1" height="1"/><rect class="cls-4" x="29" y="12" width="1" height="1"/><rect class="cls-4" x="30" y="12" width="1" height="1"/><rect class="cls-4" x="30" y="13" width="1" height="1"/><rect class="cls-4" x="30" y="14" width="1" height="1"/><rect class="cls-4" x="28" y="14" width="1" height="1"/><rect class="cls-4" x="29" y="14" width="1" height="1"/><rect class="cls-4" x="27" y="14" width="1" height="1"/><rect class="cls-4" x="27" y="15" width="1" height="1"/><rect class="cls-4" x="26" y="15" width="1" height="1"/><rect class="cls-4" x="25" y="15" width="1" height="1"/><rect class="cls-4" x="24" y="16" width="1" height="1"/><rect class="cls-4" x="23" y="16" width="1" height="1"/><rect class="cls-4" x="21" y="16" width="1" height="1"/><rect class="cls-4" x="22" y="16" width="1" height="1"/><rect class="cls-4" x="22" y="15" width="1" height="1"/><rect class="cls-4" x="20" y="15" width="1" height="1"/><rect class="cls-4" x="21" y="15" width="1" height="1"/><rect class="cls-4" x="22" y="15" width="1" height="1"/><rect class="cls-4" x="23" y="15" width="1" height="1"/><rect class="cls-4" x="31" y="13" width="1" height="1"/><rect class="cls-4" x="32" y="13" width="1" height="1"/><rect class="cls-4" x="33" y="13" width="1" height="1"/><rect class="cls-4" x="33" y="12" width="1" height="1"/><rect class="cls-4" x="31" y="12" width="1" height="1"/><rect class="cls-4" x="32" y="11" width="1" height="1"/><rect class="cls-4" x="33" y="11" width="1" height="1"/><rect class="cls-4" x="32" y="11" width="1" height="1"/><rect class="cls-4" x="32" y="12" width="1" height="1"/><rect class="cls-4" x="32" y="11" width="1" height="1"/><rect class="cls-4" x="24" y="15" width="1" height="1"/><rect class="cls-4" x="24" y="14" width="1" height="1"/><rect class="cls-4" x="23" y="14" width="1" height="1"/><rect class="cls-4" x="25" y="14" width="1" height="1"/><rect class="cls-4" x="26" y="14" width="1" height="1"/><rect class="cls-4" x="26" y="13" width="1" height="1"/><rect class="cls-4" x="27" y="13" width="1" height="1"/><rect class="cls-4" x="28" y="13" width="1" height="1"/><rect class="cls-4" x="29" y="13" width="1" height="1"/><rect class="cls-4" x="32" y="8" width="1" height="1"/><rect class="cls-4" x="33" y="8" width="1" height="1"/><rect class="cls-4" x="32" y="10" width="1" height="1"/><rect class="cls-4" x="33" y="8" width="1" height="1"/><rect class="cls-4" x="33" y="8" width="1" height="1"/><rect class="cls-4" x="33" y="8" width="1" height="1"/><rect class="cls-4" x="34" y="8" width="1" height="1"/><rect class="cls-4" x="35" y="9" width="1" height="1"/><rect class="cls-4" x="35" y="10" width="1" height="1"/><rect class="cls-4" x="35" y="11" width="1" height="1"/><rect class="cls-4" x="35" y="12" width="1" height="1"/><rect class="cls-4" x="34" y="13" width="1" height="1"/><rect class="cls-4" x="35" y="13" width="1" height="1"/><rect class="cls-2" x="36" y="13" width="1" height="1"/><rect class="cls-4" x="36" y="12" width="1" height="1"/><rect class="cls-4" x="36" y="11" width="1" height="1"/><rect class="cls-4" x="36" y="10" width="1" height="1"/><rect class="cls-2" x="37" y="10" width="1" height="1"/><rect class="cls-2" x="36" y="11" width="1" height="1"/><rect class="cls-2" x="37" y="13" width="1" height="1"/><rect class="cls-4" x="28" y="37" width="1" height="1"/><rect class="cls-4" x="29" y="36" width="1" height="1"/><rect class="cls-4" x="30" y="36" width="1" height="1"/><rect class="cls-4" x="31" y="36" width="1" height="1"/><rect class="cls-4" x="30" y="36" width="1" height="1"/><rect class="cls-4" x="35" y="34" width="1" height="1"/><rect class="cls-4" x="32" y="35" width="1" height="1"/><rect class="cls-4" x="33" y="35" width="1" height="1"/><rect class="cls-4" x="34" y="35" width="1" height="1"/><rect class="cls-5" x="15" y="10" width="1" height="1"/><rect class="cls-5" x="20" y="10" width="1" height="1"/><rect class="cls-5" x="19" y="10" width="1" height="1"/><rect class="cls-5" x="18" y="10" width="1" height="1"/><rect class="cls-5" x="17" y="10" width="1" height="1"/><rect class="cls-5" x="16" y="10" width="1" height="1"/><rect class="cls-2" x="14" y="11" width="1" height="1"/><rect class="cls-2" x="15" y="11" width="1" height="1"/><rect class="cls-2" x="16" y="11" width="1" height="1"/><rect class="cls-5" x="27" y="6" width="1" height="1"/><rect class="cls-5" x="28" y="6" width="1" height="1"/><rect class="cls-5" x="29" y="6" width="1" height="1"/><rect class="cls-5" x="21" y="10" width="1" height="1"/><rect class="cls-5" x="22" y="9" width="1" height="1"/><rect class="cls-5" x="22" y="8" width="1" height="1"/><rect class="cls-5" x="23" y="8" width="1" height="1"/><rect class="cls-5" x="24" y="8" width="1" height="1"/><rect class="cls-5" x="24" y="7" width="1" height="1"/><rect class="cls-5" x="25" y="7" width="1" height="1"/><rect class="cls-5" x="26" y="7" width="1" height="1"/><rect class="cls-5" x="27" y="7" width="1" height="1"/><rect class="cls-5" x="21" y="9" width="1" height="1"/><rect class="cls-5" x="19" y="9" width="1" height="1"/><rect class="cls-5" x="20" y="9" width="1" height="1"/><rect class="cls-5" x="23" y="9" width="1" height="1"/><rect class="cls-5" x="24" y="9" width="1" height="1"/><rect class="cls-5" x="25" y="9" width="1" height="1"/><rect class="cls-5" x="25" y="8" width="1" height="1"/><rect class="cls-5" x="24" y="9" width="1" height="1"/><rect class="cls-5" x="26" y="8" width="1" height="1"/><rect class="cls-5" x="27" y="8" width="1" height="1"/><rect class="cls-6" x="20" y="11" width="1" height="1"/><rect class="cls-6" x="21" y="11" width="1" height="1"/><rect class="cls-6" x="19" y="11" width="1" height="1"/><rect class="cls-6" x="17" y="11" width="1" height="1"/><rect class="cls-6" x="18" y="11" width="1" height="1"/><rect class="cls-6" x="22" y="10" width="2" height="1"/><rect class="cls-6" x="24" y="10" width="1" height="1"/><rect class="cls-6" x="25" y="10" width="1" height="1"/><rect class="cls-6" x="24" y="10" width="1" height="1"/><rect class="cls-6" x="26" y="9" width="1" height="1"/><rect class="cls-6" x="27" y="9" width="1" height="1"/><rect class="cls-6" x="27" y="9" width="1" height="1"/><rect class="cls-6" x="28" y="9" width="1" height="1"/><rect class="cls-6" x="29" y="9" width="1" height="1"/><rect class="cls-6" x="29" y="8" width="1" height="1"/><rect class="cls-6" x="30" y="8" width="1" height="1"/><rect class="cls-6" x="31" y="8" width="1" height="1"/><rect class="cls-6" x="32" y="8" width="1" height="1"/><rect class="cls-6" x="32" y="7" width="1" height="1"/><rect class="cls-6" x="31" y="7" width="1" height="1"/><rect class="cls-6" x="32" y="7" width="1" height="1"/><rect class="cls-6" x="33" y="7" width="1" height="1"/><rect class="cls-6" x="34" y="7" width="1" height="1"/><rect class="cls-6" x="35" y="7" width="1" height="1"/><rect class="cls-6" x="35" y="8" width="1" height="1"/><rect class="cls-6" x="36" y="8" width="1" height="1"/><rect class="cls-6" x="34" y="6" width="1" height="1"/><rect class="cls-6" x="35" y="6" width="1" height="1"/><rect class="cls-6" x="36" y="9" width="1" height="1"/><rect class="cls-6" x="36" y="10" width="1" height="1"/><rect class="cls-5" x="28" y="8" width="1" height="1"/><rect class="cls-5" x="28" y="7" width="1" height="1"/><rect class="cls-5" x="29" y="7" width="1" height="1"/><rect class="cls-5" x="30" y="7" width="1" height="1"/><rect class="cls-5" x="30" y="6" width="1" height="1"/><rect class="cls-5" x="31" y="6" width="1" height="1"/><rect class="cls-5" x="32" y="6" width="1" height="1"/><rect class="cls-5" x="33" y="6" width="1" height="1"/><rect class="cls-5" x="32" y="6" width="1" height="1"/><rect class="cls-4" x="36" y="34" width="1" height="1"/><rect class="cls-4" x="37" y="34" width="1" height="1"/><rect class="cls-2" x="10" y="19" width="1" height="1"/><rect class="cls-2" x="13" y="11" width="1" height="1"/><rect class="cls-6" x="18" y="17" width="3" height="1" transform="translate(37 -2) rotate(90)"/><rect class="cls-6" x="19" y="17" width="3" height="1" transform="translate(38 -3) rotate(90)"/><rect class="cls-6" x="18" y="14" width="3" height="1" transform="translate(34 -5) rotate(90)"/><rect class="cls-6" x="17.5" y="12.5" width="2" height="1" transform="translate(31.5 -5.5) rotate(90)"/><rect class="cls-6" x="37.5" y="11.5" width="2" height="1" transform="translate(50.5 -26.5) rotate(90)"/><rect class="cls-3" x="12" y="22" width="4" height="26"/><rect class="cls-6" x="36" y="11" width="3" height="1" transform="translate(49 -26) rotate(90)"/><rect class="cls-6" x="16" y="13" width="3" height="1" transform="translate(31 -4) rotate(90)"/><rect class="cls-6" x="17" y="15" width="3" height="1" transform="translate(34 -3) rotate(90)"/><rect class="cls-2" x="15" y="15" width="3" height="1"/><rect class="cls-2" x="13" y="14" width="3" height="1"/><rect class="cls-2" x="13" y="13" width="3" height="1"/><rect class="cls-2" x="13" y="12" width="3" height="1"/><rect class="cls-2" x="14" y="12" width="3" height="1"/><rect class="cls-2" x="14" y="13" width="3" height="1"/><rect class="cls-2" x="14" y="14" width="3" height="1"/><rect class="cls-2" x="19" y="38" width="1" height="1"/><rect class="cls-2" x="17" y="38" width="1" height="1"/><rect class="cls-2" x="18" y="38" width="1" height="1"/><rect class="cls-2" x="18" y="39" width="1" height="1"/><rect class="cls-2" x="19" y="39" width="1" height="1"/><rect class="cls-2" x="16" y="38" width="1" height="1"/><rect class="cls-7" x="12" y="22" width="1" height="27"/><rect class="cls-8" x="13" y="22" width="2" height="1"/><rect class="cls-1" x="15" y="23" width="1" height="24"/><rect class="cls-4" x="13" y="25" width="1" height="1"/><rect class="cls-1" x="36" y="17" width="3" height="24"/><rect class="cls-6" x="20" y="19" width="20" height="14"/><rect class="cls-6" x="20" y="33" width="3" height="6"/><rect class="cls-6" x="23" y="32" width="3" height="6"/><rect class="cls-6" x="26" y="31" width="3" height="6"/><rect class="cls-6" x="29" y="30" width="3" height="6"/><rect class="cls-6" x="32" y="29" width="3" height="6"/><rect class="cls-6" x="23" y="18" width="3" height="6"/><rect class="cls-6" x="21" y="18" width="3" height="6"/><rect class="cls-6" x="25" y="18" width="3" height="6"/><rect class="cls-6" x="26" y="17" width="3" height="6"/><rect class="cls-6" x="29" y="16" width="3" height="6"/><rect class="cls-6" x="32" y="15" width="3" height="6"/><rect class="cls-6" x="34" y="14" width="3" height="6"/><rect class="cls-6" x="37" y="13" width="3" height="6"/><rect class="cls-6" x="35" y="28" width="3" height="6"/><rect class="cls-2" x="37" y="13" width="1" height="1"/><rect class="cls-2" x="36" y="12" width="1" height="1"/></svg>