<svg id="Layer_1" data-name="Layer 1" xmlns="http://www.w3.org/2000/svg" viewBox="0 0 50 50"><defs><style>.cls-1{fill:#d8d8d8;}.cls-2{fill:#ff4080;}.cls-3{fill:#878787;}.cls-4{fill:#824537;}.cls-5{fill:#d64c22;}.cls-6{fill:#a53c23;}</style></defs><title>Muralla_1</title><polygon class="cls-1" points="25 0 0.2 0 0 0 0 50 0.2 50 25 50 50 50 50 0 25 0"/><rect class="cls-2" x="22" y="30" width="1" height="1"/><rect class="cls-2" x="4" y="27" width="1" height="1"/><rect class="cls-2" x="2" y="27" width="1" height="1"/><rect class="cls-2" x="3" y="27" width="1" height="1"/><rect class="cls-3" x="8" y="48" width="1" height="1"/><rect class="cls-3" x="9" y="47" width="1" height="1"/><rect class="cls-3" x="10" y="46" width="1" height="1"/><rect class="cls-3" x="9" y="45" width="1" height="1"/><rect class="cls-3" x="9" y="44" width="1" height="1"/><rect class="cls-3" x="10" y="44" width="1" height="1"/><rect class="cls-3" x="10" y="43" width="1" height="1"/><rect class="cls-3" x="11" y="43" width="1" height="1"/><rect class="cls-3" x="12" y="43" width="1" height="1"/><rect class="cls-3" x="12" y="42" width="1" height="1"/><rect class="cls-3" x="13" y="42" width="1" height="1"/><rect class="cls-3" x="14" y="42" width="1" height="1"/><rect class="cls-3" x="15" y="42" width="1" height="1"/><rect class="cls-3" x="15" y="41" width="1" height="1"/><rect class="cls-3" x="15" y="40" width="1" height="1"/><rect class="cls-3" x="16" y="40" width="1" height="1"/><rect class="cls-3" x="17" y="49" width="1" height="1"/><rect class="cls-3" x="18" y="49" width="1" height="1"/><rect class="cls-3" x="18" y="48" width="1" height="1"/><rect class="cls-3" x="18" y="47" width="1" height="1"/><rect class="cls-3" x="19" y="45" width="1" height="1"/><rect class="cls-3" x="16" y="45" width="1" height="1"/><rect class="cls-3" x="16" y="46" width="1" height="1"/><rect class="cls-3" x="14" y="45" width="1" height="1"/><rect class="cls-3" x="14" y="46" width="1" height="1"/><rect class="cls-3" x="13" y="46" width="1" height="1"/><rect class="cls-3" x="13" y="47" width="1" height="1"/><rect class="cls-3" x="12" y="47" width="1" height="1"/><rect class="cls-3" x="12" y="48" width="1" height="1"/><rect class="cls-3" x="11" y="48" width="1" height="1"/><rect class="cls-3" x="11" y="49" width="1" height="1"/><rect class="cls-3" x="1" y="48" width="1" height="1"/><rect class="cls-3" x="1" y="47" width="1" height="1"/><rect class="cls-3" x="1" y="46" width="1" height="1"/><rect class="cls-3" y="46" width="1" height="1"/><rect class="cls-3" y="45" width="1" height="1"/><rect class="cls-3" x="9" y="49" width="1" height="1"/><rect class="cls-3" y="49" width="1" height="1"/><rect class="cls-3" x="6" y="48" width="1" height="1"/><rect class="cls-3" x="5" y="49" width="1" height="1"/><rect class="cls-3" x="3" y="49" width="1" height="1"/><rect class="cls-3" x="5" y="47" width="1" height="1"/><rect class="cls-3" x="2" y="44" width="1" height="1"/><rect class="cls-3" x="5" y="44" width="1" height="1"/><rect class="cls-3" x="3" y="43" width="1" height="1"/><rect class="cls-3" x="4" y="42" width="1" height="1"/><rect class="cls-3" x="1" y="43" width="1" height="1"/><rect class="cls-4" width="7" height="4"/><rect class="cls-4" y="3" width="12" height="5"/><rect class="cls-4" x="-6" y="7" width="12" height="5"/><rect class="cls-4" x="38" y="47" width="20" height="5"/><rect class="cls-4" x="34" y="43" width="20" height="5"/><rect class="cls-4" x="38" y="39" width="20" height="5"/><rect class="cls-4" x="43" y="35" width="20" height="5"/><rect class="cls-3" y="42" width="1" height="1"/><rect class="cls-5" x="-1" width="7" height="3"/><rect class="cls-5" x="-4" y="4" width="7" height="3"/><rect class="cls-5" x="47" y="40" width="7" height="3"/><rect class="cls-5" x="39" y="40" width="7" height="3"/><rect class="cls-5" x="44" y="36" width="7" height="3"/><rect class="cls-5" x="43" y="44" width="7" height="3"/><rect class="cls-5" x="35" y="44" width="7" height="3"/><rect class="cls-5" x="39" y="48" width="7" height="3"/><rect class="cls-5" x="47" y="48" width="7" height="3"/><rect class="cls-5" x="4" y="4" width="7" height="3"/><rect class="cls-5" x="-2" y="8" width="7" height="3"/><rect class="cls-1" y="11" width="1" height="1"/><rect class="cls-1" x="5" y="11" width="1" height="1"/><rect class="cls-1" x="5" y="7" width="1" height="1"/><rect class="cls-1" x="6" y="7" width="1" height="1"/><rect class="cls-1" x="7" y="7" width="1" height="1"/><rect class="cls-1" x="5" y="8" width="1" height="1"/><rect class="cls-1" x="11" y="7" width="1" height="1"/><rect class="cls-1" x="11" y="6" width="1" height="1"/><rect class="cls-1" x="11" y="5" width="1" height="1"/><rect class="cls-1" x="10" y="5" width="1" height="1"/><rect class="cls-1" x="10" y="4" width="1" height="1"/><rect class="cls-1" x="11" y="4" width="1" height="1"/><rect class="cls-1" x="11" y="3" width="1" height="1"/><rect class="cls-1" x="10" y="3" width="1" height="1"/><rect class="cls-1" x="9" y="3" width="1" height="1"/><rect class="cls-1" x="9" y="4" width="1" height="1"/><rect class="cls-4" x="8" y="4" width="1" height="1"/><rect class="cls-4" x="8" y="5" width="1" height="1"/><rect class="cls-4" x="9" y="5" width="1" height="1"/><rect class="cls-6" x="4" y="5" width="1" height="1"/><rect class="cls-6" x="4" y="6" width="1" height="1"/><rect class="cls-6" x="5" y="6" width="1" height="1"/><rect class="cls-6" x="3" y="1" width="1" height="1"/><rect class="cls-6" y="1" width="1" height="1"/><rect class="cls-6" x="1" width="1" height="1"/><rect class="cls-6" x="2" y="5" width="1" height="1"/><rect class="cls-6" y="4" width="1" height="1"/><rect class="cls-6" x="1" y="9" width="1" height="1"/><rect class="cls-6" x="2" y="9" width="1" height="1"/><rect class="cls-6" x="41" y="44" width="1" height="1"/><rect class="cls-6" x="39" y="46" width="1" height="1"/><rect class="cls-6" x="38" y="46" width="1" height="1"/><rect class="cls-6" x="39" y="40" width="1" height="1"/><rect class="cls-6" x="40" y="40" width="1" height="1"/><rect class="cls-6" x="42" y="41" width="1" height="1"/><rect class="cls-6" x="44" y="42" width="1" height="1"/><rect class="cls-6" x="45" y="42" width="1" height="1"/><rect class="cls-6" x="45" y="38" width="1" height="1"/><rect class="cls-6" x="46" y="38" width="1" height="1"/><rect class="cls-6" x="47" y="37" width="1" height="1"/><rect class="cls-6" x="48" y="37" width="1" height="1"/><rect class="cls-6" x="48" y="41" width="1" height="1"/><rect class="cls-6" x="48" y="42" width="1" height="1"/><rect class="cls-6" x="49" y="42" width="1" height="1"/><rect class="cls-6" x="49" y="41" width="1" height="1"/><rect class="cls-6" x="49" y="48" width="1" height="1"/><rect class="cls-6" x="48" y="48" width="1" height="1"/><rect class="cls-6" x="48" y="49" width="1" height="1"/><rect class="cls-6" x="45" y="49" width="1" height="1"/><rect class="cls-6" x="44" y="49" width="1" height="1"/><rect class="cls-6" x="43" y="49" width="1" height="1"/><rect class="cls-6" x="42" y="49" width="1" height="1"/><rect class="cls-6" x="41" y="49" width="1" height="1"/><rect class="cls-6" x="41" y="48" width="1" height="1"/><rect class="cls-6" x="40" y="48" width="1" height="1"/><rect class="cls-6" x="40" y="49" width="1" height="1"/><rect class="cls-6" x="40" y="48" width="1" height="1"/><rect class="cls-6" x="44" y="46" width="1" height="1"/><rect class="cls-6" x="45" y="44" width="1" height="1"/><rect class="cls-6" x="47" y="44" width="1" height="1"/><rect class="cls-6" x="48" y="45" width="1" height="1"/><rect class="cls-6" x="48" y="46" width="1" height="1"/><rect class="cls-6" x="47" y="46" width="1" height="1"/><rect class="cls-6" x="4" y="8" width="1" height="1"/><rect class="cls-6" x="3" y="10" width="1" height="1"/><rect class="cls-6" y="8" width="1" height="1"/><rect class="cls-1" x="38" y="48" width="1" height="1"/><rect class="cls-1" x="38" y="47" width="1" height="1"/><rect class="cls-1" x="38" y="48" width="1" height="1"/><rect class="cls-1" x="38" y="47" width="1" height="1"/><rect class="cls-1" x="39" y="47" width="1" height="1"/><rect class="cls-1" x="40" y="47" width="1" height="1"/><rect class="cls-1" x="40" y="46" width="1" height="1"/><rect class="cls-1" x="37" y="47" width="1" height="1"/><rect class="cls-1" x="36" y="47" width="1" height="1"/><rect class="cls-1" x="35" y="47" width="1" height="1"/><rect class="cls-1" x="35" y="46" width="1" height="1"/><rect class="cls-1" x="35" y="45" width="1" height="1"/><rect class="cls-1" x="35" y="44" width="1" height="1"/><rect class="cls-1" x="34" y="44" width="1" height="1"/><rect class="cls-1" x="34" y="45" width="1" height="1"/><rect class="cls-1" x="35" y="43" width="1" height="1"/><rect class="cls-1" x="36" y="43" width="1" height="1"/><rect class="cls-1" x="37" y="44" width="1" height="1"/><rect class="cls-1" x="36" y="44" width="1" height="1"/><rect class="cls-1" x="34" y="43" width="1" height="1"/><rect class="cls-1" x="38" y="42" width="1" height="1"/><rect class="cls-1" x="38" y="41" width="1" height="1"/><rect class="cls-1" x="38" y="40" width="1" height="1"/><rect class="cls-1" x="39" y="40" width="1" height="1"/><rect class="cls-1" x="39" y="39" width="1" height="1"/><rect class="cls-1" x="40" y="39" width="1" height="1"/><rect class="cls-1" x="41" y="39" width="1" height="1"/><rect class="cls-1" x="42" y="39" width="1" height="1"/><rect class="cls-1" x="42" y="38" width="1" height="1"/><rect class="cls-1" x="43" y="38" width="1" height="1"/><rect class="cls-1" x="43" y="37" width="1" height="1"/><rect class="cls-1" x="43" y="36" width="1" height="1"/><rect class="cls-1" x="44" y="36" width="1" height="1"/><rect class="cls-1" x="45" y="36" width="1" height="1"/><rect class="cls-1" x="45" y="35" width="1" height="1"/><rect class="cls-1" x="44" y="35" width="1" height="1"/><rect class="cls-3" x="43" width="1" height="1"/><rect class="cls-3" x="43" y="1" width="1" height="1"/><rect class="cls-3" x="44" y="1" width="1" height="1"/><rect class="cls-3" x="44" y="2" width="1" height="1"/><rect class="cls-3" x="44" y="3" width="1" height="1"/><rect class="cls-3" x="43" y="3" width="1" height="1"/><rect class="cls-3" x="42" y="3" width="1" height="1"/><rect class="cls-3" x="42" y="4" width="1" height="1"/><rect class="cls-3" x="42" y="5" width="1" height="1"/><rect class="cls-3" x="41" y="5" width="1" height="1"/><rect class="cls-3" x="40" y="5" width="1" height="1"/><rect class="cls-3" x="40" y="6" width="1" height="1"/><rect class="cls-3" x="40" y="7" width="1" height="1"/><rect class="cls-3" x="39" y="7" width="1" height="1"/><rect class="cls-3" x="38" y="7" width="1" height="1"/><rect class="cls-3" x="37" y="7" width="1" height="1"/><rect class="cls-3" x="37" y="8" width="1" height="1"/><rect class="cls-3" x="37" y="9" width="1" height="1"/><rect class="cls-3" x="36" y="6" width="1" height="1"/><rect class="cls-3" x="37" y="6" width="1" height="1"/><rect class="cls-3" x="36" y="4" width="1" height="1"/><rect class="cls-3" x="37" y="3" width="1" height="1"/><rect class="cls-3" x="39" y="2" width="1" height="1"/><rect class="cls-3" x="40" y="1" width="1" height="1"/><rect class="cls-3" x="41" y="1" width="1" height="1"/><rect class="cls-3" x="46" y="4" width="1" height="1"/><rect class="cls-3" x="45" y="6" width="1" height="1"/><rect class="cls-2" x="2" y="18" width="1" height="9"/><rect class="cls-2" x="5.5" y="18.5" width="1" height="2" transform="translate(25.5 13.5) rotate(90)"/><rect class="cls-2" x="3" y="17" width="1" height="3" transform="translate(22 15) rotate(90)"/><rect class="cls-2" x="7" y="20" width="1" height="1" transform="translate(28 13) rotate(90)"/><rect class="cls-2" x="7" y="21" width="1" height="1" transform="translate(29 14) rotate(90)"/><rect class="cls-2" x="7" y="22" width="1" height="1" transform="translate(30 15) rotate(90)"/><rect class="cls-2" x="7" y="23" width="1" height="1" transform="translate(31 16) rotate(90)"/><rect class="cls-2" x="7" y="24" width="1" height="1" transform="translate(32 17) rotate(90)"/><rect class="cls-2" x="9.5" y="17.5" width="1" height="2" transform="translate(28.5 8.5) rotate(90)"/><rect class="cls-2" x="11.5" y="17.5" width="1" height="2" transform="translate(30.5 6.5) rotate(90)"/><rect class="cls-2" x="9.5" y="20.5" width="1" height="2" transform="translate(31.5 11.5) rotate(90)"/><rect class="cls-2" x="9.5" y="24.5" width="1" height="2" transform="translate(35.5 15.5) rotate(90)"/><rect class="cls-2" x="10.5" y="24.5" width="1" height="2" transform="translate(36.5 14.5) rotate(90)"/><rect class="cls-2" x="11.5" y="24.5" width="1" height="2" transform="translate(37.5 13.5) rotate(90)"/><rect class="cls-2" x="7" y="25" width="1" height="1" transform="translate(33 18) rotate(90)"/><rect class="cls-2" x="43" y="25" width="1" height="7"/><rect class="cls-2" x="47" y="28" width="1" height="3" transform="translate(95 59) rotate(180)"/><rect class="cls-2" x="44.5" y="22.5" width="1" height="4" transform="translate(69.5 -20.5) rotate(90)"/><rect class="cls-2" x="47" y="26" width="1" height="1" transform="translate(74 -21) rotate(90)"/><rect class="cls-2" x="47" y="25" width="1" height="1" transform="translate(73 -22) rotate(90)"/><rect class="cls-2" x="47" y="27" width="1" height="1" transform="translate(75 -20) rotate(90)"/><rect class="cls-2" x="46.5" y="30.5" width="1" height="2" transform="translate(78.5 -15.5) rotate(90)"/><rect class="cls-2" x="44.5" y="31.5" width="1" height="2" transform="translate(77.5 -12.5) rotate(90)"/><rect class="cls-2" x="44" y="24.99" width="1" height="7" transform="translate(0.18 -0.28) rotate(0.35)"/><rect class="cls-2" x="45.52" y="22.5" width="1" height="4" transform="translate(70.81 -21.37) rotate(90.35)"/><rect class="cls-2" x="45.48" y="31.5" width="1" height="2" transform="translate(78.76 -13.27) rotate(90.35)"/><rect class="cls-2" x="47" y="28" width="1" height="3" transform="translate(95 59) rotate(180)"/><rect class="cls-2" x="44.5" y="22.5" width="1" height="4" transform="translate(69.5 -20.5) rotate(90)"/><rect class="cls-2" x="47" y="26" width="1" height="1" transform="translate(74 -21) rotate(90)"/><rect class="cls-2" x="47" y="25" width="1" height="1" transform="translate(73 -22) rotate(90)"/><rect class="cls-2" x="47" y="27" width="1" height="1" transform="translate(75 -20) rotate(90)"/><rect class="cls-2" x="46.5" y="30.5" width="1" height="2" transform="translate(78.5 -15.5) rotate(90)"/><rect class="cls-2" x="47" y="28" width="1" height="3" transform="translate(95 59) rotate(180)"/><rect class="cls-2" x="47" y="26" width="1" height="1" transform="translate(74 -21) rotate(90)"/><rect class="cls-2" x="47" y="25" width="1" height="1" transform="translate(73 -22) rotate(90)"/><rect class="cls-2" x="47" y="27" width="1" height="1" transform="translate(75 -20) rotate(90)"/><rect class="cls-2" x="46.5" y="30.5" width="1" height="2" transform="translate(78.5 -15.5) rotate(90)"/><rect class="cls-2" x="47" y="28" width="1" height="3" transform="translate(95 59) rotate(180)"/><rect class="cls-2" x="47" y="26" width="1" height="1" transform="translate(74 -21) rotate(90)"/><rect class="cls-2" x="47" y="25" width="1" height="1" transform="translate(73 -22) rotate(90)"/><rect class="cls-2" x="47" y="27" width="1" height="1" transform="translate(75 -20) rotate(90)"/><rect class="cls-2" x="46.5" y="30.5" width="1" height="2" transform="translate(78.5 -15.5) rotate(90)"/><rect class="cls-2" x="48" y="29" width="1" height="3" transform="translate(97 61) rotate(180)"/><rect class="cls-2" x="48" y="27" width="1" height="1" transform="translate(76 -21) rotate(90)"/><rect class="cls-2" x="48" y="26" width="1" height="1" transform="translate(75 -22) rotate(90)"/><rect class="cls-2" x="48" y="28" width="1" height="1" transform="translate(77 -20) rotate(90)"/><rect class="cls-2" x="47.5" y="31.5" width="1" height="2" transform="translate(80.5 -15.5) rotate(90)"/><rect class="cls-2" x="48" y="29" width="1" height="3" transform="translate(97 61) rotate(180)"/><rect class="cls-2" x="48" y="27" width="1" height="1" transform="translate(76 -21) rotate(90)"/><rect class="cls-2" x="48" y="26" width="1" height="1" transform="translate(75 -22) rotate(90)"/><rect class="cls-2" x="48" y="28" width="1" height="1" transform="translate(77 -20) rotate(90)"/><rect class="cls-2" x="47.5" y="31.5" width="1" height="2" transform="translate(80.5 -15.5) rotate(90)"/><rect class="cls-2" x="45.52" y="22.5" width="1" height="4" transform="translate(70.81 -21.37) rotate(90.35)"/><rect class="cls-2" x="45.48" y="31.5" width="1" height="2" transform="translate(78.76 -13.27) rotate(90.35)"/><rect class="cls-2" x="6" y="25" width="1" height="1" transform="translate(32 19) rotate(90)"/><rect class="cls-2" x="9" y="24" width="1" height="1" transform="translate(34 15) rotate(90)"/><rect class="cls-2" x="9" y="23" width="1" height="1" transform="translate(33 14) rotate(90)"/><rect class="cls-2" x="9" y="22" width="1" height="1" transform="translate(32 13) rotate(90)"/><rect class="cls-2" x="9" y="21" width="1" height="1" transform="translate(31 12) rotate(90)"/><rect class="cls-2" x="9" y="20" width="1" height="1" transform="translate(30 11) rotate(90)"/><rect class="cls-2" x="9" y="19" width="1" height="1" transform="translate(29 10) rotate(90)"/><rect class="cls-2" x="13" y="18" width="1" height="1" transform="translate(32 5) rotate(90)"/><rect class="cls-2" x="11" y="22" width="1" height="1" transform="translate(34 11) rotate(90)"/><rect class="cls-2" x="11" y="21" width="1" height="1" transform="translate(33 10) rotate(90)"/><rect class="cls-2" x="13" y="25" width="1" height="1" transform="translate(39 12) rotate(90)"/><rect class="cls-2" x="13" y="26" width="1" height="1" transform="translate(40 13) rotate(90)"/><rect class="cls-2" x="9" y="26" width="1" height="1" transform="translate(36 17) rotate(90)"/><rect class="cls-2" x="9" y="27" width="1" height="1" transform="translate(37 18) rotate(90)"/><rect class="cls-2" x="10" y="26" width="1" height="1" transform="translate(37 16) rotate(90)"/><rect class="cls-2" x="10.5" y="17.5" width="1" height="2" transform="translate(29.5 7.5) rotate(90)"/><rect class="cls-2" x="12.5" y="17.5" width="1" height="2" transform="translate(31.5 5.5) rotate(90)"/><rect class="cls-2" x="10.5" y="20.5" width="1" height="2" transform="translate(32.5 10.5) rotate(90)"/><rect class="cls-2" x="10.5" y="24.5" width="1" height="2" transform="translate(36.5 14.5) rotate(90)"/><rect class="cls-2" x="11.5" y="24.5" width="1" height="2" transform="translate(37.5 13.5) rotate(90)"/><rect class="cls-2" x="12.5" y="24.5" width="1" height="2" transform="translate(38.5 12.5) rotate(90)"/><rect class="cls-2" x="10" y="24" width="1" height="1" transform="translate(35 14) rotate(90)"/><rect class="cls-2" x="10" y="23" width="1" height="1" transform="translate(34 13) rotate(90)"/><rect class="cls-2" x="10" y="22" width="1" height="1" transform="translate(33 12) rotate(90)"/><rect class="cls-2" x="10" y="21" width="1" height="1" transform="translate(32 11) rotate(90)"/><rect class="cls-2" x="10" y="20" width="1" height="1" transform="translate(31 10) rotate(90)"/><rect class="cls-2" x="10" y="19" width="1" height="1" transform="translate(30 9) rotate(90)"/><rect class="cls-2" x="14" y="18" width="1" height="1" transform="translate(33 4) rotate(90)"/><rect class="cls-2" x="12" y="22" width="1" height="1" transform="translate(35 10) rotate(90)"/><rect class="cls-2" x="12" y="21" width="1" height="1" transform="translate(34 9) rotate(90)"/><rect class="cls-2" x="14" y="25" width="1" height="1" transform="translate(40 11) rotate(90)"/><rect class="cls-2" x="37" y="28" width="1" height="1" transform="translate(66 -9) rotate(90)"/><rect class="cls-2" x="31" y="29" width="1" height="1" transform="translate(61 -2) rotate(90)"/><rect class="cls-2" x="22" y="31" width="1" height="1" transform="translate(54 9) rotate(90)"/><rect class="cls-2" x="16" y="21" width="1" height="1" transform="translate(38 5) rotate(90)"/><rect class="cls-2" x="17" y="21" width="1" height="1" transform="translate(39 4) rotate(90)"/><rect class="cls-2" x="18" y="21" width="1" height="1" transform="translate(40 3) rotate(90)"/><rect class="cls-2" x="15" y="22" width="1" height="1" transform="translate(38 7) rotate(90)"/><rect class="cls-2" x="15" y="23" width="1" height="1" transform="translate(39 8) rotate(90)"/><rect class="cls-2" x="15" y="24" width="1" height="1" transform="translate(40 9) rotate(90)"/><rect class="cls-2" x="16" y="25" width="1" height="1" transform="translate(42 9) rotate(90)"/><rect class="cls-2" x="17" y="25" width="1" height="1" transform="translate(43 8) rotate(90)"/><rect class="cls-2" x="18" y="25" width="1" height="1" transform="translate(44 7) rotate(90)"/><rect class="cls-2" x="19" y="25" width="1" height="1" transform="translate(45 6) rotate(90)"/><rect class="cls-2" x="19" y="26" width="1" height="1" transform="translate(46 7) rotate(90)"/><rect class="cls-2" x="19" y="27" width="1" height="1" transform="translate(47 8) rotate(90)"/><rect class="cls-2" x="20" y="26" width="1" height="1" transform="translate(47 6) rotate(90)"/><rect class="cls-2" x="20" y="27" width="1" height="1" transform="translate(48 7) rotate(90)"/><rect class="cls-2" x="20" y="28" width="1" height="1" transform="translate(49 8) rotate(90)"/><rect class="cls-2" x="19" y="28" width="1" height="1" transform="translate(48 9) rotate(90)"/><rect class="cls-2" x="18" y="28" width="1" height="1" transform="translate(47 10) rotate(90)"/><rect class="cls-2" x="17" y="28" width="1" height="1" transform="translate(46 11) rotate(90)"/><rect class="cls-2" x="16" y="28" width="1" height="1" transform="translate(45 12) rotate(90)"/><rect class="cls-2" x="15" y="28" width="1" height="1" transform="translate(44 13) rotate(90)"/><rect class="cls-2" x="19" y="28" width="1" height="1" transform="translate(48 9) rotate(90)"/><rect class="cls-2" x="18" y="29" width="1" height="1" transform="translate(48 11) rotate(90)"/><rect class="cls-2" x="17" y="29" width="1" height="1" transform="translate(47 12) rotate(90)"/><rect class="cls-2" x="16" y="29" width="1" height="1" transform="translate(46 13) rotate(90)"/><rect class="cls-2" x="19" y="22" width="1" height="1" transform="translate(42 3) rotate(90)"/><rect class="cls-2" x="20" y="22" width="1" height="1" transform="translate(43 2) rotate(90)"/><rect class="cls-2" x="17" y="21" width="1" height="1" transform="translate(39 4) rotate(90)"/><rect class="cls-2" x="18" y="21" width="1" height="1" transform="translate(40 3) rotate(90)"/><rect class="cls-2" x="19" y="21" width="1" height="1" transform="translate(41 2) rotate(90)"/><rect class="cls-2" x="16" y="22" width="1" height="1" transform="translate(39 6) rotate(90)"/><rect class="cls-2" x="16" y="23" width="1" height="1" transform="translate(40 7) rotate(90)"/><rect class="cls-2" x="16" y="24" width="1" height="1" transform="translate(41 8) rotate(90)"/><rect class="cls-2" x="17" y="25" width="1" height="1" transform="translate(43 8) rotate(90)"/><rect class="cls-2" x="18" y="25" width="1" height="1" transform="translate(44 7) rotate(90)"/><rect class="cls-2" x="19" y="25" width="1" height="1" transform="translate(45 6) rotate(90)"/><rect class="cls-2" x="18" y="26" width="1" height="1" transform="translate(45 8) rotate(90)"/><rect class="cls-2" x="15" y="27" width="1" height="1" transform="translate(43 12) rotate(90)"/><rect class="cls-2" x="16" y="27" width="1" height="1" transform="translate(44 11) rotate(90)"/><rect class="cls-2" x="18" y="28" width="1" height="1" transform="translate(47 10) rotate(90)"/><rect class="cls-2" x="17" y="28" width="1" height="1" transform="translate(46 11) rotate(90)"/><rect class="cls-2" x="16" y="28" width="1" height="1" transform="translate(45 12) rotate(90)"/><rect class="cls-2" x="19" y="29" width="1" height="1" transform="translate(49 10) rotate(90)"/><rect class="cls-2" x="18" y="29" width="1" height="1" transform="translate(48 11) rotate(90)"/><rect class="cls-2" x="17" y="29" width="1" height="1" transform="translate(47 12) rotate(90)"/><rect class="cls-2" x="22" y="29" width="1" height="1" transform="translate(52 7) rotate(90)"/><rect class="cls-2" x="22" y="28" width="1" height="1" transform="translate(51 6) rotate(90)"/><rect class="cls-2" x="22" y="27" width="1" height="1" transform="translate(50 5) rotate(90)"/><rect class="cls-2" x="22" y="26" width="1" height="1" transform="translate(49 4) rotate(90)"/><rect class="cls-2" x="22" y="25" width="1" height="1" transform="translate(48 3) rotate(90)"/><rect class="cls-2" x="22" y="23" width="1" height="1" transform="translate(46 1) rotate(90)"/><rect class="cls-2" x="22" y="22" width="1" height="1" transform="translate(45) rotate(90)"/><rect class="cls-2" x="22" y="22" width="1" height="1" transform="translate(45) rotate(90)"/><rect class="cls-2" x="41" y="28" width="1" height="1"/><rect class="cls-2" x="41" y="27" width="1" height="1" transform="translate(69 -14) rotate(90)"/><rect class="cls-2" x="41" y="26" width="1" height="1" transform="translate(68 -15) rotate(90)"/><rect class="cls-2" x="41" y="25" width="1" height="1" transform="translate(67 -16) rotate(90)"/><rect class="cls-2" x="41" y="24" width="1" height="1" transform="translate(66 -17) rotate(90)"/><rect class="cls-2" x="41" y="23" width="1" height="1" transform="translate(65 -18) rotate(90)"/><rect class="cls-2" x="41" y="22" width="1" height="1" transform="translate(64 -19) rotate(90)"/><rect class="cls-2" x="40" y="29" width="1" height="1"/><rect class="cls-2" x="41" y="30" width="1" height="1"/><rect class="cls-2" x="41" y="29" width="1" height="1"/><rect class="cls-2" x="40" y="27" width="1" height="1" transform="translate(68 -13) rotate(90)"/><rect class="cls-2" x="40" y="26" width="1" height="1" transform="translate(67 -14) rotate(90)"/><rect class="cls-2" x="40" y="25" width="1" height="1" transform="translate(66 -15) rotate(90)"/><rect class="cls-2" x="40" y="24" width="1" height="1" transform="translate(65 -16) rotate(90)"/><rect class="cls-2" x="40" y="23" width="1" height="1" transform="translate(64 -17) rotate(90)"/><rect class="cls-2" x="40" y="22" width="1" height="1" transform="translate(63 -18) rotate(90)"/><rect class="cls-2" x="41" y="21" width="1" height="1" transform="translate(63 -20) rotate(90)"/><rect class="cls-2" x="40" y="21" width="1" height="1" transform="translate(62 -19) rotate(90)"/><rect class="cls-2" x="43" y="21" width="1" height="1" transform="translate(65 -22) rotate(90)"/><rect class="cls-2" x="42" y="21" width="1" height="1" transform="translate(64 -21) rotate(90)"/><rect class="cls-2" x="41" y="21" width="1" height="1" transform="translate(63 -20) rotate(90)"/><rect class="cls-2" x="39" y="21" width="1" height="1" transform="translate(61 -18) rotate(90)"/><rect class="cls-2" x="42" y="21" width="1" height="1" transform="translate(64 -21) rotate(90)"/><rect class="cls-2" x="41" y="20" width="1" height="1" transform="translate(62 -21) rotate(90)"/><rect class="cls-2" x="40" y="20" width="1" height="1" transform="translate(61 -20) rotate(90)"/><rect class="cls-2" x="43" y="20" width="1" height="1" transform="translate(64 -23) rotate(90)"/><rect class="cls-2" x="44" y="20" width="1" height="1" transform="translate(65 -24) rotate(90)"/><rect class="cls-2" x="42" y="20" width="1" height="1" transform="translate(63 -22) rotate(90)"/><rect class="cls-2" x="41" y="20" width="1" height="1" transform="translate(62 -21) rotate(90)"/><rect class="cls-2" x="39" y="20" width="1" height="1" transform="translate(60 -19) rotate(90)"/><rect class="cls-2" x="38" y="21" width="1" height="1" transform="translate(60 -17) rotate(90)"/><rect class="cls-2" x="37" y="21" width="1" height="1" transform="translate(59 -16) rotate(90)"/><rect class="cls-2" x="38" y="20" width="1" height="1" transform="translate(59 -18) rotate(90)"/><rect class="cls-2" x="42" y="20" width="1" height="1" transform="translate(63 -22) rotate(90)"/><rect class="cls-2" x="23" y="22" width="1" height="1" transform="translate(46 -1) rotate(90)"/><rect class="cls-2" x="24" y="22" width="1" height="1" transform="translate(47 -2) rotate(90)"/><rect class="cls-2" x="25" y="23" width="1" height="1" transform="translate(49 -2) rotate(90)"/><rect class="cls-2" x="26" y="23" width="1" height="1" transform="translate(50 -3) rotate(90)"/><rect class="cls-2" x="26" y="24" width="1" height="1" transform="translate(51 -2) rotate(90)"/><rect class="cls-2" x="26" y="25" width="1" height="1" transform="translate(52 -1) rotate(90)"/><rect class="cls-2" x="26" y="26" width="1" height="1" transform="translate(53) rotate(90)"/><rect class="cls-2" x="26" y="27" width="1" height="1" transform="translate(54 1) rotate(90)"/><rect class="cls-2" x="25" y="27" width="1" height="1" transform="translate(53 2) rotate(90)"/><rect class="cls-2" x="24" y="27" width="1" height="1" transform="translate(52 3) rotate(90)"/><rect class="cls-2" x="26" y="25" width="1" height="1" transform="translate(52 -1) rotate(90)"/><rect class="cls-2" x="26" y="26" width="1" height="1" transform="translate(53) rotate(90)"/><rect class="cls-2" x="26" y="27" width="1" height="1" transform="translate(54 1) rotate(90)"/><rect class="cls-2" x="26" y="28" width="1" height="1" transform="translate(55 2) rotate(90)"/><rect class="cls-2" x="25" y="28" width="1" height="1" transform="translate(54 3) rotate(90)"/><rect class="cls-2" x="24" y="28" width="1" height="1" transform="translate(53 4) rotate(90)"/><rect class="cls-2" x="22" y="24" width="1" height="1" transform="translate(47 2) rotate(90)"/><rect class="cls-2" x="23" y="30" width="1" height="1"/><rect class="cls-2" x="23" y="31" width="1" height="1" transform="translate(55 8) rotate(90)"/><rect class="cls-2" x="23" y="32" width="1" height="1" transform="translate(56 9) rotate(90)"/><rect class="cls-2" x="23" y="33" width="1" height="1" transform="translate(57 10) rotate(90)"/><rect class="cls-2" x="23" y="29" width="1" height="1" transform="translate(53 6) rotate(90)"/><rect class="cls-2" x="23" y="28" width="1" height="1" transform="translate(52 5) rotate(90)"/><rect class="cls-2" x="23" y="27" width="1" height="1" transform="translate(51 4) rotate(90)"/><rect class="cls-2" x="23" y="26" width="1" height="1" transform="translate(50 3) rotate(90)"/><rect class="cls-2" x="23" y="25" width="1" height="1" transform="translate(49 2) rotate(90)"/><rect class="cls-2" x="23" y="23" width="1" height="1" transform="translate(47) rotate(90)"/><rect class="cls-2" x="23" y="22" width="1" height="1" transform="translate(46 -1) rotate(90)"/><rect class="cls-2" x="23" y="22" width="1" height="1" transform="translate(46 -1) rotate(90)"/><rect class="cls-2" x="25" y="22" width="1" height="1" transform="translate(48 -3) rotate(90)"/><rect class="cls-2" x="23" y="24" width="1" height="1" transform="translate(48 1) rotate(90)"/><rect class="cls-2" x="33" y="30" width="1" height="1"/><rect class="cls-2" x="33" y="31" width="1" height="1"/><rect class="cls-2" x="33" y="29" width="1" height="1" transform="translate(63 -4) rotate(90)"/><rect class="cls-2" x="33" y="28" width="1" height="1" transform="translate(62 -5) rotate(90)"/><rect class="cls-2" x="33" y="27" width="1" height="1" transform="translate(61 -6) rotate(90)"/><rect class="cls-2" x="33" y="26" width="1" height="1" transform="translate(60 -7) rotate(90)"/><rect class="cls-2" x="33" y="25" width="1" height="1" transform="translate(59 -8) rotate(90)"/><rect class="cls-2" x="33" y="24" width="1" height="1" transform="translate(58 -9) rotate(90)"/><rect class="cls-2" x="33" y="23" width="1" height="1" transform="translate(57 -10) rotate(90)"/><rect class="cls-2" x="34" y="30" width="1" height="1"/><rect class="cls-2" x="34" y="29" width="1" height="1" transform="translate(64 -5) rotate(90)"/><rect class="cls-2" x="34" y="28" width="1" height="1" transform="translate(63 -6) rotate(90)"/><rect class="cls-2" x="34" y="27" width="1" height="1" transform="translate(62 -7) rotate(90)"/><rect class="cls-2" x="34" y="26" width="1" height="1" transform="translate(61 -8) rotate(90)"/><rect class="cls-2" x="34" y="25" width="1" height="1" transform="translate(60 -9) rotate(90)"/><rect class="cls-2" x="34" y="24" width="1" height="1" transform="translate(59 -10) rotate(90)"/><rect class="cls-2" x="34" y="23" width="1" height="1" transform="translate(58 -11) rotate(90)"/><rect class="cls-2" x="34" y="23" width="1" height="1" transform="translate(58 -11) rotate(90)"/><rect class="cls-2" x="35" y="23" width="1" height="1" transform="translate(59 -12) rotate(90)"/><rect class="cls-2" x="36" y="23" width="1" height="1" transform="translate(60 -13) rotate(90)"/><rect class="cls-2" x="37" y="23" width="1" height="1" transform="translate(61 -14) rotate(90)"/><rect class="cls-2" x="37" y="23" width="1" height="1" transform="translate(61 -14) rotate(90)"/><rect class="cls-2" x="37" y="24" width="1" height="1" transform="translate(62 -13) rotate(90)"/><rect class="cls-2" x="36" y="26" width="1" height="1" transform="translate(63 -10) rotate(90)"/><rect class="cls-2" x="37" y="25" width="1" height="1" transform="translate(63 -12) rotate(90)"/><rect class="cls-2" x="35" y="27" width="1" height="1" transform="translate(63 -8) rotate(90)"/><rect class="cls-2" x="37" y="30" width="1" height="1" transform="translate(68 -7) rotate(90)"/><rect class="cls-2" x="47" y="21" width="1" height="1" transform="translate(69 -26) rotate(90)"/><rect class="cls-2" x="48" y="21" width="1" height="1" transform="translate(70 -27) rotate(90)"/><rect class="cls-2" x="46" y="22" width="1" height="1" transform="translate(69 -24) rotate(90)"/><rect class="cls-2" x="47" y="22" width="1" height="1" transform="translate(70 -25) rotate(90)"/><rect class="cls-2" x="36" y="29" width="1" height="1" transform="translate(66 -7) rotate(90)"/><rect class="cls-2" x="35" y="28" width="1" height="1" transform="translate(64 -7) rotate(90)"/><rect class="cls-2" x="34" y="27" width="1" height="1" transform="translate(62 -7) rotate(90)"/><rect class="cls-2" x="35" y="23" width="1" height="1" transform="translate(59 -12) rotate(90)"/><rect class="cls-2" x="36" y="23" width="1" height="1" transform="translate(60 -13) rotate(90)"/><rect class="cls-2" x="37" y="23" width="1" height="1" transform="translate(61 -14) rotate(90)"/><rect class="cls-2" x="37" y="26" width="1" height="1" transform="translate(64 -11) rotate(90)"/><rect class="cls-2" x="36" y="27" width="1" height="1" transform="translate(64 -9) rotate(90)"/><rect class="cls-2" x="38" y="30" width="1" height="1" transform="translate(69 -8) rotate(90)"/><rect class="cls-2" x="37" y="29" width="1" height="1" transform="translate(67 -8) rotate(90)"/><rect class="cls-2" x="36" y="28" width="1" height="1" transform="translate(65 -8) rotate(90)"/><rect class="cls-2" x="35" y="27" width="1" height="1" transform="translate(63 -8) rotate(90)"/><rect class="cls-2" x="28" y="21" width="1" height="1" transform="translate(50 -7) rotate(90)"/><rect class="cls-2" x="28" y="22" width="1" height="1" transform="translate(51 -6) rotate(90)"/><rect class="cls-2" x="28" y="23" width="1" height="1" transform="translate(52 -5) rotate(90)"/><rect class="cls-2" x="28" y="24" width="1" height="1" transform="translate(53 -4) rotate(90)"/><rect class="cls-2" x="28" y="25" width="1" height="1" transform="translate(54 -3) rotate(90)"/><rect class="cls-2" x="28" y="26" width="1" height="1" transform="translate(55 -2) rotate(90)"/><rect class="cls-2" x="28" y="26" width="1" height="1" transform="translate(55 -2) rotate(90)"/><rect class="cls-2" x="29" y="21" width="1" height="1" transform="translate(51 -8) rotate(90)"/><rect class="cls-2" x="30" y="21" width="1" height="1" transform="translate(52 -9) rotate(90)"/><rect class="cls-2" x="31" y="21" width="1" height="1" transform="translate(53 -10) rotate(90)"/><rect class="cls-2" x="28" y="23" width="1" height="1" transform="translate(52 -5) rotate(90)"/><rect class="cls-2" x="29" y="24" width="1" height="1" transform="translate(54 -5) rotate(90)"/><rect class="cls-2" x="30" y="24" width="1" height="1" transform="translate(55 -6) rotate(90)"/><rect class="cls-2" x="28" y="27" width="1" height="1" transform="translate(56 -1) rotate(90)"/><rect class="cls-2" x="28" y="28" width="1" height="1" transform="translate(57) rotate(90)"/><rect class="cls-2" x="29" y="28" width="1" height="1" transform="translate(58 -1) rotate(90)"/><rect class="cls-2" x="30" y="28" width="1" height="1" transform="translate(59 -2) rotate(90)"/><rect class="cls-2" x="29" y="21" width="1" height="1" transform="translate(51 -8) rotate(90)"/><rect class="cls-2" x="29" y="22" width="1" height="1" transform="translate(52 -7) rotate(90)"/><rect class="cls-2" x="29" y="23" width="1" height="1" transform="translate(53 -6) rotate(90)"/><rect class="cls-2" x="29" y="24" width="1" height="1" transform="translate(54 -5) rotate(90)"/><rect class="cls-2" x="29" y="25" width="1" height="1" transform="translate(55 -4) rotate(90)"/><rect class="cls-2" x="29" y="26" width="1" height="1" transform="translate(56 -3) rotate(90)"/><rect class="cls-2" x="29" y="26" width="1" height="1" transform="translate(56 -3) rotate(90)"/><rect class="cls-2" x="30" y="21" width="1" height="1" transform="translate(52 -9) rotate(90)"/><rect class="cls-2" x="31" y="21" width="1" height="1" transform="translate(53 -10) rotate(90)"/><rect class="cls-2" x="29" y="23" width="1" height="1" transform="translate(53 -6) rotate(90)"/><rect class="cls-2" x="30" y="24" width="1" height="1" transform="translate(55 -6) rotate(90)"/><rect class="cls-2" x="31" y="24" width="1" height="1" transform="translate(56 -7) rotate(90)"/><rect class="cls-2" x="29" y="27" width="1" height="1" transform="translate(57 -2) rotate(90)"/><rect class="cls-2" x="29" y="28" width="1" height="1" transform="translate(58 -1) rotate(90)"/><rect class="cls-2" x="30" y="28" width="1" height="1" transform="translate(59 -2) rotate(90)"/><rect class="cls-2" x="31" y="28" width="1" height="1" transform="translate(60 -3) rotate(90)"/><rect class="cls-2" x="31" y="28" width="1" height="1" transform="translate(60 -3) rotate(90)"/><rect class="cls-2" x="6" y="26" width="1" height="1" transform="translate(33 20) rotate(90)"/><rect class="cls-2" x="5" y="26" width="1" height="1" transform="translate(32 21) rotate(90)"/><rect class="cls-2" x="4" y="26" width="1" height="1" transform="translate(31 22) rotate(90)"/><rect class="cls-2" x="3" y="27" width="1" height="1"/><rect class="cls-2" x="1" y="27" width="1" height="1"/><rect class="cls-2" x="2" y="27" width="1" height="1"/><rect class="cls-2" x="1" y="18" width="1" height="9"/><rect class="cls-2" x="4.5" y="18.5" width="1" height="2" transform="translate(24.5 14.5) rotate(90)"/><rect class="cls-2" x="2" y="17" width="1" height="3" transform="translate(21 16) rotate(90)"/><rect class="cls-2" x="6" y="20" width="1" height="1" transform="translate(27 14) rotate(90)"/><rect class="cls-2" x="6" y="21" width="1" height="1" transform="translate(28 15) rotate(90)"/><rect class="cls-2" x="6" y="22" width="1" height="1" transform="translate(29 16) rotate(90)"/><rect class="cls-2" x="6" y="23" width="1" height="1" transform="translate(30 17) rotate(90)"/><rect class="cls-2" x="6" y="24" width="1" height="1" transform="translate(31 18) rotate(90)"/><rect class="cls-2" x="6" y="25" width="1" height="1" transform="translate(32 19) rotate(90)"/><rect class="cls-2" x="5" y="25" width="1" height="1" transform="translate(31 20) rotate(90)"/><rect class="cls-2" x="5" y="26" width="1" height="1" transform="translate(32 21) rotate(90)"/><rect class="cls-2" x="4" y="26" width="1" height="1" transform="translate(31 22) rotate(90)"/><rect class="cls-2" x="3" y="26" width="1" height="1" transform="translate(30 23) rotate(90)"/></svg>