<?xml version="1.0" encoding="utf-8"?>
<!-- Generator: Adobe Illustrator 23.0.2, SVG Export Plug-In . SVG Version: 6.00 Build 0)  -->
<svg version="1.1" id="Layer_1" xmlns="http://www.w3.org/2000/svg" xmlns:xlink="http://www.w3.org/1999/xlink" x="0px" y="0px"
	 viewBox="0 0 50 50" style="enable-background:new 0 0 50 50;" xml:space="preserve">
<style type="text/css">
	.st0{fill:#FFF940;}
	.st1{fill:#5CFFE4;}
	.st2{fill:#FFFFFF;}
	.st3{fill:#FF4080;}
	.st4{fill:#5CFF61;}
</style>
<g>
	<g>
		<polygon class="st0" points="320,12.5 270,12.5 270,12.5 282.5,25 270,37.5 270,37.5 320,37.5 320,37.5 307.5,25 320,12.5 		"/>
	</g>
	<g>
		<polygon class="st0" points="295,12.5 282.6,0 282.5,0 282.5,50 282.6,50 295,37.5 307.5,50 307.5,0 		"/>
	</g>
</g>
<g>
	<g>
		<polygon class="st1" points="260,12.5 210,12.5 210,12.5 222.5,25 210,37.5 210,37.5 260,37.5 260,37.5 247.5,25 260,12.5 		"/>
	</g>
	<g>
		<polygon class="st1" points="235,12.5 222.6,0 222.5,0 222.5,50 222.6,50 235,37.5 247.5,50 247.5,0 		"/>
	</g>
</g>
<g>
	<g>
		<polygon class="st2" points="50,12.5 0,12.5 0,12.5 12.5,25 0,37.5 0,37.5 50,37.5 50,37.5 37.5,25 50,12.5 		"/>
	</g>
	<g>
		<polygon class="st2" points="25,12.5 12.6,0 12.5,0 12.5,50 12.6,50 25,37.5 37.5,50 37.5,0 		"/>
	</g>
</g>
<g>
	<g>
		<polygon class="st3" points="117,12.5 67,12.5 67,12.5 79.5,25 67,37.5 67,37.5 117,37.5 117,37.5 104.5,25 117,12.5 		"/>
	</g>
	<g>
		<polygon class="st3" points="92,12.5 79.6,0 79.5,0 79.5,50 79.6,50 92,37.5 104.5,50 104.5,0 		"/>
	</g>
</g>
<g>
	<g>
		<polygon class="st4" points="190,12.5 140,12.5 140,12.5 152.5,25 140,37.5 140,37.5 190,37.5 190,37.5 177.5,25 190,12.5 		"/>
	</g>
	<g>
		<polygon class="st4" points="165,12.5 152.6,0 152.5,0 152.5,50 152.6,50 165,37.5 177.5,50 177.5,0 		"/>
	</g>
</g>
</svg>
