<?xml version="1.0" encoding="utf-8"?>
<!-- Generator: Adobe Illustrator 24.0.3, SVG Export Plug-In . SVG Version: 6.00 Build 0)  -->
<svg version="1.1" id="Layer_1" xmlns="http://www.w3.org/2000/svg" xmlns:xlink="http://www.w3.org/1999/xlink" x="0px" y="0px"
	 viewBox="0 0 50 50" style="enable-background:new 0 0 50 50;" xml:space="preserve">
<style type="text/css">
	.st0{fill:#303030;}
	.st1{fill:#1F1F1D;}
	.st2{fill:#FFF940;}
	.st3{fill:#5CFFE4;}
	.st4{fill:#FFFFFF;}
	.st5{fill:#FF4080;}
	.st6{fill:#5CFF61;}
	.st7{fill:#EFE8D8;}
	.st8{fill:#BFBBA6;}
	.st9{fill:#E8E3D1;}
	.st10{fill:#DBD6C1;}
	.st11{fill:#F9F2E5;}
	.st12{fill:#444846;}
	.st13{fill:#3A3A3A;}
	.st14{fill:#F9F5E4;}
	.st15{fill:#D8D8D8;}
	.st16{fill:#878787;}
	.st17{fill:#824537;}
	.st18{fill:#D64C22;}
	.st19{fill:#A53C23;}
	.st20{fill:#3F3F3F;}
	.st21{fill:#191918;}
	.st22{fill:#212120;}
	.st23{fill:#4F2F19;}
	.st24{fill:#070707;}
	.st25{fill:#F2F2F2;}
	.st26{fill:#E53E46;}
	.st27{fill:#F1C1F4;}
	.st28{fill:#BCBCBC;}
	.st29{fill:#191919;}
</style>
<rect x="27" y="152" class="st0" width="6" height="17"/>
<rect x="26" y="150" class="st0" width="7" height="2"/>
<rect x="17" y="150" class="st0" width="7" height="2"/>
<rect x="33" y="152" class="st0" width="1" height="6"/>
<rect x="33" y="156" class="st0" width="1" height="9"/>
<rect x="34" y="154" class="st0" width="1" height="6"/>
<rect x="33" y="167" class="st1" width="1" height="1"/>
<rect x="16" y="167" class="st1" width="1" height="1"/>
<rect x="15" y="154" class="st0" width="1" height="6"/>
<rect x="17" y="152" class="st0" width="6" height="17"/>
<rect x="23" y="156" class="st0" width="4" height="13"/>
<rect x="17" y="140" class="st0" width="16" height="1"/>
<g>
	<g>
		<polygon class="st2" points="320,-50.5 270,-50.5 270,-50.5 282.5,-38 270,-25.5 270,-25.5 320,-25.5 320,-25.5 307.5,-38 		"/>
	</g>
	<g>
		<polygon class="st2" points="295,-50.5 282.6,-63 282.5,-63 282.5,-13 282.6,-13 295,-25.5 307.5,-13 307.5,-63 		"/>
	</g>
</g>
<g>
	<g>
		<polygon class="st3" points="260,-50.5 210,-50.5 210,-50.5 222.5,-38 210,-25.5 210,-25.5 260,-25.5 260,-25.5 247.5,-38 		"/>
	</g>
	<g>
		<polygon class="st3" points="235,-50.5 222.6,-63 222.5,-63 222.5,-13 222.6,-13 235,-25.5 247.5,-13 247.5,-63 		"/>
	</g>
</g>
<g>
	<g>
		<polygon class="st4" points="50,-51 25,-50 0,-51 0,-51 13,-38 0,-25 0,-25 25,-26 50,-25 50,-25 37,-38 		"/>
	</g>
	<g>
		<polygon class="st4" points="25,-50 20,-55 12,-63 13,-38 12,-13 12.1,-13 25,-26 38,-13 37,-38 38,-63 		"/>
	</g>
</g>
<g>
	<g>
		<polygon class="st5" points="117,-50.5 67,-50.5 67,-50.5 79.5,-38 67,-25.5 67,-25.5 117,-25.5 117,-25.5 104.5,-38 		"/>
	</g>
	<g>
		<polygon class="st5" points="92,-50.5 79.6,-63 79.5,-63 79.5,-13 79.6,-13 92,-25.5 104.5,-13 104.5,-63 		"/>
	</g>
</g>
<g>
	<g>
		<polygon class="st6" points="190,-50.5 140,-50.5 140,-50.5 152.5,-38 140,-25.5 140,-25.5 190,-25.5 190,-25.5 177.5,-38 		"/>
	</g>
	<g>
		<polygon class="st6" points="165,-50.5 152.6,-63 152.5,-63 152.5,-13 152.6,-13 165,-25.5 177.5,-13 177.5,-63 		"/>
	</g>
</g>
<g>
	<g>
		<polygon class="st7" points="25,0 12.1,0 12,0 12,50 12.1,50 25,50 38,50 38,0 		"/>
	</g>
</g>
<g>
	<g>
		<polygon class="st8" points="16,9 13,9 13,9 13,11 13,11 16,11 19,11 19,9 		"/>
	</g>
</g>
<g>
	<g>
		<polygon class="st8" points="34.5,9 31,9 31,9 31,11 31,11 34.5,11 38,11 38,9 		"/>
	</g>
</g>
<g>
	<g>
		<polygon class="st9" points="39.5,9 38,9 38,9 38,11 38,11 39.5,11 41,11 41,9 		"/>
	</g>
</g>
<g>
	<g>
		<polygon class="st9" points="11.5,9 10,9 10,9 10,11 10,11 11.5,11 13,11 13,9 		"/>
	</g>
</g>
<g>
	<g>
		<polygon class="st8" points="25,9 21,9 21,9 21,11 21,11 25,11 29,11 29,9 		"/>
	</g>
</g>
<g>
	<g>
		<polygon class="st10" points="19.5,0 19,0 19,0 19,39 19,39 19.5,39 20,39 20,0 		"/>
	</g>
</g>
<g>
	<g>
		<polygon class="st10" points="21.5,43 21,43 21,43 21,50 21,50 21.5,50 22,50 22,43 		"/>
	</g>
</g>
<g>
	<g>
		<polygon class="st10" points="28.5,43 28,43 28,43 28,50 28,50 28.5,50 29,50 29,43 		"/>
	</g>
</g>
<rect x="10" y="11" class="st11" width="3" height="39"/>
<rect x="10" class="st11" width="3" height="9"/>
<rect x="38" y="11" class="st11" width="3" height="39"/>
<rect x="38" class="st11" width="3" height="9"/>
<g>
	<g>
		<polygon class="st10" points="25,5 21,5 21,5 21,6 21,6 25,6 29,6 29,5 		"/>
	</g>
</g>
<g>
	<g>
		<polygon class="st10" points="25,4 22,4 22,4 22,5 22,5 25,5 28,5 28,4 		"/>
	</g>
</g>
<g>
	<g>
		<polygon class="st10" points="25,0 22,0 22,0 22,1 22,1 25,1 28,1 28,0 		"/>
	</g>
</g>
<g>
	<g>
		<polygon class="st10" points="15.5,0 14,0 14,0 14,1 14,1 15.5,1 17,1 17,0 		"/>
	</g>
</g>
<g>
	<g>
		<polygon class="st10" points="34.5,0 33,0 33,0 33,1 33,1 34.5,1 36,1 36,0 		"/>
	</g>
</g>
<g>
	<g>
		<polygon class="st10" points="30.5,0 30,0 30,0 30,39 30,39 30.5,39 31,39 31,0 		"/>
	</g>
</g>
<g>
	<g>
		<polygon class="st12" points="15.5,6 14,6 14,6 14,9 14,9 15.5,9 17,9 17,6 		"/>
	</g>
</g>
<g>
	<g>
		<polygon class="st12" points="22.5,6 21,6 21,6 21,9 21,9 22.5,9 24,9 24,6 		"/>
	</g>
</g>
<g>
	<g>
		<polygon class="st12" points="34.5,6 33,6 33,6 33,9 33,9 34.5,9 36,9 36,6 		"/>
	</g>
</g>
<g>
	<g>
		<polygon class="st12" points="27.5,6 26,6 26,6 26,9 26,9 27.5,9 29,9 29,6 		"/>
	</g>
</g>
<g>
	<g>
		<polygon class="st12" points="15.5,12 14,12 14,12 14,15 14,15 15.5,15 17,15 17,12 		"/>
	</g>
</g>
<g>
	<g>
		<polygon class="st12" points="22.5,12 21,12 21,12 21,15 21,15 22.5,15 24,15 24,12 		"/>
	</g>
</g>
<g>
	<g>
		<polygon class="st12" points="34.5,12 33,12 33,12 33,15 33,15 34.5,15 36,15 36,12 		"/>
	</g>
</g>
<g>
	<g>
		<polygon class="st12" points="27.5,12 26,12 26,12 26,15 26,15 27.5,15 29,15 29,12 		"/>
	</g>
</g>
<g>
	<g>
		<polygon class="st12" points="15.5,19 14,19 14,19 14,22 14,22 15.5,22 17,22 17,19 		"/>
	</g>
</g>
<g>
	<g>
		<polygon class="st12" points="22.5,19 21,19 21,19 21,22 21,22 22.5,22 24,22 24,19 		"/>
	</g>
</g>
<g>
	<g>
		<polygon class="st12" points="34.5,19 33,19 33,19 33,22 33,22 34.5,22 36,22 36,19 		"/>
	</g>
</g>
<g>
	<g>
		<polygon class="st12" points="27.5,19 26,19 26,19 26,22 26,22 27.5,22 29,22 29,19 		"/>
	</g>
</g>
<g>
	<g>
		<polygon class="st12" points="15.5,26 14,26 14,26 14,29 14,29 15.5,29 17,29 17,26 		"/>
	</g>
</g>
<g>
	<g>
		<polygon class="st12" points="22.5,26 21,26 21,26 21,29 21,29 22.5,29 24,29 24,26 		"/>
	</g>
</g>
<g>
	<g>
		<polygon class="st12" points="34.5,26 33,26 33,26 33,29 33,29 34.5,29 36,29 36,26 		"/>
	</g>
</g>
<g>
	<g>
		<polygon class="st12" points="27.5,26 26,26 26,26 26,29 26,29 27.5,29 29,29 29,26 		"/>
	</g>
</g>
<g>
	<g>
		<polygon class="st12" points="15.5,33 14,33 14,33 14,36 14,36 15.5,36 17,36 17,33 		"/>
	</g>
</g>
<g>
	<g>
		<polygon class="st12" points="22.5,33 21,33 21,33 21,36 21,36 22.5,36 24,36 24,33 		"/>
	</g>
</g>
<g>
	<g>
		<polygon class="st13" points="25,43 22,43 22,43 22,50 22,50 25,50 28,50 28,43 		"/>
	</g>
</g>
<g>
	<g>
		<polygon class="st12" points="34.5,33 33,33 33,33 33,36 33,36 34.5,36 36,36 36,33 		"/>
	</g>
</g>
<g>
	<g>
		<polygon class="st12" points="27.5,33 26,33 26,33 26,36 26,36 27.5,36 29,36 29,33 		"/>
	</g>
</g>
<g>
	<g>
		<polygon class="st8" points="14,40 16,40 16,41 35,41 35,40 36,40 36,39 25,39 14.1,39 14,39 		"/>
	</g>
</g>
<g>
	<g>
		<polygon class="st14" points="19,41 18.5,41 19,41 19,43 18.5,43 19,43 20,43 20,41 		"/>
	</g>
</g>
<g>
	<g>
		<polygon class="st14" points="30,41 29.5,41 30,41 30,43 29.5,43 30,43 31,43 31,41 		"/>
	</g>
</g>
<g>
	<g>
		<polygon class="st10" points="38.4,12 38,12 38,12 38,39 38,39 38.4,39 38.9,39 38.9,12 		"/>
	</g>
</g>
<g>
	<g>
		<polygon class="st10" points="11.4,12 11,12 11,12 11,39 11,39 11.4,39 11.9,39 11.9,12 		"/>
	</g>
</g>
<rect x="13" y="-62" class="st4" width="1" height="1"/>
<rect x="12" y="-63" class="st4" width="1" height="1"/>
<rect x="14" y="-61" class="st4" width="1" height="1"/>
<rect x="15" y="-60" class="st4" width="1" height="1"/>
<rect x="16" y="-59" class="st4" width="1" height="1"/>
<rect x="17" y="-58" class="st4" width="1" height="1"/>
<rect x="18" y="-57" class="st4" width="1" height="1"/>
<rect x="19" y="-56" class="st4" width="1" height="1"/>
<rect x="20" y="-55" class="st4" width="1" height="1"/>
<rect x="21" y="-54" class="st4" width="1" height="1"/>
<rect x="22" y="-53" class="st4" width="1" height="1"/>
<rect x="23" y="-52" class="st4" width="1" height="1"/>
<rect x="36" y="-62" class="st4" width="1" height="1"/>
<rect x="37" y="-63" class="st4" width="1" height="1"/>
<rect x="35" y="-61" class="st4" width="1" height="1"/>
<rect x="34" y="-60" class="st4" width="1" height="1"/>
<rect x="33" y="-59" class="st4" width="1" height="1"/>
<rect x="32" y="-58" class="st4" width="1" height="1"/>
<rect x="31" y="-57" class="st4" width="1" height="1"/>
<rect x="30" y="-56" class="st4" width="1" height="1"/>
<rect x="29" y="-55" class="st4" width="1" height="1"/>
<rect x="28" y="-54" class="st4" width="1" height="1"/>
<rect x="27" y="-53" class="st4" width="1" height="1"/>
<rect x="26" y="-52" class="st4" width="1" height="1"/>
<rect x="36" y="-15" class="st4" width="1" height="1"/>
<rect x="37" y="-14" class="st4" width="1" height="1"/>
<rect x="35" y="-16" class="st4" width="1" height="1"/>
<rect x="34" y="-17" class="st4" width="1" height="1"/>
<rect x="33" y="-18" class="st4" width="1" height="1"/>
<rect x="32" y="-19" class="st4" width="1" height="1"/>
<rect x="31" y="-20" class="st4" width="1" height="1"/>
<rect x="30" y="-21" class="st4" width="1" height="1"/>
<rect x="29" y="-22" class="st4" width="1" height="1"/>
<rect x="28" y="-23" class="st4" width="1" height="1"/>
<rect x="27" y="-24" class="st4" width="1" height="1"/>
<rect x="26" y="-25" class="st4" width="1" height="1"/>
<rect x="13" y="-15" class="st4" width="1" height="1"/>
<rect x="12" y="-14" class="st4" width="1" height="1"/>
<rect x="14" y="-16" class="st4" width="1" height="1"/>
<rect x="15" y="-17" class="st4" width="1" height="1"/>
<rect x="16" y="-18" class="st4" width="1" height="1"/>
<rect x="17" y="-19" class="st4" width="1" height="1"/>
<rect x="18" y="-20" class="st4" width="1" height="1"/>
<rect x="19" y="-21" class="st4" width="1" height="1"/>
<rect x="20" y="-22" class="st4" width="1" height="1"/>
<rect x="21" y="-23" class="st4" width="1" height="1"/>
<rect x="22" y="-24" class="st4" width="1" height="1"/>
<rect x="23" y="-25" class="st4" width="1" height="1"/>
<rect x="24" y="-26" class="st4" width="1" height="1"/>
<rect x="25" y="-26" class="st4" width="1" height="1"/>
<rect x="1" y="-27" class="st4" width="1" height="1"/>
<rect y="-26" class="st4" width="1" height="1"/>
<rect x="2" y="-28" class="st4" width="1" height="1"/>
<rect x="3" y="-29" class="st4" width="1" height="1"/>
<rect x="4" y="-30" class="st4" width="1" height="1"/>
<rect x="5" y="-31" class="st4" width="1" height="1"/>
<rect x="6" y="-32" class="st4" width="1" height="1"/>
<rect x="7" y="-33" class="st4" width="1" height="1"/>
<rect x="8" y="-34" class="st4" width="1" height="1"/>
<rect x="9" y="-35" class="st4" width="1" height="1"/>
<rect x="10" y="-36" class="st4" width="1" height="1"/>
<rect x="11" y="-37" class="st4" width="1" height="1"/>
<rect x="12" y="-38" class="st4" width="1" height="1"/>
<rect x="12" y="-39" class="st4" width="1" height="1"/>
<rect x="1" y="-50" class="st4" width="1" height="1"/>
<rect y="-51" class="st4" width="1" height="1"/>
<rect x="2" y="-49" class="st4" width="1" height="1"/>
<rect x="3" y="-48" class="st4" width="1" height="1"/>
<rect x="4" y="-47" class="st4" width="1" height="1"/>
<rect x="5" y="-46" class="st4" width="1" height="1"/>
<rect x="6" y="-45" class="st4" width="1" height="1"/>
<rect x="7" y="-44" class="st4" width="1" height="1"/>
<rect x="8" y="-43" class="st4" width="1" height="1"/>
<rect x="9" y="-42" class="st4" width="1" height="1"/>
<rect x="10" y="-41" class="st4" width="1" height="1"/>
<rect x="11" y="-40" class="st4" width="1" height="1"/>
<rect x="48" y="-50" class="st4" width="1" height="1"/>
<rect x="49" y="-51" class="st4" width="1" height="1"/>
<rect x="47" y="-49" class="st4" width="1" height="1"/>
<rect x="46" y="-48" class="st4" width="1" height="1"/>
<rect x="45" y="-47" class="st4" width="1" height="1"/>
<rect x="44" y="-46" class="st4" width="1" height="1"/>
<rect x="43" y="-45" class="st4" width="1" height="1"/>
<rect x="42" y="-44" class="st4" width="1" height="1"/>
<rect x="41" y="-43" class="st4" width="1" height="1"/>
<rect x="40" y="-42" class="st4" width="1" height="1"/>
<rect x="39" y="-41" class="st4" width="1" height="1"/>
<rect x="38" y="-40" class="st4" width="1" height="1"/>
<rect x="37" y="-39" class="st4" width="1" height="1"/>
<rect x="37" y="-38" class="st4" width="1" height="1"/>
<rect x="48" y="-27" class="st4" width="1" height="1"/>
<rect x="49" y="-26" class="st4" width="1" height="1"/>
<rect x="47" y="-28" class="st4" width="1" height="1"/>
<rect x="46" y="-29" class="st4" width="1" height="1"/>
<rect x="45" y="-30" class="st4" width="1" height="1"/>
<rect x="44" y="-31" class="st4" width="1" height="1"/>
<rect x="43" y="-32" class="st4" width="1" height="1"/>
<rect x="42" y="-33" class="st4" width="1" height="1"/>
<rect x="41" y="-34" class="st4" width="1" height="1"/>
<rect x="40" y="-35" class="st4" width="1" height="1"/>
<rect x="39" y="-36" class="st4" width="1" height="1"/>
<rect x="38" y="-37" class="st4" width="1" height="1"/>
<rect x="24" y="-51" class="st4" width="1" height="1"/>
<rect x="25" y="-51" class="st4" width="1" height="1"/>
<g>
	<g>
		<polygon class="st15" points="25,65 0.2,65 0,65 0,115 0.2,115 25,115 50,115 50,65 		"/>
	</g>
</g>
<g>
	<path class="st5" d="M11,92H5v-2h2v-8H5v-2h2v-2h2v12h2V92z"/>
	<path class="st5" d="M10,92H4v-2h2v-8H4v-2h2v-2h2v12h2V92z"/>
	<path class="st5" d="M12,78h2v2h-2V78z M14,86v2h-2v-2H14z M20,78h-6v-2h6V78z M20,90h-6v-2h6V90z M20,82v2h-4v-2H20z M22,78v4h-2
		v-4H22z M20,84h2v4h-2V84z"/>
	<path class="st5" d="M13,78h2v2h-2V78z M15,86v2h-2v-2H15z M21,78h-6v-2h6V78z M21,90h-6v-2h6V90z M21,82v2h-4v-2H21z M23,78v4h-2
		v-4H23z M21,84h2v4h-2V84z"/>
	<path class="st5" d="M33,96h-7v-2h3v-8h-2v-2h2v-2h2v12h2V96z"/>
	<path class="st5" d="M32,96h-7v-2h3v-8h-2v-2h2v-2h2v12h2V96z"/>
	<path class="st5" d="M35,81h2v2h-2V81z M37,89h2v2h7v2H36v-2h1V89z M43,81h-6v-2h6V81z M39,87h2v2h-2V87z M41,85h2v2h-2V85z M44,93
		h2v2h-2V93z M42,93h2v2h-2V93z M44,95h2v2h-2V95z M45,81v4h-2v-4H45z"/>
	<path class="st5" d="M34,81h2v2h-2V81z M36,89h2v2h7v2H35v-2h1V89z M42,81h-6v-2h6V81z M38,87h2v2h-2V87z M40,85h2v2h-2V85z M43,93
		h2v2h-2V93z M41,93h2v2h-2V93z M43,95h2v2h-2V95z M44,81v4h-2v-4H44z"/>
	<rect x="9" y="92" class="st5" width="2" height="2"/>
</g>
<rect x="10" y="94" class="st5" width="1" height="1"/>
<rect x="45" y="97" class="st5" width="1" height="1"/>
<rect x="39" y="89" class="st5" width="1" height="1"/>
<rect x="26" y="86" class="st5" width="1" height="1"/>
<rect x="20" y="88" class="st5" width="1" height="1"/>
<rect x="15" y="90" class="st5" width="1" height="1"/>
<rect x="15" y="91" class="st5" width="1" height="1"/>
<rect x="16" y="90" class="st5" width="1" height="1"/>
<rect x="33" y="96" class="st5" width="1" height="1"/>
<rect x="32" y="96" class="st5" width="1" height="1"/>
<rect x="33" y="97" class="st5" width="1" height="1"/>
<rect x="25" y="95" class="st5" width="1" height="1"/>
<rect x="8" y="113" class="st16" width="1" height="1"/>
<rect x="9" y="112" class="st16" width="1" height="1"/>
<rect x="10" y="111" class="st16" width="1" height="1"/>
<rect x="9" y="110" class="st16" width="1" height="1"/>
<rect x="9" y="109" class="st16" width="1" height="1"/>
<rect x="10" y="109" class="st16" width="1" height="1"/>
<rect x="10" y="108" class="st16" width="1" height="1"/>
<rect x="11" y="108" class="st16" width="1" height="1"/>
<rect x="12" y="108" class="st16" width="1" height="1"/>
<rect x="12" y="107" class="st16" width="1" height="1"/>
<rect x="13" y="107" class="st16" width="1" height="1"/>
<rect x="14" y="107" class="st16" width="1" height="1"/>
<rect x="15" y="107" class="st16" width="1" height="1"/>
<rect x="15" y="106" class="st16" width="1" height="1"/>
<rect x="15" y="105" class="st16" width="1" height="1"/>
<rect x="16" y="105" class="st16" width="1" height="1"/>
<rect x="17" y="114" class="st16" width="1" height="1"/>
<rect x="18" y="114" class="st16" width="1" height="1"/>
<rect x="18" y="113" class="st16" width="1" height="1"/>
<rect x="18" y="112" class="st16" width="1" height="1"/>
<rect x="19" y="110" class="st16" width="1" height="1"/>
<rect x="16" y="110" class="st16" width="1" height="1"/>
<rect x="16" y="111" class="st16" width="1" height="1"/>
<rect x="14" y="110" class="st16" width="1" height="1"/>
<rect x="14" y="111" class="st16" width="1" height="1"/>
<rect x="13" y="111" class="st16" width="1" height="1"/>
<rect x="13" y="112" class="st16" width="1" height="1"/>
<rect x="12" y="112" class="st16" width="1" height="1"/>
<rect x="12" y="113" class="st16" width="1" height="1"/>
<rect x="11" y="113" class="st16" width="1" height="1"/>
<rect x="11" y="114" class="st16" width="1" height="1"/>
<rect x="1" y="113" class="st16" width="1" height="1"/>
<rect x="1" y="112" class="st16" width="1" height="1"/>
<rect x="1" y="111" class="st16" width="1" height="1"/>
<rect y="111" class="st16" width="1" height="1"/>
<rect y="110" class="st16" width="1" height="1"/>
<rect x="9" y="114" class="st16" width="1" height="1"/>
<rect y="114" class="st16" width="1" height="1"/>
<rect x="6" y="113" class="st16" width="1" height="1"/>
<rect x="5" y="114" class="st16" width="1" height="1"/>
<rect x="3" y="114" class="st16" width="1" height="1"/>
<rect x="5" y="112" class="st16" width="1" height="1"/>
<rect x="2" y="109" class="st16" width="1" height="1"/>
<rect x="5" y="109" class="st16" width="1" height="1"/>
<rect x="3" y="108" class="st16" width="1" height="1"/>
<rect x="4" y="107" class="st16" width="1" height="1"/>
<rect x="1" y="108" class="st16" width="1" height="1"/>
<rect y="65" class="st17" width="7" height="4"/>
<rect y="68" class="st17" width="12" height="5"/>
<rect x="-6" y="72" class="st17" width="12" height="5"/>
<rect x="38" y="112" class="st17" width="20" height="5"/>
<rect x="34" y="108" class="st17" width="20" height="5"/>
<rect x="38" y="104" class="st17" width="20" height="5"/>
<rect x="43" y="100" class="st17" width="20" height="5"/>
<rect y="107" class="st16" width="1" height="1"/>
<rect x="-1" y="65" class="st18" width="7" height="3"/>
<rect x="-4" y="69" class="st18" width="7" height="3"/>
<rect x="47" y="105" class="st18" width="7" height="3"/>
<rect x="39" y="105" class="st18" width="7" height="3"/>
<rect x="44" y="101" class="st18" width="7" height="3"/>
<rect x="43" y="109" class="st18" width="7" height="3"/>
<rect x="35" y="109" class="st18" width="7" height="3"/>
<rect x="39" y="113" class="st18" width="7" height="3"/>
<rect x="47" y="113" class="st18" width="7" height="3"/>
<rect x="4" y="69" class="st18" width="7" height="3"/>
<rect x="-2" y="73" class="st18" width="7" height="3"/>
<rect y="76" class="st15" width="1" height="1"/>
<rect x="5" y="76" class="st15" width="1" height="1"/>
<rect x="5" y="72" class="st15" width="1" height="1"/>
<rect x="6" y="72" class="st15" width="1" height="1"/>
<rect x="7" y="72" class="st15" width="1" height="1"/>
<rect x="5" y="73" class="st15" width="1" height="1"/>
<rect x="11" y="72" class="st15" width="1" height="1"/>
<rect x="11" y="71" class="st15" width="1" height="1"/>
<rect x="11" y="70" class="st15" width="1" height="1"/>
<rect x="10" y="70" class="st15" width="1" height="1"/>
<rect x="10" y="69" class="st15" width="1" height="1"/>
<rect x="11" y="69" class="st15" width="1" height="1"/>
<rect x="11" y="68" class="st15" width="1" height="1"/>
<rect x="10" y="68" class="st15" width="1" height="1"/>
<rect x="9" y="68" class="st15" width="1" height="1"/>
<rect x="9" y="69" class="st15" width="1" height="1"/>
<rect x="8" y="69" class="st17" width="1" height="1"/>
<rect x="8" y="70" class="st17" width="1" height="1"/>
<rect x="9" y="70" class="st17" width="1" height="1"/>
<rect x="4" y="70" class="st19" width="1" height="1"/>
<rect x="4" y="71" class="st19" width="1" height="1"/>
<rect x="5" y="71" class="st19" width="1" height="1"/>
<rect x="3" y="66" class="st19" width="1" height="1"/>
<rect y="66" class="st19" width="1" height="1"/>
<rect x="1" y="65" class="st19" width="1" height="1"/>
<rect x="2" y="70" class="st19" width="1" height="1"/>
<rect y="69" class="st19" width="1" height="1"/>
<rect x="1" y="74" class="st19" width="1" height="1"/>
<rect x="2" y="74" class="st19" width="1" height="1"/>
<rect x="41" y="109" class="st19" width="1" height="1"/>
<rect x="39" y="111" class="st19" width="1" height="1"/>
<rect x="38" y="111" class="st19" width="1" height="1"/>
<rect x="39" y="105" class="st19" width="1" height="1"/>
<rect x="40" y="105" class="st19" width="1" height="1"/>
<rect x="42" y="106" class="st19" width="1" height="1"/>
<rect x="44" y="107" class="st19" width="1" height="1"/>
<rect x="45" y="107" class="st19" width="1" height="1"/>
<rect x="45" y="103" class="st19" width="1" height="1"/>
<rect x="46" y="103" class="st19" width="1" height="1"/>
<rect x="47" y="102" class="st19" width="1" height="1"/>
<rect x="48" y="102" class="st19" width="1" height="1"/>
<rect x="48" y="106" class="st19" width="1" height="1"/>
<rect x="48" y="107" class="st19" width="1" height="1"/>
<rect x="49" y="107" class="st19" width="1" height="1"/>
<rect x="49" y="106" class="st19" width="1" height="1"/>
<rect x="49" y="113" class="st19" width="1" height="1"/>
<rect x="48" y="113" class="st19" width="1" height="1"/>
<rect x="48" y="114" class="st19" width="1" height="1"/>
<rect x="45" y="114" class="st19" width="1" height="1"/>
<rect x="44" y="114" class="st19" width="1" height="1"/>
<rect x="43" y="114" class="st19" width="1" height="1"/>
<rect x="42" y="114" class="st19" width="1" height="1"/>
<rect x="41" y="114" class="st19" width="1" height="1"/>
<rect x="41" y="113" class="st19" width="1" height="1"/>
<rect x="40" y="113" class="st19" width="1" height="1"/>
<rect x="40" y="114" class="st19" width="1" height="1"/>
<rect x="40" y="113" class="st19" width="1" height="1"/>
<rect x="44" y="111" class="st19" width="1" height="1"/>
<rect x="45" y="109" class="st19" width="1" height="1"/>
<rect x="47" y="109" class="st19" width="1" height="1"/>
<rect x="48" y="110" class="st19" width="1" height="1"/>
<rect x="48" y="111" class="st19" width="1" height="1"/>
<rect x="47" y="111" class="st19" width="1" height="1"/>
<rect x="4" y="73" class="st19" width="1" height="1"/>
<rect x="3" y="75" class="st19" width="1" height="1"/>
<rect y="73" class="st19" width="1" height="1"/>
<rect x="38" y="113" class="st15" width="1" height="1"/>
<rect x="38" y="112" class="st15" width="1" height="1"/>
<rect x="38" y="113" class="st15" width="1" height="1"/>
<rect x="38" y="112" class="st15" width="1" height="1"/>
<rect x="39" y="112" class="st15" width="1" height="1"/>
<rect x="40" y="112" class="st15" width="1" height="1"/>
<rect x="40" y="111" class="st15" width="1" height="1"/>
<rect x="37" y="112" class="st15" width="1" height="1"/>
<rect x="36" y="112" class="st15" width="1" height="1"/>
<rect x="35" y="112" class="st15" width="1" height="1"/>
<rect x="35" y="111" class="st15" width="1" height="1"/>
<rect x="35" y="110" class="st15" width="1" height="1"/>
<rect x="35" y="109" class="st15" width="1" height="1"/>
<rect x="34" y="109" class="st15" width="1" height="1"/>
<rect x="34" y="110" class="st15" width="1" height="1"/>
<rect x="35" y="108" class="st15" width="1" height="1"/>
<rect x="36" y="108" class="st15" width="1" height="1"/>
<rect x="37" y="109" class="st15" width="1" height="1"/>
<rect x="36" y="109" class="st15" width="1" height="1"/>
<rect x="34" y="108" class="st15" width="1" height="1"/>
<rect x="38" y="107" class="st15" width="1" height="1"/>
<rect x="38" y="106" class="st15" width="1" height="1"/>
<rect x="38" y="105" class="st15" width="1" height="1"/>
<rect x="39" y="105" class="st15" width="1" height="1"/>
<rect x="39" y="104" class="st15" width="1" height="1"/>
<rect x="40" y="104" class="st15" width="1" height="1"/>
<rect x="41" y="104" class="st15" width="1" height="1"/>
<rect x="42" y="104" class="st15" width="1" height="1"/>
<rect x="42" y="103" class="st15" width="1" height="1"/>
<rect x="43" y="103" class="st15" width="1" height="1"/>
<rect x="43" y="102" class="st15" width="1" height="1"/>
<rect x="43" y="101" class="st15" width="1" height="1"/>
<rect x="44" y="101" class="st15" width="1" height="1"/>
<rect x="45" y="101" class="st15" width="1" height="1"/>
<rect x="45" y="100" class="st15" width="1" height="1"/>
<rect x="44" y="100" class="st15" width="1" height="1"/>
<rect x="43" y="65" class="st16" width="1" height="1"/>
<rect x="43" y="66" class="st16" width="1" height="1"/>
<rect x="44" y="66" class="st16" width="1" height="1"/>
<rect x="44" y="67" class="st16" width="1" height="1"/>
<rect x="44" y="68" class="st16" width="1" height="1"/>
<rect x="43" y="68" class="st16" width="1" height="1"/>
<rect x="42" y="68" class="st16" width="1" height="1"/>
<rect x="42" y="69" class="st16" width="1" height="1"/>
<rect x="42" y="70" class="st16" width="1" height="1"/>
<rect x="41" y="70" class="st16" width="1" height="1"/>
<rect x="40" y="70" class="st16" width="1" height="1"/>
<rect x="40" y="71" class="st16" width="1" height="1"/>
<rect x="40" y="72" class="st16" width="1" height="1"/>
<rect x="39" y="72" class="st16" width="1" height="1"/>
<rect x="38" y="72" class="st16" width="1" height="1"/>
<rect x="37" y="72" class="st16" width="1" height="1"/>
<rect x="37" y="73" class="st16" width="1" height="1"/>
<rect x="37" y="74" class="st16" width="1" height="1"/>
<rect x="36" y="71" class="st16" width="1" height="1"/>
<rect x="37" y="71" class="st16" width="1" height="1"/>
<rect x="36" y="69" class="st16" width="1" height="1"/>
<rect x="37" y="68" class="st16" width="1" height="1"/>
<rect x="39" y="67" class="st16" width="1" height="1"/>
<rect x="40" y="66" class="st16" width="1" height="1"/>
<rect x="41" y="66" class="st16" width="1" height="1"/>
<rect x="46" y="69" class="st16" width="1" height="1"/>
<rect x="45" y="71" class="st16" width="1" height="1"/>
<rect x="23" y="165" class="st1" width="1" height="1"/>
<rect x="24" y="164" class="st1" width="1" height="1"/>
<rect x="25" y="164" class="st1" width="1" height="1"/>
<rect x="25" y="162" class="st1" width="1" height="1"/>
<rect x="24" y="162" class="st1" width="1" height="1"/>
<rect x="25" y="163" class="st1" width="1" height="1"/>
<rect x="24" y="163" class="st1" width="1" height="1"/>
<rect x="22" y="166" class="st1" width="1" height="1"/>
<rect x="27" y="166" class="st1" width="1" height="1"/>
<rect x="22" y="167" class="st1" width="1" height="1"/>
<rect x="27" y="167" class="st1" width="1" height="1"/>
<rect x="22" y="168" class="st1" width="1" height="1"/>
<rect x="27" y="168" class="st1" width="1" height="1"/>
<rect x="26" y="165" class="st1" width="1" height="1"/>
<rect x="24" y="165" class="st1" width="1" height="1"/>
<rect x="25" y="165" class="st1" width="1" height="1"/>
<rect x="23" y="166" class="st1" width="4" height="3"/>
<rect x="21" y="169" class="st1" width="8" height="6"/>
<rect x="13" y="170" class="st1" width="6" height="6"/>
<rect x="31" y="170" class="st1" width="6" height="6"/>
<rect x="20" y="132" class="st0" width="10" height="14"/>
<rect x="17" y="132" class="st0" width="4" height="8"/>
<rect x="18" y="140" class="st0" width="2" height="3"/>
<rect x="19" y="143" class="st0" width="1" height="3"/>
<rect x="24" y="137" class="st20" width="2" height="4"/>
<rect x="24.5" y="139.5" transform="matrix(-1.836970e-16 1 -1 -1.836970e-16 166.5 116.5)" class="st20" width="1" height="4"/>
<rect x="30" y="140" class="st0" width="2" height="3"/>
<rect x="30" y="143" class="st0" width="1" height="3"/>
<rect x="29" y="132" class="st0" width="4" height="8"/>
<rect x="30" y="132" class="st21" width="3" height="2"/>
<rect x="33" y="132" class="st21" width="1" height="6"/>
<rect x="31" y="134" class="st21" width="2" height="2"/>
<rect x="32" y="136" class="st21" width="1" height="2"/>
<rect x="17" y="132" transform="matrix(-1 -4.486867e-11 4.486867e-11 -1 37 266)" class="st21" width="3" height="2"/>
<rect x="16" y="132" transform="matrix(-1 -4.365587e-11 4.365587e-11 -1 33 270)" class="st21" width="1" height="6"/>
<rect x="17" y="134" transform="matrix(-1 -4.547486e-11 4.547486e-11 -1 36 270)" class="st21" width="2" height="2"/>
<rect x="17" y="136" transform="matrix(-1 -4.547486e-11 4.547486e-11 -1 35 274)" class="st21" width="1" height="2"/>
<rect x="16" y="152" class="st0" width="1" height="6"/>
<rect x="16" y="156" class="st0" width="1" height="9"/>
<rect x="7" y="161" class="st0" width="2" height="3"/>
<rect x="7" y="165" class="st0" width="1" height="1"/>
<rect x="7" y="164" class="st0" width="1" height="1"/>
<rect x="8" y="164" class="st0" width="1" height="1"/>
<rect x="8" y="165" class="st0" width="2" height="3"/>
<rect x="10" y="168" class="st0" width="2" height="3"/>
<rect x="9" y="167" class="st0" width="2" height="3"/>
<rect x="8" y="158" class="st0" width="2" height="3"/>
<rect x="9" y="155" class="st0" width="1" height="3"/>
<rect x="10" y="154" class="st0" width="1" height="2"/>
<rect x="9" y="166" class="st0" width="1" height="3"/>
<rect x="27" y="136" transform="matrix(-1 -4.365587e-11 4.365587e-11 -1 57 275)" class="st22" width="3" height="3"/>
<rect x="27" y="135" transform="matrix(-1 -4.365587e-11 4.365587e-11 -1 55 271)" class="st22" width="1" height="1"/>
<rect x="28" y="135" transform="matrix(-1 -4.365587e-11 4.365587e-11 -1 57 271)" class="st22" width="1" height="1"/>
<rect x="21" y="135" transform="matrix(-1 -4.365587e-11 4.365587e-11 -1 43 271)" class="st22" width="1" height="1"/>
<rect x="22" y="135" transform="matrix(-1 -4.365587e-11 4.365587e-11 -1 45 271)" class="st22" width="1" height="1"/>
<rect x="22" y="136" transform="matrix(-1 -4.365587e-11 4.365587e-11 -1 45 273)" class="st22" width="1" height="1"/>
<rect x="22" y="137" transform="matrix(-1 -4.365587e-11 4.365587e-11 -1 45 275)" class="st22" width="1" height="1"/>
<rect x="22" y="138" transform="matrix(-1 -4.365587e-11 4.365587e-11 -1 45 277)" class="st22" width="1" height="1"/>
<rect x="21" y="138" transform="matrix(-1 -4.365587e-11 4.365587e-11 -1 43 277)" class="st22" width="1" height="1"/>
<rect x="20" y="138" transform="matrix(-1 -4.365587e-11 4.365587e-11 -1 41 277)" class="st22" width="1" height="1"/>
<rect x="20" y="136" class="st23" width="2" height="2"/>
<rect x="28" y="136" class="st23" width="2" height="2"/>
<rect x="22" y="142" class="st21" width="1" height="1"/>
<rect x="27" y="142" class="st21" width="1" height="1"/>
<rect x="21" y="137" class="st24" width="1" height="1"/>
<rect x="28" y="137" class="st24" width="1" height="1"/>
<rect x="28" y="136" class="st25" width="1" height="1"/>
<rect x="21" y="136" class="st25" width="1" height="1"/>
<rect x="19" y="146" class="st26" width="12" height="6"/>
<rect x="31" y="147" class="st26" width="1" height="2"/>
<rect x="32" y="148" class="st26" width="1" height="2"/>
<rect x="18" y="147" class="st26" width="1" height="2"/>
<rect x="17" y="148" class="st26" width="1" height="2"/>
<rect x="18" y="149" class="st26" width="1" height="1"/>
<rect x="31" y="149" class="st26" width="1" height="1"/>
<rect x="21" y="152" class="st26" width="8" height="2"/>
<rect x="23" y="154" class="st26" width="4" height="2"/>
<rect x="25" y="156" class="st26" width="1" height="2"/>
<rect x="24" y="156" class="st26" width="2" height="1"/>
<rect x="26" y="154" class="st26" width="2" height="1"/>
<rect x="22" y="154" class="st26" width="2" height="1"/>
<rect x="20" y="152" class="st26" width="2" height="1"/>
<rect x="18" y="150" class="st26" width="2" height="1"/>
<rect x="28" y="152" class="st26" width="2" height="1"/>
<rect x="16" y="132" class="st0" width="2" height="3"/>
<rect x="17" y="131" class="st0" width="2" height="1"/>
<rect x="31" y="131" class="st0" width="2" height="1"/>
<rect x="15" y="133" class="st0" width="2" height="3"/>
<rect x="14" y="134" class="st0" width="2" height="5"/>
<rect x="13" y="135" class="st0" width="1" height="3"/>
<rect x="36" y="135" class="st0" width="1" height="3"/>
<rect x="34" y="134" class="st0" width="2" height="5"/>
<rect x="15" y="135" class="st0" width="1" height="3"/>
<rect x="15" y="137" class="st0" width="1" height="3"/>
<rect x="34" y="137" class="st0" width="1" height="3"/>
<rect x="34.5" y="138.5" transform="matrix(-1.836970e-16 1 -1 -1.836970e-16 174.5 104.5)" class="st20" width="1" height="2"/>
<rect x="14.5" y="138.5" transform="matrix(-1.836970e-16 1 -1 -1.836970e-16 154.5 124.5)" class="st20" width="1" height="2"/>
<rect x="15" y="136" class="st20" width="1" height="3"/>
<rect x="32" y="132" transform="matrix(-1 -4.456536e-11 4.456536e-11 -1 66 267)" class="st0" width="2" height="3"/>
<rect x="33" y="133" transform="matrix(-1 -4.547486e-11 4.547486e-11 -1 68 269)" class="st0" width="2" height="3"/>
<rect x="34" y="135" transform="matrix(-1 -4.547486e-11 4.547486e-11 -1 69 273)" class="st0" width="1" height="3"/>
<rect x="21" y="146" class="st0" width="8" height="1"/>
<rect x="22" y="147" class="st0" width="6" height="1"/>
<rect x="23" y="145" class="st27" width="4" height="1"/>
<rect x="23" y="146" class="st25" width="4" height="1"/>
<rect x="21" y="151" class="st25" width="1" height="1"/>
<rect x="20" y="150" class="st25" width="1" height="1"/>
<rect x="19" y="149" class="st25" width="1" height="1"/>
<rect x="24" y="154" class="st25" width="1" height="1"/>
<rect x="25" y="154" class="st25" width="1" height="1"/>
<rect x="25" y="155" class="st25" width="1" height="1"/>
<rect x="23" y="153" class="st25" width="1" height="1"/>
<rect x="26" y="153" class="st25" width="1" height="1"/>
<rect x="27" y="152" class="st25" width="1" height="1"/>
<rect x="28" y="151" class="st25" width="1" height="1"/>
<rect x="29" y="150" class="st25" width="1" height="1"/>
<rect x="30" y="149" class="st25" width="1" height="1"/>
<rect x="31" y="148" class="st25" width="1" height="1"/>
<rect x="25" y="149" class="st25" width="1" height="1"/>
<rect x="24" y="150" class="st25" width="1" height="1"/>
<rect x="23" y="149" class="st25" width="1" height="1"/>
<rect x="23" y="149" class="st25" width="1" height="1"/>
<rect x="21" y="148" class="st25" width="1" height="1"/>
<rect x="20" y="147" class="st25" width="1" height="1"/>
<rect x="25" y="151" class="st25" width="1" height="1"/>
<rect x="28" y="148" class="st25" width="1" height="1"/>
<rect x="28" y="147" class="st25" width="1" height="1"/>
<rect x="29" y="147" class="st25" width="1" height="1"/>
<rect x="30" y="146" class="st25" width="1" height="1"/>
<rect x="22" y="152" class="st25" width="1" height="1"/>
<rect x="18" y="148" class="st25" width="1" height="1"/>
<rect x="24" y="144" class="st25" width="2" height="1"/>
<rect x="26" y="143" class="st28" width="2" height="2"/>
<rect x="22" y="143" class="st28" width="2" height="2"/>
<rect x="23" y="142" class="st24" width="4" height="2"/>
<rect x="34" y="136" class="st20" width="1" height="3"/>
<rect x="20" y="175" class="st29" width="10" height="5"/>
<rect x="23" y="176" class="st29" width="4" height="4"/>
<rect x="13" y="176" class="st29" width="4" height="4"/>
<rect x="33" y="176" class="st29" width="4" height="4"/>
<rect x="24" y="172" class="st29" width="2" height="3"/>
<rect x="16" y="175" class="st29" width="3" height="3"/>
<rect x="31" y="175" class="st29" width="3" height="3"/>
<rect x="29" y="171" class="st1" width="1" height="1"/>
<rect x="18" y="173" class="st0" width="3" height="4"/>
<rect x="29" y="173" class="st0" width="3" height="4"/>
<rect x="28" y="169" class="st0" width="3" height="4"/>
<rect x="29" y="168" class="st0" width="3" height="4"/>
<rect x="19" y="171" class="st0" width="3" height="4"/>
<rect x="19" y="177" class="st0" width="1" height="1"/>
<rect x="20" y="177" class="st0" width="1" height="1"/>
<rect x="21" y="176" class="st0" width="1" height="1"/>
<rect x="28" y="176" class="st0" width="1" height="1"/>
<rect x="21" y="175" class="st0" width="1" height="1"/>
<rect x="21" y="174" class="st0" width="1" height="1"/>
<rect x="21" y="173" class="st0" width="1" height="1"/>
<rect x="21" y="172" class="st0" width="1" height="1"/>
<rect x="28" y="173" class="st0" width="1" height="1"/>
<rect x="28" y="172" class="st0" width="1" height="1"/>
<rect x="21" y="171" class="st0" width="1" height="1"/>
<rect x="28" y="171" class="st0" width="1" height="1"/>
<rect x="21" y="170" class="st0" width="1" height="1"/>
<rect x="28" y="170" class="st0" width="1" height="1"/>
<rect x="21" y="169" class="st0" width="1" height="1"/>
<rect x="28" y="169" class="st0" width="1" height="1"/>
<rect x="28" y="175" class="st0" width="1" height="1"/>
<rect x="28" y="174" class="st0" width="1" height="1"/>
<rect x="18" y="177" class="st0" width="1" height="1"/>
<rect x="18" y="178" class="st20" width="1" height="1"/>
<rect x="29" y="177" class="st0" width="1" height="1"/>
<rect x="30" y="177" class="st0" width="1" height="1"/>
<rect x="31" y="177" class="st0" width="1" height="1"/>
<rect x="18" y="165" class="st0" width="3" height="7"/>
<rect x="16" y="169" class="st1" width="1" height="1"/>
<rect x="16" y="168" class="st1" width="1" height="1"/>
<rect x="17" y="169" class="st1" width="1" height="1"/>
<rect x="32" y="169" class="st1" width="1" height="1"/>
<rect x="15" y="169" class="st1" width="1" height="1"/>
<rect x="15" y="168" class="st1" width="1" height="1"/>
<rect x="34" y="169" class="st1" width="1" height="1"/>
<rect x="34" y="168" class="st1" width="1" height="1"/>
<rect x="31" y="173" class="st1" width="1" height="1"/>
<rect x="18" y="173" class="st1" width="1" height="1"/>
<rect x="31" y="174" class="st1" width="1" height="1"/>
<rect x="18" y="174" class="st1" width="1" height="1"/>
<rect x="31" y="175" class="st1" width="1" height="1"/>
<rect x="18" y="175" class="st1" width="1" height="1"/>
<rect x="31" y="176" class="st1" width="1" height="1"/>
<rect x="18" y="176" class="st1" width="1" height="1"/>
<rect x="33" y="169" class="st1" width="1" height="1"/>
<rect x="33" y="168" class="st1" width="1" height="1"/>
<rect x="11" y="171" class="st0" width="2" height="3"/>
<rect x="12" y="174" class="st0" width="2" height="3"/>
<rect x="14" y="176" class="st0" width="2" height="2"/>
<rect x="13" y="177" class="st0" width="1" height="1"/>
<rect x="14" y="176" class="st0" width="1" height="1"/>
<rect x="12" y="169" class="st0" width="2" height="3"/>
<rect x="13" y="168" class="st0" width="2" height="3"/>
<rect x="37" y="171" transform="matrix(-1 -4.547486e-11 4.547486e-11 -1 76 345)" class="st0" width="2" height="3"/>
<rect x="36" y="169" transform="matrix(-1 -4.456536e-11 4.456536e-11 -1 74 341)" class="st0" width="2" height="3"/>
<rect x="35" y="168" transform="matrix(-1 -4.456536e-11 4.456536e-11 -1 72 339)" class="st0" width="2" height="3"/>
<rect x="18" y="178" class="st20" width="3" height="2"/>
<rect x="17" y="179" class="st20" width="3" height="1"/>
<rect x="17" y="178" class="st20" width="3" height="1"/>
<rect x="30" y="178" class="st20" width="3" height="1"/>
<rect x="30" y="179" class="st20" width="3" height="1"/>
<rect x="11" y="178" class="st20" width="5" height="2"/>
<rect x="11" y="179" class="st0" width="5" height="1"/>
<rect x="36" y="174" transform="matrix(-1 -4.547486e-11 4.547486e-11 -1 74 351)" class="st0" width="2" height="3"/>
<rect x="34" y="176" transform="matrix(-1 -4.456536e-11 4.456536e-11 -1 70 354)" class="st0" width="2" height="2"/>
<rect x="36" y="177" transform="matrix(-1 -4.547486e-11 4.547486e-11 -1 73 355)" class="st0" width="1" height="1"/>
<rect x="35" y="176" transform="matrix(-1 -4.365587e-11 4.365587e-11 -1 71 353)" class="st0" width="1" height="1"/>
<rect x="34" y="178" transform="matrix(-1 -4.474744e-11 4.474744e-11 -1 73 358)" class="st20" width="5" height="2"/>
<rect x="34" y="179" transform="matrix(-1 -4.474744e-11 4.474744e-11 -1 73 359)" class="st0" width="5" height="1"/>
<rect x="29" y="178" class="st20" width="3" height="2"/>
</svg>
