<?xml version="1.0" encoding="utf-8"?>
<!-- Generator: Adobe Illustrator 24.0.0, SVG Export Plug-In . SVG Version: 6.00 Build 0)  -->
<svg version="1.1" baseProfile="tiny" id="Layer_1" xmlns="http://www.w3.org/2000/svg" xmlns:xlink="http://www.w3.org/1999/xlink"
	 x="0px" y="0px" viewBox="0 0 532.2 512.7" xml:space="preserve">
<g>
	<path fill="#FFFFFF" d="M310.6,158.6c-1.5,0.1-2.8-1-2.9-2.5s1-2.8,2.5-2.9c0.1,0,0.3,0,0.4,0c1.5-0.1,2.8,1,2.9,2.5
		s-1,2.8-2.5,2.9C310.8,158.6,310.7,158.6,310.6,158.6 M221.4,264.5c-0.4,0-0.8,0.4-0.8,0.8s0.4,0.8,0.8,0.8s0.8-0.4,0.8-0.8
		S221.9,264.5,221.4,264.5 M256.3,266.1c0.4,0,0.8-0.4,0.8-0.8s-0.4-0.8-0.8-0.8s-0.8,0.4-0.8,0.8
		C255.5,265.8,255.9,266.1,256.3,266.1L256.3,266.1 M197.7,251.2c-1.7-0.8-3.6-1-5.5-0.6c0.6,1.7,1.7,3.3,3.3,4.2
		c1.7,0.8,3.6,1,5.4,0.6C200.4,253.7,199.2,252.2,197.7,251.2 M194.5,237.9c-0.1,1.7,0.4,3.3,1.4,4.6c1.2,1.2,2.8,2,4.5,2.1
		c0.1-1.7-0.4-3.3-1.4-4.7C197.8,238.8,196.2,238.1,194.5,237.9 M198.4,245.6c-1.5-1.1-3.4-1.6-5.3-1.4c0.2,1.8,1.1,3.5,2.4,4.7
		c1.5,1.1,3.4,1.6,5.3,1.4C200.6,248.5,199.7,246.9,198.4,245.6 M198.5,232.1c-9.8,0-16.5,6.6-16.5,14.8c0,7.5,4.6,12.8,13,14.5
		c3.3,0.7,4.5,1.4,4.7,2.7h3.5v-1.2c0-1.1-0.7-3.2-4.6-4c-6.3-1.4-9.8-6-9.8-11.6c0-6.5,5.4-11.9,13.5-11.9c3,0,5.9,0.7,8.5,2.2
		l0.6-0.7C207.9,233.7,203.3,232,198.5,232.1 M203.7,240c-1,1.3-1.5,3-1.4,4.7c1.7-0.2,3.3-0.9,4.5-2.1c1-1.3,1.5-3,1.4-4.6
		C206.5,238.1,205,238.8,203.7,240 M204.4,245.6c-1.3,1.2-2.2,2.9-2.4,4.7c1.9,0.1,3.7-0.4,5.2-1.4c1.3-1.2,2.2-2.9,2.4-4.7
		C207.7,244,205.9,244.5,204.4,245.6 M207.3,254.9c1.6-1,2.7-2.5,3.3-4.2c-1.8-0.4-3.7-0.2-5.4,0.6c-1.6,1-2.7,2.5-3.3,4.2
		C203.7,255.9,205.6,255.7,207.3,254.9 M204,267h-5.2l-1.4,14c0.6,2.2,2.8,3.5,5,2.9c1.4-0.4,2.6-1.5,2.9-2.9L204,267z M220.8,248.4
		c0,0.8,0.1,1.6,0.4,2.4h6.5v1h-6.3c0.9,2,3,3.2,5.2,3.2h2.5c0,0.5,0,1.6,0,2.1h-2.6h-1h-1.8v3.7h31.4v-3.7h-1H253h-2.5
		c0-0.5,0-1.6,0-2.1h2.5c2.2,0.1,4.2-1.2,5.2-3.2h-6.3v-1.1h6.7c0.3-0.8,0.4-1.6,0.4-2.4V248h-9.8c-0.9,0-1.7,0.7-1.7,1.6v2.3h-2.2
		v-2.3c0-1.4,0.8-2.8,2.1-3.4l0.6-0.3l-0.5-0.4c-4.7-3.4-11-3.5-15.8-0.2l-0.7,0.4l0.7,0.3c1.5,0.5,2.6,2,2.6,3.6v2.3h-2.2v-2.3
		c0-0.9-0.8-1.6-1.7-1.6h-9.8L220.8,248.4L220.8,248.4z M244.5,266.9c0.6-1.2,1.4-2.3,2.2-3.4h-1.8
		C244.9,264.4,244.5,266.9,244.5,266.9 M236.8,272.9l1.1-0.4c1.2-0.5,2.4-1,3.6-1.6l0.3-7.4h-5.4L236.8,272.9z M260.7,265.4
		c-1.6-1.4-3.5-2.3-5.6-2.5c-2.8,0-6.5,1.4-9.8,7.8c-0.5,0.9-1.2,1.6-2.1,2.1l0,0c-1.4,0.8-2.9,1.5-4.5,2.1c-1.7,0.6-3.4,1.4-5,2.2
		c-2.1,1-3.4,3-3.5,5.3c0.1,2,1.3,3.7,3,4.7c1-0.7,2-1.3,3-1.9c-1.6-0.8-2.7-1.6-2.7-2.8c0-1.6,1.4-2.5,3.4-3.4l0,0
		c1-0.5,2.1-0.9,3.3-1.4c1.6-0.6,3.2-1.4,4.8-2.2c1.4-0.8,2.6-2,3.4-3.4c0.8-1.6,1.8-3,3-4.3c1.1-1,2.5,0.1,4.9,0.1
		c1.7,0.1,3.3-0.5,4.5-1.6L260.7,265.4 M237.5,282.1c0,0.8,0.6,1.4,1.4,1.4l0,0c0.8,0,1.4-0.7,1.4-1.4c0-0.8-0.7-1.4-1.4-1.4
		C238.1,280.7,237.5,281.3,237.5,282.1 M242.4,288.4c2.7-1.4,5.3-3.1,5.3-6c0-1.7-0.8-3.3-2.2-4.4c-1.1,0.5-2.2,1-3.4,1.5
		c1.2,0.4,2.1,1.5,2.3,2.8c0,1.3-1.5,2.2-3.4,3.1c-0.5,0.3-1.1,0.5-1.6,0.8c-1.7,0.8-3.3,1.7-4.9,2.7h-0.1c-1.4,0.9-2.3,2.5-2.3,4.1
		c-0.1,1.7,0.7,3.3,2.2,4.1c0.7-0.8,1.6-1.5,2.4-2.1c-0.8-0.3-1.3-1.1-1.3-2c0.1-0.7,0.5-1.3,1-1.6l0,0l0.1-0.1
		c0.1-0.1,0.2-0.1,0.3-0.2c1.3-0.9,2.7-1.6,4.2-2.2L242.4,288.4L242.4,288.4 M241.9,298.4c2.2-0.8,3.6-2.9,3.7-5.2
		c0-1.1-0.4-2.2-1.1-3l-2.3,1.2l-0.7,0.4c0.5,0.3,0.9,0.9,0.9,1.5s-0.2,1.1-0.7,1.5l-0.1,0.1h-0.1l0,0h-0.1l-0.3,0.2
		c-2.9,1.9-4.4,2.8-5.7,4.8c-0.4,0.6-0.6,1.3-0.6,2c0.1,1.7,1.3,3,2.9,3.4v1.7c0,0.6,0.5,1.1,1.1,1.1s1.1-0.5,1.1-1.1v-1.7
		c1.6-0.3,2.8-1.7,2.9-3.4c0-0.4-0.1-0.7-0.2-1.1c-0.6,0.3-1.2,0.6-1.8,1.1c-0.5,0.5-1.4,0.4-1.9-0.1s-0.4-1.3,0.1-1.8l0,0
		c0.8-0.7,1.7-1.2,2.7-1.6 M231.1,263.3c0.8,1,1.5,2.1,2.1,3.3c0,0-0.2-2.4-0.2-3.3H231.1 M229.5,271.8c0.6,1.1,1.5,2.1,2.6,2.9
		c1.1-0.6,2.3-1.1,3.5-1.6c-1.3-0.5-2.4-1.5-3.1-2.7c-3.3-6.4-7-7.8-9.8-7.8c-2.1,0.2-4.1,1.1-5.6,2.5l0.1,0.8
		c1.2,1.1,2.8,1.7,4.4,1.6c2.4,0,3.9-1.1,4.9-0.1C227.7,268.8,228.7,270.2,229.5,271.8 M172.3,240.4c-0.4-0.2-0.5-0.7-0.3-1.1l0,0
		c0.2-0.4,0.7-0.5,1.1-0.3l6.2,3.5c0.6-2.2,1.6-4.3,3-6.1l-4.4-3.6c-0.3-0.2-0.4-0.7-0.2-1c0,0,0,0,0-0.1c0.3-0.3,0.8-0.4,1.2-0.1
		l4.4,3.5c1.3-1.4,2.9-2.6,4.6-3.6l-3.6-4.1c-0.3-0.3-0.3-0.8,0-1.1c0,0,0,0,0.1,0c0.4-0.3,0.9-0.2,1.2,0.1l3.8,4.4
		c2.8-1.2,5.8-1.9,8.9-1.8c4.6-0.1,9.1,1.3,12.9,3.8l5.6-6.4c0.3-0.3,0.8-0.4,1.1-0.1c0.3,0.3,0.4,0.7,0.1,1.1c0,0,0,0,0,0.1
		l-5.5,6.4c0.3,0.2,0.6,0.5,0.8,0.7l1.4,1.3l-4.2,4.8c-0.1,0.4-0.2,0.8-0.3,1.1h0.6l12.5-10.2c0.4-0.3,0.9-0.2,1.2,0.1
		s0.2,0.8-0.1,1.1L212,242.9l-0.2,2c-0.1,1.1-0.5,2.2-1,3.3l1.4,0.4l17.1-9.5c0.4-0.2,0.9-0.1,1.1,0.3c0.2,0.4,0.1,0.9-0.3,1.1
		l-9.1,5.1h6.2c6.4-6.6,17-6.8,23.6-0.4c0.1,0.1,0.3,0.3,0.4,0.4h10.2v2.9c0,3-1.3,5.8-3.7,7.6v4.2c1.8,0.6,3.5,1.6,4.9,2.8l1.3,1.2
		l-0.4,2.2l-0.2,0.7c-0.7,2-4.1,3.8-7.5,3.8c-1.1,0-2.1-0.1-3.1-0.4l0,0c-0.7,0.9-1.3,1.9-1.9,2.9c-0.6,1.2-1.5,2.3-2.6,3.1
		c3.1,3.2,3.1,8.4-0.2,11.5c-0.3,0.3-0.6,0.5-0.9,0.8c0.9,1.3,1.4,2.8,1.4,4.4c0,2.6-1.1,5-3.2,6.5c0.3,0.7,0.5,1.5,0.5,2.2
		c-0.1,2.2-1.2,4.2-3,5.3c-0.2,2.3-2.3,4.1-4.6,3.9c-2.1-0.2-3.7-1.8-3.9-3.9c-1.9-1.1-3-3.2-3-5.3c0-0.8,0.2-1.5,0.5-2.2
		c-2.1-1.5-3.3-3.9-3.3-6.5c0-1.6,0.5-3.1,1.4-4.4c-3.6-2.6-4.5-7.7-1.8-11.4c0.2-0.3,0.5-0.6,0.8-0.9c-1.1-0.9-1.9-1.9-2.6-3.1
		c-0.5-1-1.2-2-1.9-2.9l0,0c-1,0.3-2.1,0.4-3.2,0.4c-3.3,0-6.8-1.7-7.5-3.8c0-0.2-0.2-0.7-0.2-0.7l-0.4-2.2l1.3-1.1
		c1.7-1.5,3.8-2.6,6-3.1v-4.6c-1.9-1.8-3-4.3-2.9-7v-1.2l-4.8,2.7l-0.5,1.9c-0.7,2.2-2.1,4.1-4.1,5.4c-1.4,0.7-2.9,1.1-4.5,1
		c1.3,1.2,2.1,2.8,2.1,4.6v1.2h0.4l1.8,16.8v0.1c0,3.4-3.2,6.1-7,6.1s-6.9-2.6-6.9-6V281l1.6-16.1c-0.4-0.1-0.9-0.2-1.7-0.4
		c-10.3-2.1-15.5-8.7-15.5-17.4c0-0.9,0.1-1.8,0.2-2.6L172.3,240.4 M338.7,268.8c4,0.1,7.4-3.2,7.4-7.2h-14.8
		C331.3,265.6,334.6,268.8,338.7,268.8 M322.8,290.3c0,0,7.8-17,9-19.9c-1.6-0.2-3.3-0.5-4.9-0.9c-2-0.5-3.9-1.4-5.6-2.6
		c-1.2-0.9-2.5-1.6-3.9-2c-0.4-0.1-0.8-0.1-1.2-0.1l-1.6,22.2c2.3,1,4.2,2.7,5.5,3C321.1,290.3,322,290.3,322.8,290.3 M314.9,243.7
		h25.3c1.6,0,2.9-1.3,2.9-2.9s-1.3-2.9-2.9-2.9s-3,1.2-3,2.9l0,0c0,0,0,0.1,0,0.2c-5.4,0.4-16.5,0.7-24.1-4.7
		c0.7-0.7,1.1-1.8,1.1-2.8c-0.1-2.4-2.2-4.2-4.5-4c-2.2,0.1-3.9,1.9-4,4c0,1,0.4,2,1.1,2.8c-7.6,5.4-18.6,5.1-24,4.7
		c0,0,0-0.1,0-0.2c0.1-1.7-1.2-3.1-2.9-3.1c-1.7-0.1-3.1,1.2-3.1,2.9c-0.1,1.7,1.2,3.1,2.9,3.1h0.1H305l3.9,53
		c0,0.6,0.5,1.1,1.1,1.1s1.1-0.5,1.1-1.1l0,0L314.9,243.7z M303.3,285.5c0.5-0.4,1.1-0.7,1.7-0.9l-1.6-21.2c-1.4,0.1-2.8,0-4.2-0.3
		c-1.3-0.3-2.5-0.7-3.6-1.3c-1.2,1.7-10.7,16.4-11.9,18.2c1,0.6,2.1,1,3.3,1.3c2.3,0.5,4.6,0.5,6.9,0.2c1.9-0.3,3.8-0.3,5.7,0.1
		C301.3,282.3,302.6,283.7,303.3,285.5 M281.1,268.7c4,0.1,7.4-3.1,7.5-7.2l0,0h-14.9C273.7,265.6,277.1,268.8,281.1,268.7
		 M291.5,258.7v2.9c0,0.6-0.1,1.2-0.2,1.7l2.7-4l0.8-1.1l1.2,0.8c2.2,1.3,4.7,2,7.3,1.8l-1.1-14.3h-19l5.6,12.2L291.5,258.7
		L291.5,258.7z M275.9,258.7h10.4l-5.2-11.2L275.9,258.7z M330.3,267.4c-1.3-1.7-1.9-3.7-1.9-5.8v-2.8h2.6l5.7-12.2h-19l-1.1,15.7
		c0.5,0,1.1,0.1,1.6,0.2c1.8,0.4,3.4,1.2,4.9,2.3c1.4,1,2.9,1.8,4.6,2.2C328.5,267.2,329.4,267.3,330.3,267.4 M338.7,247.5
		l-5.2,11.2h10.4L338.7,247.5z M349.1,258.6v2.9c-0.1,5.7-4.8,10.2-10.4,10.1c-1.3,0-2.5-0.2-3.7-0.7v1.3l-9.6,22.8l-11.1-3.5
		l-0.4,5.1l0,0l0,0c0,2.2-1.8,4.1-4.1,4.1s-4.1-1.8-4.1-4.1l0,0v0.2l-0.6-7.4c-1,0.4-2,0.4-3.1,0.2c-1.3-0.3-3.1-1.5-2.9-2.5
		l-19.5-3.8l0.7-4.4l0,0v-0.1l0,0l0,0l6.1-8.9c-1.7,1.1-3.7,1.6-5.7,1.6c-5.6,0.1-10.3-4.4-10.4-10.1v-2.9h2.6l5.7-12.2
		c-3.1-0.6-5.2-3.5-4.6-6.7c0.5-2.6,2.7-4.6,5.4-4.7c2.2,0,4.3,1.3,5.3,3.3c7.5,0.3,13.5-0.7,17.9-3c-0.2-0.6-0.3-1.2-0.3-1.7
		c0.2-4,3.6-7.1,7.6-6.9c3.7,0.2,6.7,3.2,6.9,6.9c0,0.6-0.1,1.2-0.3,1.7c4.4,2.3,10.4,3.3,17.9,3c1-2,3.1-3.3,5.3-3.3
		c3.2,0.2,5.6,2.9,5.4,6.1c-0.2,2.7-2.1,4.9-4.7,5.3l5.7,12.2L349.1,258.6L349.1,258.6z M199.9,171.1c-6.5,0.2-11.7,5.5-11.5,12.1
		c0,0,0,0,0,0.1c0,9.1,7.3,13.2,13.6,15.5c0.6-0.7,1.3-1.2,2.2-1.4l0.5-0.1c-1-0.8-3.4-1.8-6.8-4.3c-3-2.2-6-4.6-6-9.6
		c-0.1-4.6,3.4-8.5,8-8.7c2,0,4.1,0.3,6,0.8c1.6,0.5,3.7,2.1,6,2.1c4.1,0,5.5-1.6,5.5-1.6l0.3-1.5c0,0-3-2.8-5.9-2.8
		c-1.8,0-3.6,0.2-5.3,0.5C204.3,171.3,202.1,171.1,199.9,171.1 M195.9,180.1v3.2c0,4.3,3.4,6.7,6.5,8.8c2,1.4,4.5,2.6,5.6,4.2
		l6.4-1.6c0,0,2.6-1.6,3.8-2.5c3-2.1,6.5-4.5,6.5-8.8v-3.2L195.9,180.1L195.9,180.1z M215.7,206.5c0.8-0.2,1.3-1.1,1.1-2
		s-1.1-1.4-2-1.1L205,206c-0.8,0.3-1.3,1.1-1.1,2c0.3,0.9,1.1,1.3,2,1.1L215.7,206.5 M204.9,199.6c-0.9,0.2-1.4,1.1-1.1,2
		c0.3,0.9,1.2,1.3,2,1.1l9.8-2.6c0.9-0.2,1.4-1.1,1.2-2s-1.2-1.4-2-1.1l0,0L204.9,199.6 M218.7,216.5c0-2.1-6.5-4.7-6.5-6.5
		l-4.5,1.2c-1.7,1.6-5.8,3.7-5.8,5.4v0.4h16.9L218.7,216.5 M218.8,166.9h15.8v50h9v-50.1h15.7v-8.7h-15.8v-17.6h-9v17.6h-15.8
		L218.8,166.9L218.8,166.9z M185.1,183.2c-0.1-8.3,6.5-15.1,14.8-15.3c2.4,0.1,4.7,0.3,7.1,0.7c1.6-0.3,3.2-0.4,4.8-0.5
		c1.3,0.1,2.6,0.4,3.8,0.9v-13.9h15.8v-17.6h15.2v17.6h15.8v14.7h-15.8v49.3h-15.2v-49.3h-14.1c1.4,1,2.6,2,3.9,3.1
		c0.8-0.2,1.6-0.4,2.4-0.4c1.5,0,2.5,1.3,3.4,1.3s1.2,0,1.2,0.4c-0.2,0.6-0.8,0.9-1.4,0.8c-1.1,0-2.1-0.8-3.1-0.8
		c-0.9,0.1-1.9,0.4-2.7,0.8l-0.4,2h7.4v6.3c0,5.9-4.5,9.1-7.8,11.4c-0.7,0.4-1.3,0.8-2,1.2c0.4,0.5,0.7,1,0.9,1.6
		c0.3,1,0.1,2.1-0.4,3c-0.3,0.5-0.6,0.9-1.1,1.2c1.1,0.7,1.8,1.9,1.9,3.3c0,3.2-4,4.1-4,4.1v0.2c0.3,0.3,0.7,0.6,1,0.9
		c1.7,1.4,5.6,3.3,5.6,6.8v2.3h-23.3V217c0-3,2.8-4.9,4.7-6.2c-0.8-0.5-1.4-1.2-1.6-2.1c-0.3-1-0.1-2.1,0.4-3
		c0.3-0.5,0.6-0.9,1.1-1.2c-1-0.6-1.6-1.5-1.8-2.6C193.8,199.2,185.1,194.2,185.1,183.2 M332.9,187c0,3,2.3,5.4,5.3,5.5
		c0.1,0,0.2,0,0.4,0c4.3,0.1,7.8-3.3,7.9-7.6c0-5.7-3.9-9.3-10.2-9.3h-9l3.1,7.7c1.2-2.8,3.9-4.5,6.9-4.4c3.1-0.2,5.8,2.1,6,5.3
		c0,0.1,0,0.2,0,0.2c0.1,2.7-2.1,4.9-4.8,5c-0.1,0-0.3,0-0.4,0c-0.9,0.2-1.8-0.3-2-1.2s0.3-1.8,1.2-2c0.3-0.1,0.5-0.1,0.8,0
		c0.9,0.2,1.7-0.4,1.9-1.3c0-0.2,0-0.3,0-0.5c-0.1-1.4-1.2-2.4-2.6-2.3h-0.1C334.6,182.1,332.9,184,332.9,187 M340.7,217
		c0,0-15.1-37.3-21.8-53.9c-2.1,2.3-5.2,3.6-8.3,3.6c-0.2,0-0.4,0-0.7,0l30,50.8L340.7,217 M331.4,209l-5.5-9.4v13.3h5.5V209
		L331.4,209z M322.4,193.6l-3.2-5.4h-17.3l-3.3,5.4v19.1h5.5v-19.9c0.1-0.9,0.8-1.6,1.8-1.6c0.9,0,1.7,0.7,1.8,1.6v19.9h5.5v-19.9
		c0.1-1,1-1.7,1.9-1.6c0.8,0.1,1.5,0.7,1.6,1.6v19.9h5.6L322.4,193.6L322.4,193.6z M295.2,199.7l-5.6,9.4v3.8h5.6V199.7z
		 M303.8,185.1h13.5l-5.6-9.4h-2.4L303.8,185.1z M308.8,170.7l-2.9-4.9c-1.4-0.6-2.7-1.6-3.7-2.7L280.3,217l0.8,0.4L308.8,170.7z
		 M282.5,192.6c3,0.2,5.5-2.1,5.7-5.1c0-0.1,0-0.3,0-0.4c0-3.1-1.6-4.9-4.4-4.9c-1.4-0.1-2.6,0.8-2.7,2.2v0.1
		c-0.1,0.9,0.5,1.7,1.4,1.8c0.2,0,0.3,0,0.5,0c0.9-0.2,1.8,0.3,2,1.2s-0.3,1.8-1.2,2c-0.3,0.1-0.5,0.1-0.8,0c-2.7,0.1-5-1.9-5.1-4.6
		c0-0.1,0-0.2,0-0.4c0.1-3.1,2.6-5.6,5.7-5.5c0.1,0,0.2,0,0.3,0c3-0.1,5.8,1.6,6.9,4.4l3.2-7.8h-9.1c-6.3,0-10.2,3.6-10.2,9.3
		C274.7,189.3,278.2,192.6,282.5,192.6 M310.6,148.2c-4.3,0.1-7.6,3.7-7.4,8c0.1,4.3,3.7,7.6,8,7.4c4.1-0.1,7.4-3.5,7.4-7.7
		C318.5,151.6,315,148.1,310.6,148.2L310.6,148.2 M349.8,184.9c-0.1,6-5.1,10.8-11.2,10.7c-1.2,0-2.4-0.2-3.5-0.6l4.6,11.3l4,9.8
		c1,2.5-0.7,3.3-0.7,3.3l-2.3,1.2c-1.4,0.7-2.6-0.2-3.3-1.5l-2.7-4.5v1.2h-48.3v-1.1l-2.6,4.4c-0.7,1.2-1.9,2.2-3.3,1.5l-2.3-1.2
		c0,0-1.7-0.7-0.7-3.3l3.9-9.8L286,195c-1.1,0.4-2.3,0.6-3.5,0.6c-6,0.1-11-4.7-11.2-10.7c0-7.5,5.4-12.5,13.5-12.5h10.3l5-12.4
		c-0.6-1.3-0.9-2.7-0.9-4.2c0.3-6.2,5.6-11,11.8-10.6c5.7,0.3,10.3,4.9,10.6,10.6c0,1.4-0.3,2.8-0.9,4.1l5,12.4H336
		C344.5,172.4,349.8,177.5,349.8,184.9 M212.3,174.6c0.4,0,0.8-0.4,0.8-0.8c0-0.4-0.4-0.8-0.8-0.8c-0.4,0-0.8,0.4-0.8,0.8
		C211.5,174.3,211.9,174.6,212.3,174.6 M309.3,76.9v0.2c0.2,0.7,0.3,1.5,0.3,2.3v0.5c0,0,0,1.2,0,1.4l0.1,0.2l0.4,0.8l0.2-0.8
		c0.8-3.2,2.8-6,5.6-7.8l0.1-0.1v-0.2c0-0.4-0.1-0.9-0.2-1.4v-0.3l-0.7,0.1l-0.4,0.1c-1.5,1.8-3.2,3.4-5.1,4.8L309.3,76.9z
		 M307.4,81c0.2-1.6,0-3.2-0.6-4.8c2.4-1.8,4.7-3.9,6.7-6.2l3.3-0.6c0.8-0.2,0.7,0,0.8,0.6l0.7,3.8c-0.1,0.3-0.2,0.6-0.4,1
		c0,0-5.7,3.5-5.7,9.3c0,0.5,0.1,1,0.1,1.5l0,0c-1.2-0.3-2.2-0.8-3.3-1.4C308.2,83.3,307.6,82.2,307.4,81 M319.8,67.3
		c0.3,1.9,0.4,3.8,0.4,5.7c1-0.9,1.7-2.1,2-3.4c-0.1-1.8-0.3-3.5-0.7-5.3c-0.2-0.3-2.2-2.7-3.3-2.7c-0.7,0.2-1.3,0.9-1.5,1.6
		c-0.5,1-1.1,2-1.8,2.9v0.3C316.3,66.5,319.4,66.4,319.8,67.3 M191.9,92.9l2.7,3.1c1.4-1.1,2.9-2.1,4.4-3c-0.1-0.2-0.1-0.4-0.1-0.6
		c0-1.7,1-3.2,2.6-3.9c0.6-0.3,1.2-0.4,1.8-0.4c1.2,0,2.4,0.6,3.3,1.5c1.6-0.5,3.2-0.9,4.8-1.3l-0.8-4c-3.4,0.6-6.7,1.7-9.9,3.1
		C197.5,89,194.5,90.8,191.9,92.9 M185.6,85.1l2.6,3.3c2.1-1.6,4.2-3,6.5-4.3c0-0.2,0-0.3,0-0.5c0-2.4,2-4.3,4.3-4.3
		c1.2,0,2.4,0.5,3.3,1.4c2.3-0.8,4.7-1.5,7.2-1.9c-0.1-0.5-0.9-4-0.9-4c-4.2,0.8-8.2,2-12.1,3.7C192.6,80.4,189,82.6,185.6,85.1
		 M190.5,75.1c0-0.1-0.1-0.3-0.1-0.4c0-1.7,1-3.2,2.5-3.9c0.6-0.3,1.2-0.4,1.9-0.4c1.2,0,2.3,0.5,3.1,1.3c3-1.1,6.1-2,9.2-2.6
		c-0.4-1.6-0.7-2.6-0.9-3.1c-0.3,0-0.5,0-0.8,0c-1.4,0.1-2.8,0.3-4.2,0.6l-0.7,0.2c-1.4,0.4-2.8,0.7-4.3,0.7c-2,0.1-3.9-0.7-5.2-2.1
		c-0.2-0.3-0.5-0.6-0.8-0.7c-0.2,0-0.3,0.1-0.5,0.1c-0.4,0.2-0.4,0.2-0.4,0.6s0,0.5,0,0.8c0.1,0.3,0.1,0.6,0.1,1
		c0,3.7-3.4,5.9-5.1,7l-0.5,0.4c-1.4,0.8-2.6,2-3.6,3.3c0.3,0.5,0.9,1.3,1.9,2.7C184.7,78.4,187.5,76.6,190.5,75.1 M287.2,67.2
		c-1,0.4-1.9,0.7-2.8,1c0.3,1.9,0.5,3.8,0.5,5.8c0,0.7,0,1.5-0.1,2.2c0.8,0.2,0.9,0.3,1.8,0.5c0.8-2.1,2.2-4,4-5.5
		C289.5,70.1,288.4,68.7,287.2,67.2 M282.7,77.5c0.3-1.2,0.4-2.3,0.4-3.5c0-2.4-0.2-4.7-0.7-7c1-0.3,3.3-1.1,5.5-2.1
		c1.6,2.3,3.3,4.4,5.1,6.4c-2.6,1.8-4.4,4.5-5.2,7.5L282.7,77.5 M247.7,68.2c-0.9-0.3-1.8-0.7-2.8-1c-1.1,1.5-2.2,2.9-3.2,4
		c1.7,1.5,3,3.4,3.8,5.5l1.8-0.5c-0.1-0.7-0.2-1.5-0.2-2.2C247.2,72.1,247.4,70.1,247.7,68.2 M239.1,71.4c1.9-2,3.6-4.2,5.1-6.4
		c2.2,0.9,4.6,1.6,5.6,2.1c-0.5,2.3-0.7,4.6-0.7,7c0,1.2,0.1,2.4,0.4,3.5l-5.1,1.4C243.6,75.8,241.7,73.2,239.1,71.4 M246.6,83.8
		c-0.1,1.7-0.5,3.4-1.1,5c2.3-0.5,4.6-1.3,6.9-2.1c-1-1.1-2-2.4-2.8-3.7L246.6,83.8 M241.8,91.5c2-2.6,3-5.8,2.9-9.1
		c3.3-0.8,4.9-1.3,5.8-1.6c1.2,2.4,2.9,4.7,4.9,6.5C251.2,89.3,246.6,90.7,241.8,91.5 M266,85.9c-0.4,0.5-0.9,1-1.4,1.5
		c0.5,0.3,1,0.6,1.4,0.8c0.4-0.2,0.9-0.5,1.4-0.8C266.9,87,266.5,86.5,266,85.9 M261.6,87.7c1.8-1.4,3.3-3.1,4.4-5
		c1.1,1.9,2.6,3.6,4.4,5c-1.4,1-2.9,1.9-4.4,2.6C264.5,89.5,263,88.6,261.6,87.7 M242.7,51.3c-0.7,0-1.7,1.6-1.7,3.4
		c0,1.1,0.5,2.2,1.3,2.9c0.8-1.4,1.3-3,1.4-4.6C243.7,52.3,243.3,51.6,242.7,51.3 M242.9,60.4c-2.2-1.1-3.6-3.3-3.8-5.7
		c0-2.7,1.8-5.2,3.6-5.2s2.9,2.3,2.9,3.6C245.3,55.7,244.3,58.2,242.9,60.4 M282.4,83c-0.8,1.3-1.7,2.6-2.7,3.8
		c2.2,0.9,4.5,1.6,6.9,2.1c-0.6-1.6-1-3.3-1.1-5L282.4,83 M290.2,91.5c-4.7-0.8-9.3-2.2-13.6-4.1c2-1.9,3.7-4.1,4.9-6.5
		c0.9,0.3,2.6,0.7,5.8,1.6C287.2,85.8,288.3,89,290.2,91.5 M254.7,70.6c-0.1,1.1-0.2,2.3-0.2,3.4c0,0.1,0,0.2,0,0.3l0.9-0.2
		c0.8-1.2,2.1-2,3.6-1.9C259,72.1,256.8,71.3,254.7,70.6 M262.3,76.6c0,0-0.5,3.1-5.2,4.3c0.5,0.7,1.1,1.4,1.7,2
		C262.6,79.7,262.3,76.6,262.3,76.6 M252.9,76.6c-0.2-0.9-0.3-1.7-0.3-2.6c0-2,0.2-3.9,0.6-5.9c5.7,1.9,10.8,4.1,10.8,8.7
		c0,3.3-1.8,6.2-5.3,8.7c-1.8-1.6-3.4-3.4-4.5-5.6l3.5-1c2.2-0.7,3.4-2.5,2.9-4.2c-0.2-0.8-0.9-1.3-1.7-1.3c-0.2,0-0.3,0-0.5,0
		c-0.8,0.2-1.3,0.8-1.4,1.6c0,0,0,0.1,0,0.2l-0.6,0.2L252.9,76.6z M289.3,51.3c-0.6,0.4-1,1-1,1.7c0.1,1.6,0.6,3.2,1.4,4.6
		c0.9-0.7,1.4-1.8,1.4-2.9C291.1,53,290,51.3,289.3,51.3 M293,54.7c-0.2,2.4-1.7,4.6-3.8,5.7c-1.5-2.2-2.4-4.8-2.7-7.4
		c0-1.3,1.1-3.6,2.9-3.6C291.2,49.5,293,52,293,54.7 M269.7,76.6c0,0-0.3,3,3.5,6.3c0.6-0.6,1.2-1.3,1.7-2
		C270.2,79.8,269.7,76.6,269.7,76.6 M277.3,70.6c-2.1,0.7-4.3,1.5-4.3,1.5c1.5-0.1,2.8,0.6,3.6,1.9l0.8,0.3c0-0.1,0-0.2,0-0.3
		C277.4,72.9,277.4,71.8,277.3,70.6 M273.3,85.5c-3.5-2.5-5.3-5.4-5.3-8.7c0-4.6,5.1-6.7,10.8-8.7c0.4,1.9,0.5,3.9,0.6,5.9
		c0,0.9-0.1,1.8-0.3,2.6l-3.6-1c-0.2-0.1-0.4-0.1-0.6-0.2c0,0,0-0.1,0-0.2c0-0.8-0.6-1.4-1.3-1.6c-0.2,0-0.3,0-0.5,0
		c-0.8,0-1.5,0.5-1.7,1.3c-0.5,1.6,0.7,3.4,2.9,4.2l3.6,1c-1.2,2.1-2.7,4-4.5,5.6 M335.6,89.9l0.7-5.6l5.7-1l-5.3-2.4l0.9-5.7
		l-4,4.1l-5.2-2.3l0,0l2.7,4.9l-4,4.1l5.8-1.1L335.6,89.9z M326.6,74.9c-2.6,3.7-5.6,4.6-7.2,7.2c-1.5,2.6,0.3,5.1,1.6,6.2l2.6,1.8
		c1.7,1,3.3,2.2,4.6,3.7h0.1c2,0.1,3.9,0.5,5.8,1.1l2.9,0.7c0.5,0.1,1,0.1,1.4,0.1c2.1,0.1,4-1.1,4.9-2.9c1-1.9-0.6-6.5,1.5-10.6
		c0.9-2,2.6-3.6,4.6-4.5v-0.2c-1-0.2-2.1-0.6-3-1c-1.5-0.7-5.5-3.3-5.5-7.1c0-0.3,0-0.6,0-0.8c0.1-0.3,0.1-0.5,0-0.8
		c-0.2,0.1-0.4,0.3-0.5,0.5c-1.3,1.4-3,2.1-4.9,2c-1.4,0-2.8-0.3-4.2-0.7c-1.2-0.4-2.4-1-3.4-1.8h-0.1c0,0,0.9,4.3-1,7 M317.5,81
		c0.8-1.4,2-2.7,3.4-3.6c1.3-0.9,2.5-2,3.5-3.3c0.1-0.2,0.3-0.4,0.4-0.6l0.4-0.7c0.4-0.8,0.5-1.7,0.5-2.6s-0.1-1.9-0.4-2.8l-0.2-0.8
		l0.7-0.4c0.4-0.2,1.1-0.6,1.2-0.7l0.8-0.5l0.7,0.6c1,0.8,2.1,1.4,3.3,1.8c1.1,0.3,2.3,0.5,3.5,0.6s2.4-0.4,3.3-1.3
		c0.5-0.7,1.2-1.1,2-1.2c0.4,0,0.7,0.1,1.1,0.3c0.8,0.3,1.4,1.1,1.4,2c0,0.3,0,0.6-0.1,0.9c0,0.2,0,0.4,0,0.5c0,2.7,3.4,4.8,4.3,5.2
		c1,0.5,2.1,0.8,3.2,1l0.9,0.1l0.4,2.9l-0.7,0.6c-1.7,0.7-3.2,2-4.2,3.6l-0.3,0.7l0,0c-0.1,0.2-0.1,0.5-0.2,0.7
		c-0.3,1.2-0.4,2.3-0.3,3.5v2.1c0.1,1.3-0.2,2.6-0.7,3.8c-0.5,0.9-1.1,1.6-1.8,2.3c-1.4,1.2-3.1,1.8-4.9,1.8c-0.6,0-1.3-0.1-1.9-0.2
		l-3-0.8c-1.7-0.6-3.5-0.9-5.2-1h-1.1l-0.4-0.5c-1.2-1.4-2.7-2.6-4.3-3.6l-2.7-1.8C317.2,87.9,316.2,84.2,317.5,81 M230.2,87
		c1.6,0,1.4-1.7,2.1-2.3s2.4-0.4,2.4-2s-1.8-1.4-2.4-2c-0.6-0.6-0.3-2.3-2.1-2.3c-0.9,0-1.6,0.7-1.7,1.6c0,0.1,0,0.2,0,0.4V85
		c-0.2,0.9,0.4,1.7,1.3,1.9C230,87,230.1,87,230.2,87 M177,103.6c-0.6-0.7-1.7-0.8-2.4-0.1l-0.1,0.1c-1,1.2,0.5,2.1,0.6,3
		c0.1,0.8-1.2,2,0,3s2.3-0.5,3.1-0.5s2.1,1.2,3.2,0c0.5-0.7,0.4-1.7-0.3-2.3c-0.1-0.1-0.1-0.1-0.2-0.1L177,103.6z M266.8,351.8
		c73-0.4,132.1-58.3,131.6-128.9c-0.2-26.8-9-52.9-25.2-74.4c-2.9-1-4.9-3.5-5.2-6.5c-48.8-56.4-134.1-62.5-190.5-13.6
		c-4.9,4.2-9.4,8.8-13.6,13.6c-0.2,1.9-1.1,3.6-2.5,4.9c-0.8,0.7-1.7,1.3-2.6,1.6c-16.5,21.8-25.4,48.5-25.2,75.9
		C134,295,193.9,352.2,266.8,351.8 M166.7,134.2l-5.2,1.9c-0.8,0.3-1.6,0.7-1.1,0.7c0.8,0,1.6,0.4,2.2,1c0.1,0.2,0.3,0.4,0.4,0.6
		C164.8,136.3,164.8,136.2,166.7,134.2 M168.5,107.5L168.5,107.5z M150.1,140c-0.1,3.3,2.3,6,5.6,6.4c3,0.2,5.6-2.2,5.8-5.2
		c0-0.2,0-0.4,0-0.6c0-1-0.9-1.8-1.9-1.8c-0.5,0-0.9,0.2-1.2,0.5s-0.5,0.8-0.5,1.2c0.2,1.1-0.6,2.1-1.6,2.3c-0.1,0-0.2,0-0.4,0
		c-1.2-0.3-2.1-1.3-2.1-2.6c-0.1-1.8,1-3.3,3.5-4.7c0.9-0.6,1.8-1,2.8-1.3l5.3-2.2l0,0c0.4-0.2,1.6-0.8,6.6-3.3
		c4-2.4,7.8-5.2,11.2-8.4c0.3-0.2,0.5-0.4,0.7-0.7c4.2-4,8.1-8.3,11.7-12.9c1.3-1.5-1.6-3.5-2.6-2.3s-4.5,5.5-7.2,8.3l-0.5,0.4
		c-1.9,2.4-4.7,3.9-7.8,4c-2.5-0.1-5-1-6.9-2.6c-2.2-1.7-3.7-4.3-4-7.1c-0.3-2.6,0.5-5.1,2.1-7.1c2.6-3,6.4-4.9,10.4-5.2
		c1,0,1.8-0.8,1.8-1.8s-0.8-1.8-1.8-1.8c-5.1,0.3-9.8,2.6-13.2,6.4c-2.2,2.7-3.2,6.2-2.9,9.7c0.4,3.7,2.3,7.1,5.3,9.4
		c2.3,1.9,5.2,3.1,8.1,3.4c-3.5,2.2-7.6,3.4-11.7,3.6c-1.6,0-6.3,0-7.8-1.4c-0.3-0.3-0.5-0.8-0.5-1.3c0-1-0.8-1.8-1.8-1.7
		c-1,0-1.8,0.8-1.8,1.7c0,4.2,3.8,6.2,11.9,6.2h1.3l-2.1,1.1l-5.2,2.2c-1.2,0.4-2.3,1-3.4,1.6C151.8,134.7,150,137.2,150.1,140
		 M168.6,91.2V88h-1.3v-3h9.8c0-1.9-0.3-3-2.8-4.6h-18V85h1.4v2.9h-1.4V91h5.6v-3.1h-1.5V85h4.2v2.9h-1.4v3.2L168.6,91.2L168.6,91.2
		z M180.6,90.5c-1-1.3-2.1-2.6-2.4-3h-7.1V92c2.5-1.2,5.2-1.9,7.9-2.1C179.6,90,180.2,90.1,180.6,90.5 M183.8,104.2
		c-0.1-0.1-0.3-0.2-0.4-0.3l4.7-5.5c-0.1-1-0.4-1.9-1-2.7c-0.7-0.7-1.5-1.1-2.4-1.3l-5.3,6.2c-0.1-0.1-0.2-0.2-0.4-0.4
		c-1-0.8-2.2-1.2-3.5-1.2H175c-1.4,0.1-2.7,0.8-3.7,1.9c-0.9,1-1.4,2.4-1.3,3.8c0.1,0.8,0.4,1.5,0.8,2.1c-0.2,0.6-0.3,1.2-0.4,1.9
		c0.1,2.9,2.5,5.1,5.4,5.1c0.9,0,1.8-0.3,2.6-0.7c0.7,0.2,1.5,0.3,2.3,0.4c2.9-0.2,5.1-2.7,4.9-5.6l0,0
		C185.5,106.4,184.9,105.1,183.8,104.2 M186.7,104.2c0.7,1,1.1,2.2,1.2,3.4l0,0c1.3-1.5,2.5-3,3.6-4.3l-1.9-2.3
		C188.1,102.7,187.2,103.7,186.7,104.2 M181,70.8c-4.7,3.3-6.8,6.3-5.4,8.5c5.1,8.1,19,23.9,19.1,23.9c3.1-2.8,6.5-5.2,10.2-7
		c3.8-1.7,7.9-2.7,12.1-3c0,0-3.5-20.5-6.6-29.5c-0.6-1.5-2.3-2.2-4.8-2.2c-4,0-7.2,1.5-9.3,1.5c-0.6,0-1.2-0.2-1.6-0.6
		c-1.6-2.2-4.5-2.9-6.9-1.7c-2.5,1-3.8,3.7-3.1,6.2c0.2,1.4-1.6,2.7-3,3.5L181,70.8 M211.9,63.5c-0.3,1.8,0.5,3.5,2,4.5
		c0.1,0.1,0.1,0.1,0.1,0.2l6.1-7.1l2.3,1.9l-0.9,1l2.5,2l3.6-4.1l-2.5-2l-0.9,1l-2.3-1.9l2.7-3.1l2.3,1.9l-0.9,1l2.5,2l3.6-4.1
		l-2.5-2l-0.9,1.1l-2.3-1.9l0.9-1.1l-3.6-2.9L211.9,63.5z M226,67.5c1.7-0.4,3.5-0.7,5.3-0.7c1.4,0,2.7,0.3,4,0.7
		c0.8-0.9,1.9-2.2,3.1-3.8c-2-1.3-3.6-3.2-4.5-5.4L226,67.5z M224.8,90.9L224.8,90.9c-0.9-0.8-1.6-1.9-2-3h-4.2
		c0.2,1.4,0.3,2,0.5,2.9C220.7,90.8,222.6,91,224.8,90.9 M215.6,74.2c0.4-1.3,3.3-4,7.5-5.7l-3.6-2.9c-0.8,0.9-2.5,2.8-4.6,5.3
		L215.6,74.2 M215.9,80.3c-0.7,1.6-0.2,3.5,1.2,4.5c0.1,0.1,0.2,0.2,0.3,0.3l0.1,0.1h7.1c0,0.2,0,0.4,0,0.5c0.1,3,2.6,5.3,5.6,5.3
		c2.2-0.1,4.1-1.4,4.9-3.4c2.7-0.8,4.2-3.7,3.4-6.4c-0.5-1.6-1.8-2.9-3.4-3.4c-1.1-2.8-4.2-4.2-7-3.1c-2,0.8-3.4,2.7-3.5,4.9
		c0,0.1,0,0.3,0,0.5H216v0.2 M211,101.2c0,1.3-0.8,2.5-2,3.1c5.5-2.5,11.1-4.6,16.8-6.3c-3.1,0-5.9-0.1-8.1-0.2c-2-0.1-4-0.1-6,0
		c-0.6,0.6-0.9,1.5-0.8,2.3c0,0.2,0,0.9,0,1.1 M208.6,104.6c-1.4,0.5-3.1,0.2-4.1-0.9c-0.3-0.4-1.8-1.6-2.8-1.3
		c-1.4,1.4-2.6,2.9-3.8,4.5c-1.3,1.8-3,3.9-5.1,6.3C197.9,109.9,203.2,107.1,208.6,104.6 M208.5,101.1c-0.2-1.4,0.1-2.8,0.7-4.1
		c-2.3,0.6-4.5,1.6-6.5,3c1.4,0.3,2.7,1,3.6,2.1c0.4,0.4,1,0.5,1.4,0.3C208.3,102.2,208.6,101.7,208.5,101.1 M242.7,46
		c-3.9,0-7.2,4-7.2,8.7c0.2,3.7,2.3,7,5.5,8.7c-1.6,2.2-3.3,4.3-5.1,6.3c-1.5-0.6-3.1-0.9-4.7-0.9c-5.1-0.1-10,1.9-13.5,5.6
		c-0.3,0.3-0.5,0.8-0.4,1.3s0.3,0.9,0.6,1.2c0.3,0.3,0.7,0.4,1.2,0.4s1-0.3,1.4-0.7c2.9-2.8,6.8-4.4,10.8-4.3c2.6,0.1,5.1,1.2,7,3
		c2,2,3.1,4.7,3,7.5c0,4.9-3,10.1-11.2,10.1h-0.9c-2.9,0-8.8,0-10,0s-1,3.4-0.1,3.4c2.5,0.1,5.9,0.1,8.8,0.1
		c17.3,0,28.6-5.4,30.6-6.5c1.5,1,6,4.1,7.6,4.1s6.1-3,7.6-4.1c1.6,1,9,4.9,24,6.1l1.6,0.1l-0.7-0.7l-0.7-1.3c0,0-0.9-0.7-1.2-1
		l-0.2-1.4l-0.3-0.1c-3.2-1.8-5.2-5.1-5.2-8.8c0-1.7,0.3-3.4,1.1-4.9l0.1-0.2l-0.1-0.1c-0.1-0.2-0.1-0.3-0.1-0.5
		c-0.1-1.5,1-2.7,2.4-2.9h0.4c0.6-1.6,1.7-2.9,3.1-3.7l2-1.6c0,0-3.4,0.9-3.6,1c-1.9-2-3.6-4.1-5.2-6.3c3.8-2.3,5.5-5,5.5-8.6
		c0-4.7-3.3-8.7-7.2-8.7c-4,0-6.5,3.7-6.5,7c0.3,3.2,1.3,6.3,3.1,9c-1,0.4-2.9,1.1-4.6,1.6c-0.9-2.6-2.2-5-3.7-7.3l-0.4-0.5
		l-0.5,0.5c-0.6,0.6-1.1,1.1-1.8,1.6l-0.4,0.3l0.3,0.4c1.3,1.9,2.3,4,3.1,6.1c-4.6,1.6-9.4,3.3-11.9,6.9c-2.4-3.4-7.3-5.4-11.9-6.9
		c0.8-2.2,1.8-4.2,3.1-6.1l0.3-0.4l-0.4-0.3c-0.6-0.5-1.2-1.1-1.8-1.6l-0.5-0.5l-0.4,0.6c-1.6,2.3-2.8,4.8-3.7,7.4
		c-1.6-0.5-3.1-1.1-4.6-1.6c1.7-2.7,2.8-5.8,3-9C249.1,49.9,246.4,46.1,242.7,46 M252.5,55.8c-0.5-0.6-1.1-1.2-1.6-1.9
		c-0.3,2.5-1.1,4.9-2.2,7.2l0.8,0.3C250.3,59.4,251.3,57.6,252.5,55.8 M273.9,60.8c-2.3,1.7-5.1,2.6-7.9,2.8c-2.9-0.1-5.7-1.1-8-2.9
		c-0.6,0.9-1.1,1.9-1.5,2.9c3.5,1.1,6.8,2.8,9.6,5.3c2.8-2.4,6-4.2,9.5-5.3C275.1,62.7,274.6,61.7,273.9,60.8 M283.3,61
		c-1.2-2.2-1.9-4.6-2.2-7c-0.5,0.6-1,1.3-1.6,1.9c1.2,1.7,2.1,3.6,2.9,5.5L283.3,61 M266,60.2c5.3,0,12.4-6.8,16.1-14.5h-4.7
		c-3,5.5-7.8,10.3-11.4,10.3s-8.4-4.8-11.4-10.3h-4.7C253.7,53.4,260.8,60.2,266,60.2 M242.7,43.4h46.1v-3.5h-46.1L242.7,43.4
		L242.7,43.4z M259.1,25.3c-6.9,0-11.5,4.9-11.5,12.1v0.1h4.3c0.2-4,2.3-8.1,7.9-8.1c2.6,0,4.9,1.4,6.3,3.6c1.4-2.2,3.7-3.5,6.3-3.6
		c5.2,0,7.7,4.1,7.9,8.1h4.3v-0.1c0-7.2-4.7-12.1-11.5-12.1c-1.5,0-3,0.3-4.4,0.8V13.4h6.5v-4h-6.5V2.9h-4.5v6.4h-6.5v4h6.5v13
		c-1.6-0.7-3.3-1.1-5.1-1.1 M301.8,59.8c-1.3-0.3-2.6-0.9-3.5-1.9c-0.9,2.4-2.5,4.4-4.6,5.9c1.2,1.6,2.3,2.9,3.1,3.8
		c1.2-0.4,2.5-0.6,3.8-0.7c1.4-1.1,2.7-2.3,4-3.6v-0.1C303.5,62.2,302.6,61,301.8,59.8 M295.3,88.8c-0.3-0.9-0.8-1.7-1.3-2.5l0.4-2
		c0.7-0.8,1.3-1.7,1.8-2.6l-0.9-0.9c-0.8,0-1.5-0.3-2.2-0.7c-0.2,0.8-0.4,1.7-0.4,2.5l0,0C292.8,85,293.7,87.2,295.3,88.8 M314.4,98
		c-2.2,0.1-5,0.2-8,0.2c5.7,1.7,11.2,3.8,16.6,6.2c-1.1-0.6-1.8-1.8-1.8-3c0-0.8,0-1.6-0.1-2.4l-1.4-1
		C318.4,97.9,316.1,97.9,314.4,98 M303.2,90.9c3.2,0.1,6.2,0,8.7,0c-0.4-0.5-0.7-0.9-0.9-1.5l-0.1-0.1l-2.2-0.3l-2.6-2.3
		c-0.2-0.2-0.5-0.3-0.7-0.4l-0.7-0.1l-0.9-1.1l-0.1-1.1l-1.5,1.8c0.1,0.3,0.1,0.7,0,1.1c0.2,1,0.3,2.1,0.4,3.3L303.2,90.9 M304,96.3
		l10.7-0.2c2,0,1.3-3.3-0.7-3.4s-9.6,0.1-9.6,0.1v0.7v0.1c0.1,0.3,0.2,0.6,0.2,0.9c0,0.4-0.1,0.7-0.2,1L304,96.3z M341.8,104.7
		c1.4,1.7,3,3.7,4.9,5.7c0.3-0.6,0.8-1.2,0.8-1.2l-2.1-0.7c-0.7-0.8-1.1-1.9-1-3l-0.4-0.7C343.2,104.8,342.4,104.8,341.8,104.7
		 M339.3,113.1c-2-2.3-3.7-4.4-5.1-6.2c-1-1.3-2.4-3.1-3.3-4l-1.6-0.4c-0.6,0.3-1.1,0.7-1.6,1.2c-1.1,0.9-2.6,1.3-4,1
		C329.1,107.1,334.3,109.9,339.3,113.1 M335.6,105.6c1.6,2.1,3.8,4.7,6.2,7.4l0.5,0.3l0.4-0.2c0.7-0.4,1.4-0.6,2.1-0.7h1.1l-0.8-0.9
		c-2.5-2.8-4.8-5.6-6.7-8C337.8,102.7,333.9,103.6,335.6,105.6 M302.4,55.5l-2.5,0.3c0.4,1.2,3,1.8,3.9,1.9c0,0.2,0.1,0.5,0.2,0.7
		c0.6,1.5,1.6,2.7,2.8,3.6l0.4,1.8c-1,1.6-2.3,2.9-3.8,3.9c-0.7,0.5-1.3,1-2,1.6c-1.1,1-1.9,1.9-2,2c-1.1,0.7-2,1.6-2.8,2.7
		c-0.5,0.9-0.8,1.9-0.7,3c-0.4,0.1-1.1,0.3-1.3-0.1c0-0.1,0-0.3,0-0.4c0.1-0.9-0.6-0.7-0.8,0c-0.1,0.3-0.1,0.7,0,1
		c0.4,0.9,1.6,1.3,2.5,0.9c0.4,0.5,0.8,1,1.3,1.4c0.4,0.3,0.8,0.7,1.1,1.2c0.4,1.1-1.2,3.4-2,4.3l-0.1,0.6c0.3,0.6,0.6,1.2,0.9,1.9
		c0.4,1.4,0.7,2.9,0.8,4.4l1.2,1.1l0.3,1l0.5,0.3c0.5,0.4,1.2,0.6,1.9,0.5c0.3-0.1,0.5-0.4,0.4-0.7v-0.1c-0.1-0.4-1.4-1.6-1.7-2.2
		c-0.3-0.4-0.6-0.7-0.9-1.1c-0.1-1.7-0.4-3.3-0.7-5c1-0.8,1.9-1.8,2.7-2.8c0.8-1.2,1.8-2.5,2.1-2.9c0.4,0.2,0.8,0.5,1,1
		c0.2,0.6,0.2,1.3,0.1,1.9l0.6,0.7c1.5,0.6,2.8,1.6,3.9,2.8L312,87l0.7,0.7h0.2c0.8,2,2.1,3.8,3.8,5.1l0.2,0.2l3.5,2.4
		c0.9,0.6,1.8,1.2,2.6,2c0.5,1.1,0.7,2.4,0.5,3.6c-0.1,0.5,0.2,1,0.7,1.3c0.5,0.1,1,0,1.4-0.3c1-0.8,2.2-1.5,3.4-2
		c1,0.2,2,0.4,3,0.7l4.2,1.1h0.1c1.8,0.4,3.6,0.4,5.4,0l0,0l0.2,0.4c1.1,0.2,2.1,0.1,3.1-0.3l1.6,2.7c0.1,0.5-0.1,2.1,0.5,2.1
		c0.7,0,3.3-0.9,3.5-0.9c0.1,0.3,0.1,0.7,0,1c0.1,1.4-0.9,1.5-0.8,3.4l-2.5,4.6c-1.2,0-1.8-0.7-3-0.7c-0.4,0.1-0.8,0.2-1.2,0.4v0.5
		h1.2c0.2,0,0.5,0.2,0.6,0.4c-0.8,0.2-1.6,0.6-2.2,1.2l0.2,0.5c0.7-0.4,1.4-0.6,2.1-0.7c0.4,0,0.7,0,1.1,0.1c-0.3,0.5-0.6,1-0.7,1.5
		l0.5,0.3c0.5-0.6,1.1-1.1,1.8-1.4c0.8,0.2,1.6,0.7,2,1.5l0.6-0.2c-0.3-1-0.9-2-1.6-2.8l2.5-4.3c0.3,0,0.7,0.1,0.8,0.4
		c0.4,0.6,0.9,1.4,0.9,1.4l1.4-3.1l-0.9,4.6c0.2,0.1,1.4,1.1,1.4,1.1l0,0l1.7-0.3h0.1c0,0,1.1-4.9,1.1-5.4s0-2.1,0-2.7h0.9
		c1.3,0,3.1-2.1,4-2.6c-0.4,1-0.7,1.9-0.9,3c0,0.7-0.1,1.4-0.2,2.1c-0.4,1.1-0.8,2.1-1.1,3.3c0,0.1,0,0.3,0,0.4
		c1.8-1.4,2.9-3.4,3.1-5.6v-0.8c0-1.8-0.5-3.5-1.6-4.9c-0.8-0.8-1.2-1.8-1.2-2.9c0-0.9,0.3-1.7,0.9-2.3c0.7-0.7,1.6-1.1,2.6-1.1
		c1.3,0.1,2.5,0.6,3.3,1.6c2.3,2.6,3.5,6.1,3.5,9.6v1.5c-0.1,0.9-0.3,1.8-0.5,2.7c1.8-2.9,3-6.1,3.8-9.4c1.5-6,0.4-8.3,0.1-11.5
		c-0.2-1.8-0.4-4.2-3-4.3c-2.7,0-2.4,6.7-6.6,6.9c-0.6-0.1-1.1-0.3-1.5-0.6l0.2-1.9c1.3-0.2,2.3-1.4,2.3-2.7c0-0.3-0.1-0.5-0.2-0.8
		c1.3-0.8,2-2.3,1.9-3.8l2.2-0.7l-1.3-0.7l0.3-1l-1.2-0.2l0.2-1.3h-1l-0.3-1.5l-1.5,1.8c-0.5-0.2-1.1-0.2-1.6,0
		c-0.7-0.1-1.4,0.2-1.9,0.8l-0.4,0.9c1.4-0.4,2,0.2,2,0.9c0.1,0.7,0.4,1.3,0.8,1.9l-0.5,0.6c-0.9-0.4-1.8-0.6-2.7-0.6
		c-1,0.2-2,0.7-2.8,1.4c-0.6-0.1-1.2,0.1-1.6,0.4l-0.5,0.4c-0.5-0.4-0.8-1-0.8-1.6c0-0.9,2.5-1.7,2.9-3.4c-1.4,0.7-2.7,1.5-3.9,2.5
		c-1.6,1.1-2,1.9-2,6.4c0,4.9-0.8,6.3-0.8,6.3c0.1,1.4,0.2,2.7,0.1,4.1c-1.1,1.2-2.4,2.3-3.8,3.3l-1.6-2.9c0.1-0.2,0.1-0.5,0.1-0.7
		c0.1-0.1,0.3-0.1,0.4-0.3c1.1-0.9,2-2.1,2.6-3.4c0.9-2.1,1.2-4.3,1-6.5c0-6.4,0.3-6.4,6.7-9.8l-1.3-7.8l-1.6,0.3
		c-1.4,0-2.7-0.3-4-1c-1-0.5-3.4-2.3-3.1-3.5c0.7-2.5-0.6-5.1-3-6c-2.3-1.2-5.2-0.5-6.7,1.6c-0.5,0.4-1.2,0.6-1.8,0.5
		c-3,0-5.7-1.7-7-4.3l-5.3,3.1c-0.7-0.9-1.6-1.7-2.5-2.4c-0.8-0.5-2-2-3.1-1.6c-0.8,0.7-1.6,1.4-2.4,2.3c-0.3,0.3-1.2,1.4-1.6,1.8
		c-1-1.3-2.2-2.5-3.6-3.5c-0.5-0.3-1-0.7-1.4-1.2c0-0.3,3-0.9,2.6-2.2c-0.2-0.8-1.8-0.9-2.2-0.9c-0.6-0.5-1.3-0.8-2.1-0.9l-1.1-2.6
		l-0.4,1.6l-1.2-1.1l-0.3,1.8l-1.5-0.7l0.5,1.4l-1.9-0.3L302.4,55.5z M369.2,138.4c0.5-0.9,1.5-1.5,2.6-1.6
		c-0.3-0.5-0.8-0.8-1.4-0.8l-5.7-2.4C366.7,135.5,367.4,136.2,369.2,138.4 M369.1,107.9c0-0.4,0-0.9,0-1.3c0.1-3.1-1-6-3-8.4
		c-0.5-0.6-1.2-1-1.9-1c-0.5,0-0.9,0.2-1.2,0.5c-0.3,0.3-0.4,0.7-0.4,1.1c0,0.6,0.3,1.2,0.7,1.6c1.4,1.7,2.2,3.9,2.1,6.2
		c0,0.3,0,0.6,0,0.9c-0.3,2.8-1.7,5.4-4,7.1c-2.1,1.6-4.6,2.4-7.3,2.5h-0.8c-0.1,0-0.3,0-0.4,0L352,117c0.3,1,0.2,2-0.2,2.9
		c-0.7,0.8-3.1,0-3.1,0l-0.3,0.3l1.4,1c3.2,2.8,6.7,5.4,10.3,7.6l0.1,0.1l6.3,3.2l5.4,2.3c1,0.4,1.9,0.8,2.8,1.3
		c2.4,1.4,3.5,2.8,3.5,4.4c0.1,1.4-0.9,2.6-2.3,2.8c-1.1-0.1-1.8-1-1.8-2.1c0-0.1,0-0.1,0-0.2c-0.1-1-1-1.7-2-1.6
		c-0.9,0.1-1.6,0.8-1.6,1.6c-0.2,3,2,5.5,5,5.8c0.2,0,0.3,0,0.5,0c3.3-0.2,5.9-3,5.8-6.3c0-2.9-1.7-5.4-5.1-7.4
		c-1-0.6-2.1-1.2-3.3-1.6l-5.2-2.2l-2.2-1.1h1.4c3.5,0,11.9,0,11.9-6.2c0-1-0.8-1.8-1.8-1.7c-0.5,0-0.9,0.2-1.3,0.5
		c-0.3,0.3-0.5,0.8-0.5,1.2c0,1.3-0.9,2.7-8.3,2.7c-4.2-0.2-8.2-1.4-11.7-3.6c3-0.3,5.8-1.5,8.1-3.4
		C366.8,115,368.7,111.6,369.1,107.9 M377.7,148.6c15.6,21.5,24,47.4,24.2,74c0.4,72.4-60,131.7-134.9,132.2
		c-74.8,0.4-136.2-58-136.6-130.5c-0.1-27.1,8.3-53.6,24.2-75.5c-4.2-0.8-7.2-4.5-7.1-8.8c0-7.1,7.9-10.5,8.5-10.8
		c-3.4-1-5.8-4.1-5.8-7.7c0-2.5,2.1-4.5,4.6-4.4c2.2,0,4.1,1.7,4.4,4c1.8,0.5,3.7,0.7,5.6,0.6c1.5,0,3-0.2,4.4-0.7
		c-0.9-0.5-8.9-5-8.9-14.3c-0.1-4.8,2.1-9.4,5.9-12.4H153v-17h19c0.4-3,2.7-6,7.1-9.1l0.7-0.5c0.5-0.3,1-0.7,1.5-1.1
		c0-0.4-0.1-0.8-0.1-1.2c-0.1-3.4,2-6.4,5.1-7.7c3.5-1.7,7.6-0.9,10.2,2c2.9-0.7,5.9-1.2,8.9-1.4c2-0.1,3.9,0.4,5.6,1.4l12.2-14.1
		l0.6,0.5l5.9,4.9l3.1,2.5c0.3-4.3,3.3-8,7.4-9.3v-6.5h4c0-9.2,6.1-15.5,14.8-15.5c0.7,0,1.4,0.1,2,0.2v-6.1h-6.5V6.4h6.5V0h10.6
		v6.4h6.5v9.8h-6.5v5.9c0.5-0.1,0.9-0.1,1.4-0.1c8.6,0,14.8,6.5,14.8,15.4v0.1h3.4V44c3.9,0.9,6.9,4.1,7.7,8c0,0,6.7-5.2,7-5.5
		c0.3-0.2,0.7-0.1,0.9,0.2l0,0c0.2,0.3,1.5,3.6,2.1,4.8c0.3,0.1,0.6,0.3,0.9,0.5c2.3,0,4.2,1.8,4.2,4.1v0.1c0,0.5-0.1,1-0.4,1.4
		c0.6-0.8,1.4-1.4,2.3-1.8c2.2-0.8,3.8,0.1,7.4,2.9l5.9-3.4l2.5,4.2c0.5,0.5,1,0.8,1.6,1c0.5,0.1,1.1,0.3,1.6,0.4
		c2.5-2.7,6.6-3.5,9.9-1.9c3,1.3,5,4.2,4.9,7.5c0,0.4,0,0.7,0,1.1c0.4,0.4,0.8,0.7,1.2,1c0.7,0.3,1.5,0.6,2.2,0.7l3.9-0.7l0.8-0.1
		l1.2,7.1c0.2,0.1,0.5,0.3,0.7,0.4c0.2,0.2,0.4,0.4,0.6,0.7c0.9-0.4,1.8-0.6,2.7-0.6l3-3.1c0.2-0.2,0.5-0.2,0.7,0l0.1,0.1
		c0.2,0.3,6.5,9.6,6.5,9.6c3.7,1.2,4.1,5.3,4.2,6.8l0.2,1.9c0.3,1.4,0.4,2.9,0.4,4.3c0,2.1-0.3,4.2-0.8,6.3c-1,4.3-2.8,8.4-5.2,12.1
		c-1.1,1.9-3.7,2.6-4.7,3.5c-1.3,1.3-2.8,2.4-4.4,3.4c1.4,0.4,2.9,0.6,4.3,0.7c1.9,0.1,3.8-0.1,5.6-0.6c0.1-1,0.6-1.9,1.3-2.6
		c0.9-0.8,2-1.3,3.3-1.3c2.4,0,4.5,1.9,4.5,4.3l0,0c0,3.7-2.1,6.3-5.9,7.7c0.7,0.3,1.4,0.7,2.1,1.1c5.3,3.3,6.5,7.1,6.5,9.8
		c-0.1,4.2-3,7.8-7.1,8.7 M268,317.6c52.3-0.9,94.6-42,95.3-92.6H268V317.6 M268,221.8h95.3c-1-50.5-43.2-91.2-95.3-92.1V221.8z
		 M264.7,129.7c-52.1,0.8-94.4,41.6-95.4,92.1h95.4V129.7L264.7,129.7z M264.7,225h-95.5c0.7,50.7,43.1,91.8,95.4,92.6L264.7,225
		L264.7,225z M366.6,223.7c0,53.5-45,97.1-100.3,97.1S166,277.2,166,223.7s45-97.1,100.3-97.1S366.6,170.1,366.6,223.7 M186.2,294.1
		c-0.4-0.4-1.2-1.4-2.1-2.5c-0.1-0.2-0.4-0.3-0.6-0.2l0,0c-0.1,0.2-0.1,0.4,0.1,0.5c1.2,1.3,1.2,1.6-1.3,3.7l-8.1,6.9
		c-0.2,0.2-0.3,0.2-0.9-0.4c-1.4-1.6-1.1-3.4,0.8-4.9c1.2-1.2,3.1-1.3,4.4-0.1c0.4,0.4,0.6,0.4,0.7,0.3c0.2-0.1-0.2-0.6-0.3-0.8
		c-1.8-2.3-5.2-2.6-7.4-0.8c-0.1,0-0.1,0.1-0.2,0.1c-2,1.6-1.3,4.2,0.5,6.3c0.7,0.7,1.6,1.6,2.1,2.3c0.5,0.6,1.2,1.5,2,2.3
		c0.3,0.3,0.5,0.4,0.6,0.2c0.1-0.1,0.2-0.3,0-0.6c-0.9-1-1-1.4,0.2-2.3l7.9-6.7c2.1-1.7,2.5-1.7,3.3-0.9c0.2,0.2,0.4,0.3,0.5,0.2
		c0.1-0.1,0.2-0.3-0.1-0.6C187.5,295.5,186.6,294.5,186.2,294.1 M160.9,286.3c1.3,2,3.9,3.7,8.4,1c3.8-2.2,5.5-6,3.4-9.4
		c-0.8-1.2-3.1-3.7-8.4-0.7C160.2,279.6,159.1,283.4,160.9,286.3 M174.2,277.9c2.6,3.5,1.8,8.5-1.8,11.1c-0.3,0.2-0.6,0.4-0.9,0.6
		c-4.1,2.5-9.3,1.2-11.8-2.9c-0.1-0.1-0.1-0.2-0.2-0.4c-2.8-4.5-1.9-8.9,2.3-11.4c4.1-2.6,9.5-1.4,12.1,2.7
		C174.1,277.7,174.1,277.8,174.2,277.9 M166.7,267.2c0.1,0.3,0.2,0.4,0.4,0.3c0.2,0,0.3-0.3,0.1-0.6c-0.4-1-0.8-2-0.9-2.1
		c-0.1-0.4-0.4-1.2-0.8-2.5c-0.1-0.4-0.3-0.5-0.6-0.4s-0.2,0.2,0,0.5c0.4,1.2,0.3,1.8-1.6,2.6l-8.2,3l7-14.3
		c0.2-0.3,0.2-0.6,0.2-0.9c-0.1-0.2-0.4-0.3-0.9-0.1l-12.9,4.3c-1.3,0.4-1.7,0.4-2.1-0.6c-0.1-0.3-0.3-0.5-0.4-0.4s-0.2,0.3-0.1,0.7
		c0.4,1,0.7,1.7,0.8,1.9s0.4,1.4,0.8,2.4c0.2,0.4,0.3,0.6,0.5,0.6c0.2-0.1,0.2-0.3,0.1-0.5c-0.5-1.3-0.3-1.7,1.2-2.3l8.9-3.3
		l-7.3,14.1c-0.2,0.4-0.3,0.8-0.2,1.2c0.1,0.2,0.4,0.2,0.9,0l12.5-4.2C166.2,265.8,166.4,266.2,166.7,267.2 M147.5,251
		c0.2,0,0.5-0.1,0.4-0.4c0-0.2-0.2-0.3-0.4-0.3l0,0c-0.8,0-1.3-0.4-1.6-2l-0.6-3l10.6-1.8c3.4-0.6,3.7-0.4,3.9,0.7
		c0,0.2,0.1,0.4,0.4,0.4c0.2-0.1,0.1-0.2,0.1-0.5c-0.1-0.8-0.4-2.1-0.5-2.6s-0.3-1.9-0.5-3.3c0-0.3-0.2-0.5-0.4-0.5
		s-0.3,0.3-0.2,0.5c0.3,1.6,0.1,1.9-3.4,2.5l-10.4,1.7l-0.4-2.5c-0.3-1.9,0-2.4,0.9-2.6c0.4-0.1,0.5-0.2,0.5-0.4
		c-0.1-0.2-0.3-0.3-0.5-0.2l-2.5,0.3c-0.4,0-0.6,0.2-0.5,0.4c0.3,0.6,0.5,1.3,0.6,2l1.6,9.3c0.1,0.6,0.1,1.3,0,1.9
		c0,0.2,0.2,0.2,0.6,0.3C145.8,251.1,146.7,251.1,147.5,251 M142.6,232.6c0-1.2,0.3-1.3,1.1-1.4c0.8-0.1,1.3-0.1,4.6-0.3l3.8-0.2
		c2.1-0.1,3.8-0.2,4.7-0.1c0.5-0.1,1,0.2,1.2,0.7c0,0.2,0,0.3,0,0.5s0.1,0.5,0.3,0.4c0.2,0,0.3-0.2,0.3-0.5c0-0.8-0.2-2.2-0.2-2.7
		s0-1.9-0.1-3.3c0-0.4-0.2-0.5-0.4-0.5s-0.3,0.2-0.3,0.4l0,0c0,1.2,0,1.8-0.9,1.9s-2.6,0.2-4.7,0.3l-3.8,0.2
		c-3.3,0.2-3.8,0.2-4.5,0.2c-0.6,0.1-1.1-0.2-1.3-0.8c0-0.2,0-0.3,0-0.5s-0.1-0.4-0.3-0.4c0,0,0,0-0.1,0c-0.2,0-0.2,0.2-0.2,0.6
		c0,0.8,0.2,2,0.2,2.6s0,1.9,0.1,2.7c0,0.4,0.1,0.6,0.3,0.6C142.5,233.1,142.6,232.9,142.6,232.6
		C142.6,232.7,142.6,232.7,142.6,232.6 M142,220.3c0.2,0,0.3-0.1,0.3-0.5c0.1-1.5,0.4-1.6,2.6-1.5l9.6,0.7c3,0.2,3.1,0.5,3,1.6
		c0,0.3,0,0.4,0.3,0.5s0.3-0.1,0.3-0.5c0-0.8,0.1-2.2,0.1-2.7s0.2-1.9,0.3-3.3c0-0.4-0.1-0.6-0.3-0.6s-0.3,0.2-0.3,0.4
		c-0.1,1.6-0.1,1.9-3.3,1.6l-3.4-0.2c-0.1,0-0.1,0-0.1-0.2s0.2-2.4,0.3-3c0.1-0.7,0.7-1.1,1.4-1l0,0c0.2,0,0.4-0.1,0.4-0.2l0,0
		c0-0.3-0.2-0.3-0.5-0.3c-1.6-0.1-2.4-0.4-2.9-0.5c-0.1,0-0.2,0-0.3,0.2l0,0c0.3,0.4,0.5,0.8,0.5,1.3l-0.2,3.5c0,0.1,0,0.1-0.1,0.1
		l0,0l-6.3-0.4c-0.1,0-0.1-0.1-0.1-0.1l0.3-3.2c0-0.5,0.2-1,0.7-1.2c0.3-0.1,0.5-0.1,0.8-0.1s0.5-0.1,0.5-0.3s-0.2-0.3-0.4-0.3
		c-0.3,0-1.5-0.2-1.7-0.2l-0.8-0.2h-0.1c-0.2,0-0.3,0.1-0.3,0.2c0,0.1,0,0.2,0,0.2v0.1c0,0.3,0,0.6,0,0.9c0,0.5-0.3,4.7-0.4,5.5
		s-0.2,1.9-0.3,3C141.6,220,141.6,220.2,142,220.3 M143.9,204.1c0.2-1.1,0.6-1.2,1.4-1.1c0.8,0.1,1.3,0.2,4.5,0.8l3.7,0.7
		c2,0.4,3.7,0.7,4.5,0.9s1,0.6,0.8,1.4c0,0.2,0,0.4,0.2,0.5s0.4-0.1,0.5-0.5c0.1-0.8,0.3-2.2,0.4-2.6c0.1-0.5,0.4-1.9,0.7-3.3
		c0-0.4,0-0.6-0.2-0.6s-0.4,0.2-0.4,0.4c-0.2,1.2-0.5,1.6-1.4,1.6s-2.6-0.4-4.6-0.8l-3.7-0.7c-3.3-0.6-3.8-0.7-4.4-0.8
		c-0.6,0-1-0.5-1-1.1c0-0.2,0-0.3,0.1-0.4c0.1-0.2,0-0.4-0.2-0.5c0,0,0,0-0.1,0c-0.2,0-0.3,0.1-0.4,0.5c-0.2,0.8-0.3,2-0.4,2.6
		c-0.1,0.5-0.4,1.9-0.6,2.7c-0.1,0.4,0,0.6,0.1,0.7C143.8,204.5,143.9,204.4,143.9,204.1C144,204.2,144,204.1,143.9,204.1
		 M153.4,194c5.8,2,9.9-1.6,11.7-6.5c0.5-1.2,0.8-2.5,0.8-3.8c0-0.3-0.2-0.6-0.4-0.8c-0.8-0.5-1.7-1-2.6-1.4c-0.2-0.1-0.4,0-0.4,0.1
		l0,0c-0.1,0.2,0,0.3,0.3,0.5c1.5,1,1.9,2.2,0.9,5c-1.2,3.5-4.6,5.4-9.4,3.8c-3.8-1.4-5.8-3.9-4.4-7.7c0.8-2.3,2.6-4.4,4.7-3.7
		c0.4,0.1,0.6,0,0.7-0.1s-0.1-0.4-0.5-0.4c-0.3,0-1.5-0.6-2.2-0.8l-1.1-0.5c-0.2-0.1-0.4,0.1-0.5,0.3c-0.9,1.5-1.6,3.1-2.3,4.7
		c-1.6,4.7-0.3,9.8,4.7,11.4 M154.4,172.1c0.5-1.1,0.9-1,1.6-0.7c0.7,0.3,1.2,0.5,4.1,1.9l3.4,1.6c1.4,0.6,2.8,1.4,4.1,2.1
		c0.8,0.5,0.8,0.8,0.4,1.6c-0.1,0.2-0.2,0.4,0,0.5s0.4,0,0.6-0.3c0.4-0.8,0.9-2,1.2-2.4c0.2-0.4,1-1.6,1.6-2.9
		c0.2-0.3,0.1-0.5,0-0.6c-0.2-0.1-0.4,0.1-0.5,0.3l0,0c-0.6,1-1,1.5-1.8,1.2s-2.4-1.1-4.2-2l-3.4-1.6c-2.9-1.4-3.5-1.6-4-2
		c-0.5-0.2-0.8-0.8-0.6-1.3c0-0.1,0.1-0.2,0.2-0.3c0.2,0,0.4-0.2,0.3-0.4c0-0.2-0.2-0.4-0.4-0.3c-0.2,0-0.4,0.2-0.5,0.4
		c-0.4,0.7-0.9,1.8-1.2,2.3c-0.2,0.5-1,1.6-1.3,2.4c-0.2,0.4-0.2,0.6,0,0.7c0.2,0.1,0.4,0,0.5-0.2l0,0 M167.2,157.8L167.2,157.8
		L167.2,157.8l3.6,5.2l2.7-3.6L167.2,157.8z M163.9,155.8c-0.4-0.3-0.5-0.7-0.5-1.2c0.3-0.2,0.7-0.2,1,0c1.3,0.2,10.4,2.3,13.9,3
		c1.2,0.3,2.5,0.4,3.1-0.4c0.2-0.2,0.3-0.3,0.5-0.2s0.2,0.3-0.4,1.1c-0.3,0.4-0.9,1.2-1.3,1.6s-1.1,1.6-1.3,2
		c-0.2,0.3-0.6,0.6-0.7,0.5c-0.1-0.1-0.1-0.3,0-0.5c0.2-0.3,0.3-0.7,0.4-1.1l-3.8-0.9c-0.1,0-0.2,0-0.2,0.1l-3.1,4.1
		c-0.1,0.1-0.1,0.2,0,0.2l1.3,1.9c0.3,0.4,0.6,0.7,0.9,1c0.2,0.2,0.5,0.2,0.9-0.4c0.4-0.6,0.4-0.5,0.6-0.4c0.2,0.1,0.2,0.3,0,0.6
		c-0.4,0.6-1,1.3-1.4,1.8c-0.1,0.2-0.8,1.2-1.4,2.1c-0.2,0.3-0.4,0.4-0.6,0.2s-0.1-0.3,0-0.4c0.8-0.9,0.7-2.2-0.2-3l0,0L163.9,155.8
		z M180.3,136.8c1.1-0.9,1.4-0.9,2.9,0.8l4.1,4.7c3.3,3.7,6.4,4,9.9,1.2c3.8-3.1,3.1-6.5,0-10.2l-3.5-4.1c-1.4-1.6-1.6-1.9-0.6-2.7
		c0.3-0.2,0.3-0.4,0.2-0.6s-0.3,0-0.6,0.2c-0.7,0.5-1.3,1.1-1.8,1.6c-0.6,0.5-1.1,0.8-2,1.5c-0.3,0.2-0.4,0.4-0.2,0.6
		c0.1,0.1,0.3,0.1,0.6,0c1.2-1,1.5-0.7,2.9,0.8l3.8,4.4c2.7,3.3,3.3,5.3,0.9,7.3c-2.8,2.2-5,0.7-7.2-1.8l-4-4.7
		c-1.4-1.6-1.4-2-0.5-2.7c0.2-0.1,0.2-0.3,0.1-0.5c-0.1-0.1-0.3-0.1-0.7,0.1c-0.6,0.5-1.4,1.2-2,1.7c-0.9,0.7-1.6,1.2-2.5,1.9
		c-0.3,0.2-0.4,0.4-0.2,0.6c0.1,0.2,0.3,0.1,0.6,0 M206.6,132.9c1,1.9,0.7,2.1-0.3,2.6c-0.3,0.2-0.4,0.3-0.3,0.4
		c0.1,0.1,0.3,0.2,0.7,0c1-0.5,1.9-1.1,2-1.1c0.2-0.1,1.1-0.6,2.4-1.2c0.3-0.2,0.5-0.4,0.4-0.6s-0.2-0.1-0.5,0
		c-1.2,0.6-1.8,0.6-2.9-1.2l-4.4-7.4l15.7,4.4c0.3,0.1,0.6,0.1,0.9,0c0.2-0.1,0.2-0.4,0-0.8l-6.3-11.6c-0.6-1.2-0.7-1.6,0.3-2.1
		c0.3-0.2,0.4-0.3,0.3-0.5c-0.1-0.1-0.4-0.1-0.7,0c-0.9,0.5-1.6,1-1.9,1.1c-0.2,0.1-1.3,0.6-2.3,1.2c-0.4,0.2-0.5,0.4-0.5,0.6
		s0.3,0.2,0.5,0c1.3-0.7,1.6-0.6,2.5,0.8l4.8,7.9l-15.5-4.7c-0.4-0.1-0.9-0.1-1.3,0c-0.2,0.1-0.2,0.4,0,0.8L206.6,132.9z M221,112.1
		c1.1-0.4,1.4-0.1,1.7,0.6s0.5,1.2,1.6,4.1l1.3,3.4c0.6,1.4,1.1,2.8,1.5,4.3c0.2,0.9,0,1.1-0.8,1.4c-0.2,0.1-0.4,0.2-0.3,0.4
		s0.3,0.3,0.6,0.1l2.5-1c0.5-0.2,1.9-0.6,3.3-1c0.4-0.1,0.5-0.3,0.4-0.5s-0.3-0.2-0.5-0.1l0,0c-1.1,0.4-1.8,0.5-2.1-0.3
		s-1-2.4-1.7-4.3l-1.4-3.7c-1.1-3-1.3-3.5-1.5-4.1c-0.3-0.9,0-1.2,0.9-1.5c0.2,0,0.4-0.2,0.3-0.5c-0.1-0.3-0.3-0.2-0.6,0
		c-0.8,0.3-1.9,0.7-2.5,0.9l-2.7,0.9c-0.4,0.1-0.6,0.3-0.5,0.5s0.3,0.3,0.5,0.2l0,0 M231.1,108.1c1-0.3,2.2,0.2,2.7,1.1l8.4,11.7
		c0.2,0.4,0.5,0.7,0.9,0.7c0.4-0.3,0.7-0.7,0.6-1.2l2.9-13.5c0.4-1.6,0.6-2.2,1.6-2.4c0.3,0,0.4-0.2,0.4-0.4c0-0.2-0.3-0.3-0.6-0.2
		c-0.6,0.1-1.2,0.3-2,0.5s-1.2,0.2-2.3,0.4c-0.5,0.1-0.7,0.3-0.6,0.5c0.1,0.2,0.3,0.2,0.5,0.1c0.7-0.1,1,0,1.1,0.2s0.1,0.5,0,0.7
		l-1.9,10.8l-5.6-8.3c-0.3-0.4-0.6-0.9-0.8-1.4c-0.1-0.5,0.5-0.6,0.8-0.7c0.4-0.1,0.4-0.2,0.4-0.4c0-0.2-0.3-0.2-0.7-0.2
		c-1.1,0.2-2.1,0.5-2.6,0.6s-2,0.3-3.1,0.6c-0.4,0-0.6,0.2-0.6,0.4S230.8,108.1,231.1,108.1 M253.2,104.2c1.2,0,1.6,0.2,1.8,1.1
		c0.1,0.9,0.1,1.2,0.3,4.4l0.2,3.7c0,1.1,0.1,2.1,0.2,3c0.1,2.3,0,2.6-1.2,2.7c-0.3,0-0.4,0.1-0.4,0.3s0.2,0.3,0.6,0.3
		c0.9,0,2.2-0.2,2.7-0.2c2.3-0.1,4.4-0.2,6.5-0.3c0.4,0,0.7-0.3,0.7-0.7c0.1-0.8,0.1-1.6,0.1-2.3c0-0.3,0-0.5-0.3-0.5
		s-0.3,0.2-0.3,0.4c0,0.6-0.3,1.2-0.8,1.5c-0.9,0.3-1.8,0.4-2.7,0.4c-1.6,0.1-1.8,0-1.9-1.4c0-0.6-0.2-2.5-0.3-4.9
		c0-0.1,0.1-0.1,0.1-0.1l0,0l3-0.1c0.7,0,1.3,0.5,1.3,1.1c0,0.1,0,0.2,0,0.2c0,0.2,0.1,0.3,0.3,0.3c0.3,0,0.3-0.3,0.3-0.5
		c-0.1-1-0.1-2,0-2.9c0-0.1-0.1-0.3-0.2-0.3l0,0c-0.2,0.1-0.4,0.3-0.5,0.4c-0.5,0.3-1.2,0.5-1.8,0.5c-0.9,0-2,0.1-2.3,0.1
		s-0.2,0-0.2-0.1l-0.3-5.5c0-0.1,0-0.1,0.1-0.1l0,0c4.2-0.3,4.4-0.2,4.6,1.2c0,0.1,0,0.4,0.3,0.4c0.2,0,0.3-0.2,0.3-0.4l0,0
		c0-0.9,0-1.8,0.1-2.7c0-0.2-0.1-0.3-0.3-0.3c-0.4,0.2-0.8,0.3-1.3,0.3l-5.4,0.3c-0.6,0-2,0-3.2,0.1c-0.4,0-0.6,0.1-0.5,0.3
		C252.7,104.1,252.8,104.2,253.2,104.2 M274.4,111.1c0,0.3,0.5,0.5,1.6,0.7c2,0.2,2.8-1.2,3-3.1c0.4-1.8-0.7-3.5-2.5-3.9
		c-0.1,0-0.3-0.1-0.4-0.1c-1.2-0.1-1.3,0-1.3,0.2L274.4,111.1z M269.5,118.9c-0.4,0-0.5-0.2-0.5-0.4s0.2-0.3,0.5-0.2
		c1.2,0.1,1.5-0.4,1.6-2.4l1-9.9c0.2-1.9,0.1-2.2-1.5-2.3c-0.3,0-0.5-0.1-0.4-0.3c0.1-0.2,0.2-0.3,0.6-0.2c1.2,0.1,2.5,0.3,2.9,0.3
		c0.7,0,2.4,0.1,3,0.2c2.8,0.2,5.5,1.4,5.2,4.3c-0.3,1.9-1.5,3.6-3.3,4.4c3.8,6.2,5.2,7.3,6.9,7.5c0.2,0,0.3,0.1,0.4,0.3l0,0
		c0,0.2-0.2,0.3-0.6,0.2l-2.1-0.2c-2.4-0.2-3.5-1.5-5-3.9c-0.6-0.9-1.1-2-1.9-3c-0.1-0.1-0.2-0.2-0.3-0.2l-1.9-0.2l0,0l-0.3,3.3
		c-0.2,2.2,0,2.6,1.6,2.8c0.2,0,0.3,0.1,0.3,0.3l0,0c0,0.2-0.2,0.3-0.5,0.3l-3.3-0.4C271.7,119,270.3,119,269.5,118.9 M290.9,122
		c2.8,0.7,5.8-0.4,6.5-3.3c1.2-4.8-4.9-6.9-4.2-10c0.3-1.2,1.5-1.8,2.7-1.5c0.1,0,0.1,0,0.2,0.1c1.4,0.2,2.4,1.5,2.2,2.9
		c-0.1,0.2,0,0.4,0.2,0.5l0,0c0.2,0,0.4-0.1,0.5-0.6c0.4-1.6,0.6-2.2,0.7-2.4c0-0.2-0.1-0.3-0.2-0.4c-0.9-0.5-1.8-0.9-2.8-1.1
		c-3-0.7-5.4,0.5-6,2.8c-1.2,4.6,4.9,6.6,4,10.2c-0.4,1.3-1.9,2.1-3.2,1.6c0,0,0,0-0.1,0c-1.6-0.2-2.7-1.7-2.5-3.4
		c0-0.1,0-0.2,0.1-0.4c0.1-0.2,0-0.4-0.2-0.5l0,0c-0.2,0-0.4,0.1-0.5,0.5l-0.8,2.8c-0.2,0.6,1.2,1.5,3.3,2 M300.9,124.5
		c0.8,0.3,2.1,0.7,2.6,0.8c0.5,0.2,1.8,0.7,3.2,1.2c0.3,0.1,0.6,0,0.7-0.1c0-0.2-0.1-0.4-0.3-0.4c-1.1-0.4-1.6-0.7-1.4-1.5
		s0.8-2.4,1.6-4.3l1.3-3.4c1.1-3,1.4-3.5,1.6-4.1s0.8-0.9,1.3-0.7c0.1,0,0.2,0.1,0.3,0.1c0.2,0.1,0.4,0.1,0.5-0.1l0,0
		c0-0.2-0.1-0.3-0.5-0.4l-2.5-0.8l-2.6-1c-0.4-0.1-0.6-0.1-0.7,0c0,0.2,0.1,0.4,0.3,0.4l0,0c1.1,0.4,1.2,0.8,0.9,1.5
		c-0.2,0.8-0.4,1.2-1.6,4.2l-1.3,3.4c-0.7,1.9-1.3,3.4-1.7,4.2c-0.4,0.7-0.8,0.9-1.6,0.5c-0.2,0-0.5-0.1-0.5,0.1
		C300.5,124.1,300.5,124.3,300.9,124.5 M317.6,126.6c-1.4,2.4-1.4,2.9,1,4.2c4,2.2,6.9,1.6,9.2-2.5c2.3-4.2,0.6-7.9-3.5-10.1
		c-1.3-0.7-1.4-0.6-1.8,0L317.6,126.6 M311.4,127.8c0.1-0.2,0.4-0.1,0.8,0.1c0.8,0.4,1.1,0.3,3.8-4.3l1.9-3.3
		c1.6-2.8,1.8-3.3,2.2-3.9s0.1-1.2-0.9-1.8c-0.3-0.1-0.4-0.3-0.3-0.5s0.3-0.2,0.7,0c1,0.5,2.1,1.3,2.7,1.6s1.8,0.9,3,1.5
		c5.7,3.1,8.4,7,5.6,11.9c-2.8,4.9-8,5.2-12.7,2.6c-1.4-0.8-2.9-1.9-3.9-2.4c-0.5-0.2-1.6-0.8-2.4-1.3
		C311.4,128.1,311.3,127.9,311.4,127.8 M336.7,136.7l3.5,2.9l2.2-6v-0.1l0,0L336.7,136.7z M328.7,137.2c0.9,0.8,2.2,0.9,3.1,0.1
		l12.8-6.6c0.3-0.3,0.8-0.4,1.2-0.2c0.2,0.3,0.2,0.7,0,1c-0.4,1.2-3.3,9.9-4.3,13.2c-0.4,1.2-0.7,2.4,0.1,3.1
		c0.2,0.2,0.3,0.3,0.1,0.5c-0.1,0.2-0.4,0.1-1.1-0.5c-0.4-0.3-1.1-1-1.5-1.4c-0.5-0.3-1.6-1.2-1.9-1.4s-0.5-0.6-0.4-0.8
		c0.1-0.1,0.3-0.1,0.5,0c0.3,0.3,0.7,0.4,1.1,0.5l1.3-3.6c0-0.1,0-0.2-0.1-0.2l-4-3.3c-0.1-0.1-0.2-0.1-0.2,0l-2.1,1.1
		c-0.4,0.2-0.7,0.5-1.1,0.8c-0.2,0.2-0.2,0.5,0.3,0.9s0.5,0.5,0.3,0.6c-0.2,0.2-0.3,0.1-0.6,0c-0.5-0.4-1.2-1.1-1.7-1.5
		c-0.2-0.1-1.1-0.9-2-1.6c-0.3-0.2-0.4-0.4-0.2-0.6C328.5,137.1,328.6,137.1,328.7,137.2 M350.6,151.4c-2.2,1.7-2.5,2.2-0.7,4.3
		c2.9,3.4,5.8,3.8,9.5,0.9s3.5-7.1,0.5-10.7c-1-1.1-1.1-1.1-1.6-0.6L350.6,151.4 M345.1,150.7c0.6,0.7,1,0.6,5.1-2.7l2.9-2.3
		l3.5-2.8c0.7-0.5,0.6-1.1-0.2-2c-0.2-0.3-0.2-0.4-0.1-0.6s0.4,0,0.6,0.3c0.7,0.8,1.5,1.9,1.9,2.4s1.4,1.5,2.2,2.5
		c4.2,4.9,5.3,9.5,0.8,13.1s-9.4,2.1-12.9-2c-1-1.2-2-2.8-2.7-3.6c-0.3-0.4-1.2-1.4-1.8-2c-0.2-0.3-0.3-0.5-0.1-0.6
		S344.8,150.3,345.1,150.7 M368,187.2c0.2,0.2,0.6,0.3,0.9,0.3c1-0.2,1.9-0.4,2.9-0.7c0.2,0,0.3-0.2,0.3-0.4l0,0
		c-0.1-0.2-0.2-0.2-0.6-0.2c-1.8,0.2-2.9-0.4-4.2-3.1c-1.5-3.4-0.4-7,4.2-8.9c3.8-1.4,6.9-0.9,8.6,2.7c1,2.2,1.2,4.9-0.9,5.8
		c-0.3,0.1-0.5,0.3-0.4,0.5s0.3,0.2,0.7,0.1c0.4-0.1,1.5-0.6,2.2-0.8c0.7-0.3,1-0.3,1.1-0.4c0.2-0.1,0.3-0.3,0.2-0.5l0,0
		c-0.4-1.7-1-3.3-1.6-4.9c-2.1-4.6-6.5-7.4-11.4-5.3c-5.7,2.3-6.2,7.7-4,12.5C366.5,185.1,367.1,186.3,368,187.2 M376.3,194.3
		l1.1,4.3l5.4-3.5l0,0l0,0h-0.1L376.3,194.3z M369.6,190.2c0.3,1.2,0.8,1.6,2.4,1.8l14.4,2c0.4,0,0.8,0.1,1.1,0.5
		c0,0.4-0.3,0.7-0.6,0.8c-1,0.8-8.7,6.1-11.5,8.1c-1,0.7-2,1.6-1.8,2.5c0,0.2,0,0.4-0.2,0.5s-0.4-0.1-0.6-1c-0.1-0.5-0.3-1.4-0.4-2
		s-0.6-1.8-0.7-2.2s0-0.8,0.1-0.8c0.2,0,0.3,0.1,0.4,0.3c0.1,0.4,0.3,0.8,0.6,1l3.3-2.2c0-0.1,0-0.1,0-0.2l-1.2-4.9
		c0-0.1-0.1-0.2-0.2-0.2l-2.3-0.3c-0.4-0.1-0.9-0.1-1.3,0c-0.3,0-0.5,0.3-0.3,0.9c0.2,0.7,0.1,0.7-0.1,0.7c-0.3,0-0.3-0.1-0.4-0.3
		c-0.2-0.7-0.4-1.6-0.5-2.2c-0.1-0.2-0.4-1.3-0.7-2.4c-0.1-0.3,0-0.5,0.2-0.6S369.6,190.1,369.6,190.2 M387,206.5
		c-0.2,0-0.5,0-0.4,0.3c0,0.2,0.2,0.3,0.4,0.3c0.8,0,1.3,0.5,1.5,2.2l0.4,3l-10.7,0.9c-3.4,0.3-3.7,0.1-3.8-1.1
		c0-0.3-0.1-0.5-0.3-0.4s-0.3,0.1-0.3,0.5c0,0.8,0.2,2.1,0.3,2.6c0,0.5,0.1,1.9,0.2,3.3c0,0.3,0.2,0.5,0.4,0.5
		c0.2,0,0.2-0.2,0.2-0.4c-0.1-1.6,0-1.9,3.6-2.2l10.6-0.9l0.2,2.5c0.1,1.9-0.3,2.4-1.2,2.5c-0.4,0-0.5,0.2-0.5,0.4
		c0.1,0.2,0.3,0.3,0.5,0.2l2.5-0.1c0.4,0,0.6-0.1,0.5-0.3c-0.2-0.6-0.3-1.3-0.4-2l-0.8-9.4c0-0.6,0-1.3,0.2-1.9
		c0-0.2-0.1-0.2-0.5-0.3C388.7,206.6,387.9,206.5,387,206.5 M389.5,233.6c0.2-2.3-0.9-5.2-6.1-5.6c-4.4-0.4-8.1,1.6-8.5,5.7
		c-0.1,1.4,0.3,4.9,6.4,5.3C386,239.5,389.1,237,389.5,233.6 M393.2,237.4c0.2,0.2,0.2,0.6-0.1,0.8l0,0c-0.3,0.2-0.6,0.4-0.9,0.5
		c-0.2,0.1-0.5,0-0.6-0.2c0,0,0,0,0-0.1c0,0-0.6-2.2-1-3.8c-0.6,5.1-4,8-8.8,7.6c-4.7-0.1-8.3-4-8.2-8.7c0-0.3,0-0.6,0.1-0.8
		c0.2-4.6,4.1-8.1,8.6-7.9c0.2,0,0.4,0,0.6,0.1c4.3,0.3,7.7,3.8,7.7,8.1C391.3,234.2,393.1,237.2,393.2,237.4 M387.3,249.5
		c-0.4,1.5-0.7,1.4-3.2,0.8l-8.1-2c-3.4-0.9-3.8-1.1-3.4-2.3c0-0.2,0-0.5-0.2-0.5s-0.3,0-0.5,0.4c-0.2,0.8-0.5,2.1-0.6,2.6
		c-0.4,1.6-0.9,3-1.7,5.9c-0.3,1.1-0.2,1.3,0.2,1.5c0.9,0.4,1.7,0.7,2.6,1c0.3,0.1,0.5,0,0.6-0.2c0-0.2-0.1-0.4-0.3-0.4
		c0,0,0,0-0.1,0c-1.4-0.6-1.8-1.2-1.3-3.3c0.7-2.6,1-2.7,3.8-2l8.1,2c2.7,0.7,2.7,0.8,2.3,2.2c-0.1,0.3,0,0.5,0.2,0.6
		c0.2,0,0.3,0,0.4-0.4c0.2-0.8,0.6-2.3,0.7-2.8s0.6-1.8,0.8-2.8c0.1-0.4,0-0.6-0.1-0.6S387.4,249.2,387.3,249.5 M382.1,266.2
		c-0.4,1.1-0.8,1.1-1.6,0.8c-0.8-0.2-1.2-0.4-4.2-1.6l-3.5-1.4c-1.5-0.5-2.9-1.1-4.3-1.8c-0.8-0.4-0.9-0.8-0.5-1.6
		c0.1-0.2,0.1-0.4,0-0.5s-0.4,0-0.5,0.4c-0.3,0.8-0.8,2.1-0.9,2.5c-0.2,0.4-0.8,1.7-1.4,3c-0.1,0.3-0.1,0.5,0.1,0.6
		c0.2,0,0.4-0.1,0.4-0.3c0.4-1.1,0.8-1.6,1.6-1.3c0.8,0.3,2.5,0.9,4.4,1.6l3.5,1.4c3,1.2,3.6,1.4,4.2,1.6c0.6,0.1,0.9,0.7,0.8,1.2
		c0,0.1-0.1,0.3-0.2,0.4c-0.1,0.2-0.1,0.4,0.1,0.5l0,0c0.2,0,0.3-0.1,0.5-0.4c0.3-0.7,0.7-1.9,0.9-2.4c0.2-0.5,0.8-1.8,1.1-2.5
		c0.1-0.4,0.1-0.6,0-0.7c-0.2-0.1-0.4,0.1-0.5,0.3l0,0 M370.9,274.2c-5.3-3.1-10.1-0.3-12.8,4.2c-0.7,1.1-1.3,2.3-1.6,3.5
		c-0.1,0.3,0,0.7,0.3,0.9c0.7,0.7,1.5,1.3,2.3,1.8c0.2,0.1,0.4,0.1,0.5,0s0-0.3-0.2-0.6c-1.3-1.3-1.4-2.5,0.1-5.1
		c1.9-3.3,5.6-4.4,10-1.9c3.4,2.1,4.9,4.9,2.8,8.4c-1.3,2.1-3.4,3.8-5.4,2.7c-0.3-0.2-0.6-0.2-0.7,0s0,0.4,0.3,0.6s1.4,0.8,2,1.2
		c0.6,0.4,0.8,0.6,1,0.7s0.3,0,0.5-0.2c1.2-1.3,2.3-2.7,3.3-4.1C375.8,282,375.4,276.8,370.9,274.2 M358.9,298.2v-0.3l-3.3-5.5
		l-3,3.4l6.2,2.1h0.1l0,0L358.9,298.2z M361.8,300.4c0.4,0.7,0.4,1,0.3,1.1c-0.3,0.2-0.7,0.2-1,0c-1.2-0.3-10.2-3.3-13.6-4.2
		c-1.2-0.4-2.5-0.7-3.3,0.1c-0.1,0.2-0.3,0.2-0.5,0.1s-0.1-0.3,0.5-1c0.3-0.4,1-1.1,1.4-1.5s1.2-1.5,1.5-1.9
		c0.3-0.3,0.7-0.5,0.8-0.4c0.1,0.1,0.1,0.3,0,0.5c-0.2,0.3-0.4,0.7-0.5,1.1l3.7,1.2c0.1,0,0.2,0,0.2-0.1l3.4-3.9c0-0.1,0-0.2,0-0.2
		l-1.1-2c-0.2-0.4-0.5-0.7-0.8-1c-0.3-0.2-0.6-0.2-1,0.3s-0.5,0.5-0.6,0.3c-0.1-0.1-0.2-0.3,0-0.5c0.4-0.5,1.1-1.2,1.5-1.6l1.6-1.9
		c0.3-0.3,0.4-0.3,0.6-0.2c0.1,0.1,0.1,0.2,0.1,0.4c0,0,0,0-0.1,0.1c-0.8,0.8-0.9,2.1-0.1,3l0,0L361.8,300.4z M211.4,324.3
		c2.4-4,0.8-7.9-3.3-10.2c-1.3-0.7-1.4-0.6-1.8,0l-5.1,8.3c-1.4,2.4-1.5,2.9,0.9,4.3C206,328.9,208.9,328.4,211.4,324.3
		 M209.1,313.3c5.6,3.3,8.3,7.2,5.3,12.1s-8.1,5-12.8,2.3c-1.4-0.8-2.9-2-3.8-2.5l-2.4-1.3c-0.3-0.2-0.4-0.4-0.3-0.5
		c0.1-0.2,0.3-0.1,0.8,0.1c0.8,0.5,1.1,0.3,3.9-4.2l1.9-3.1c1.6-2.7,2-3.3,2.3-3.8c0.4-0.6,0.2-1.2-0.8-1.8
		c-0.3-0.2-0.4-0.3-0.3-0.5c0.1-0.2,0.3-0.2,0.7,0c1,0.6,2.1,1.3,2.6,1.6L209.1,313.3 M232.1,323.8L227,322
		c-0.6-0.2-1.8-0.7-2.9-1.1c-0.4-0.1-0.6-0.1-0.7,0.1c-0.1,0.2,0,0.3,0.4,0.4c1.2,0.4,1.5,0.8,1.2,1.6c-0.3,0.8-0.4,1.2-1.6,4.1
		l-1.3,3.5c-0.4,1-0.8,2-1.1,2.8c-0.8,2.2-1.1,2.3-2.2,2c-0.3,0-0.4,0-0.5,0.1s0,0.3,0.4,0.5l2.6,0.9c2.2,0.8,4.2,1.6,6.1,2.3
		c0.4,0.2,0.8,0,0.9-0.3c0.4-0.7,0.8-1.4,1.1-2.1c0.1-0.3,0.1-0.5-0.1-0.5c-0.2-0.1-0.3,0-0.5,0.2c-0.2,0.6-0.7,1-1.4,1.1
		c-0.9-0.1-1.8-0.4-2.7-0.7c-1.4-0.5-1.6-0.7-1.1-2c0.2-0.6,0.9-2.3,1.7-4.5c0,0,0.1,0,0.2,0l0,0l2.8,1c0.6,0.2,1,0.9,0.7,1.5
		c0,0.1-0.1,0.2-0.1,0.2c-0.1,0.1,0,0.3,0.1,0.4c0,0,0,0,0.1,0c0.3,0.1,0.4-0.1,0.5-0.4c0.4-1,1.2-2.4,1.3-2.6
		c0.1-0.1,0-0.2-0.1-0.3c0,0,0,0-0.1,0c-0.2,0-0.5,0.1-0.7,0.2c-0.6,0.1-1.3,0-1.9-0.3l-2.1-0.8c-0.1,0-0.2,0-0.1-0.2l2-5.3h0.1
		c3.9,1.4,4,1.6,3.7,2.9c0,0.2-0.1,0.4,0.1,0.5c0.1,0.1,0.3,0,0.4-0.1c0,0,0,0,0-0.1c0.3-0.8,0.8-1.7,1.2-2.5c0.1-0.1,0-0.3-0.1-0.3
		l0,0c-0.4,0-0.9-0.1-1.3-0.2 M262.5,329.6c-1.7-0.5-3.4-0.9-5.2-1.1c-5.1-0.5-9.8,1.9-10.4,7c-0.7,5.9,3.9,9,9.3,9.5
		c1.3,0.2,2.7,0.2,4,0c0.3-0.1,0.6-0.3,0.7-0.6c0.3-0.9,0.6-1.8,0.8-2.8c0.1-0.1,0-0.3-0.1-0.4h-0.1c-0.2,0-0.3,0-0.5,0.4
		c-0.7,1.6-1.8,2.3-4.9,2c-3.8-0.3-6.5-3.1-6-7.9c0.6-3.9,2.6-6.3,6.6-5.9c2.6,0.2,5,1.4,4.8,3.6c0,0.4,0,0.6,0.3,0.6
		s0.3-0.2,0.4-0.5c0.1-0.4,0.2-1.6,0.3-2.3c0.1-0.6,0.2-0.9,0.2-1.1S262.8,329.8,262.5,329.6 M288.8,342.9c-1.3,0.1-1.8,0-2-0.9
		s-0.4-2.5-0.6-4.4l-0.4-3.6c-0.4-3.1-0.4-3.7-0.4-4.4s0.2-1.2,1.2-1.3c0.3,0,0.5-0.2,0.4-0.3c0-0.2-0.2-0.3-0.6-0.3
		c-0.9,0.1-2.2,0.3-2.7,0.4l-3.1,0.3c-0.4,0-0.6,0.1-0.6,0.3c0,0.2,0.2,0.3,0.5,0.2c1.1-0.1,1.6,0,1.8,1c0.1,0.7,0.2,1.2,0.6,4.3
		l0.1,0.9l0,0l-8.1,0.8c-0.1,0-0.1,0-0.1,0l-0.1-0.9c-0.4-3.1-0.4-3.7-0.4-4.4c0-0.9,0.2-1.2,1.2-1.3c0.4,0,0.5-0.2,0.5-0.4
		c0-0.2-0.2-0.3-0.6-0.2c-0.8,0-2.2,0.3-2.7,0.4c-0.5,0-2,0.1-3.1,0.3c-0.4,0-0.5,0.2-0.5,0.4s0.2,0.3,0.5,0.2
		c1.2-0.1,1.6,0.1,1.8,0.9s0.2,1.2,0.5,4.4l0.4,3.6c0.2,1.5,0.3,2.9,0.4,4.4c0.2,0.5-0.1,1.1-0.7,1.2c-0.2,0-0.3,0.1-0.5,0
		c-0.2,0-0.5,0.1-0.4,0.3c0,0.2,0.2,0.3,0.6,0.3c0.9-0.1,2.2-0.3,2.7-0.4s2-0.1,3.4-0.3c0.2,0,0.5-0.1,0.5-0.4
		c-0.1-0.2-0.3-0.3-0.5-0.2c-1.2,0.1-1.7,0.1-2-0.9c-0.2-1-0.4-2.5-0.6-4.4l-0.1-1.3 M274.9,337.4l8.1-0.9l0,0l0.2,1.3
		c0.3,1.3,0.5,2.7,0.7,4c0,0.9-0.1,1.2-1.1,1.3c-0.3,0-0.5,0.1-0.4,0.3c0,0.2,0.2,0.3,0.6,0.2c0.8-0.1,2.2-0.3,2.7-0.4
		s2-0.1,3.4-0.3c0.4,0,0.5-0.2,0.5-0.4c0-0.1-0.2-0.2-0.4-0.2 M304.6,338.4c-1.1,0.3-1.8,0.4-2.1-0.4c-0.3-0.8-0.8-2.4-1.4-4.3
		l-1.1-3.5c-0.9-3-1.1-3.6-1.3-4.2c-0.2-0.9,0-1.2,1-1.5c0.2,0,0.4-0.2,0.3-0.4l0,0c-0.2-0.1-0.4-0.1-0.6,0c-0.8,0.2-2,0.6-2.5,0.8
		s-1.9,0.5-2.7,0.7c-0.4,0.1-0.6,0.3-0.5,0.4c0.1,0.2,0.3,0.3,0.5,0.2c1.2-0.3,1.4,0,1.6,0.7s0.4,1.2,1.4,4.2l1.1,3.5
		c0.5,1.4,0.9,2.9,1.2,4.3c0.2,0.9,0,1.1-0.9,1.4c-0.2,0-0.4,0.2-0.4,0.4c0,0.2,0.3,0.3,0.6,0.2l2.6-0.8c0.5-0.1,1.9-0.4,3.3-0.8
		c0.3-0.1,0.5-0.3,0.4-0.5C305,338.4,304.7,338.4,304.6,338.4 M322.5,328.5c-0.1-0.3-0.3-0.4-0.5-0.3s-0.2,0.3-0.1,0.5
		c0.4,1.4,0.2,2.1-1.9,3c-2.5,1.1-2.8,1-4-1.6l-3.5-7.5c-1.1-2.4-1-2.6,0.3-3.1c0.3-0.1,0.4-0.3,0.3-0.5s-0.2-0.2-0.6,0l-2.7,1.2
		c-0.5,0.2-1.8,0.7-2.7,1.2c-0.4,0.1-0.5,0.3-0.4,0.5s0.3,0.2,0.6,0c1.4-0.6,1.6-0.3,2.6,1.9l3.5,7.4c1.5,3.1,1.5,3.5,0.3,4.1
		c-0.2,0.1-0.4,0.2-0.3,0.4c0.1,0.2,0.3,0.2,0.6,0l2.4-1.1c1.6-0.7,3-1.2,5.8-2.4c1-0.5,1.1-0.7,1.1-1.1
		C323.1,330.2,322.8,329.3,322.5,328.5 M338.1,319.3c-0.1-0.2-0.3-0.4-0.5-0.2c-0.2,0.2-0.2,0.3,0,0.5c0.3,0.5,0.3,1.1,0,1.6
		c-0.6,0.6-1.4,1.2-2.1,1.6c-1.3,0.8-1.5,0.9-2.3-0.3l-2.7-4c0,0,0-0.1,0-0.2l0,0l2.5-1.5c0.6-0.4,1.4-0.2,1.8,0.4l0.1,0.1
		c0.1,0.1,0.3,0.2,0.4,0.1l0,0c0.2-0.1,0.1-0.4,0-0.6c-0.5-0.8-1-1.7-1.4-2.6c-0.1-0.1-0.2-0.2-0.4-0.1l0,0
		c-0.1,0.2-0.2,0.4-0.2,0.6c-0.3,0.6-0.8,1-1.3,1.3l-1.9,1.2c-0.1,0-0.2,0-0.2,0l-3.3-4.7c0,0-0.1-0.1,0-0.1l0,0
		c3.5-2.2,3.7-2.2,4.6-1.2c0.1,0.1,0.3,0.3,0.5,0.2c0.2-0.1,0.2-0.3,0.1-0.4l0,0c-0.5-0.8-1-1.6-1.4-2.4c0-0.1-0.2-0.2-0.3-0.2
		c0,0,0,0-0.1,0c-0.3,0.3-0.6,0.6-1,0.9l-4.5,2.9c-0.5,0.3-1.6,1-2.6,1.6c-0.3,0.2-0.4,0.4-0.3,0.6s0.3,0.2,0.6,0
		c1-0.7,1.6-0.7,2.1,0s0.7,1,2.5,3.7l2.1,3.1c0.6,0.9,1.2,1.8,1.6,2.5c1.3,2,1.3,2.2,0.3,2.9c-0.2,0.1-0.3,0.3-0.2,0.5
		c0.1,0.2,0.3,0.2,0.6,0c0.7-0.5,1.9-1.3,2.2-1.5c1.9-1.2,3.8-2.3,5.6-3.4c0.3-0.2,0.5-0.6,0.3-0.9l0,0c-0.3-0.7-0.7-1.4-1.1-2.1"/>
</g>
<g>
	<path fill="#FFFFFF" d="M8.5,418.2c0-7.9,0-9.4-0.1-11c-0.1-1.8-0.5-2.6-2.2-3c-0.4-0.1-1.3-0.2-2-0.2c-0.6,0-0.9-0.1-0.9-0.5
		s0.4-0.5,1.1-0.5c1.4,0,2.9,0.1,4.2,0.1c1.4,0.1,2.5,0.1,3.3,0.1c1.7,0,12,0,13-0.1c1-0.1,1.8-0.2,2.2-0.3c0.3-0.1,0.6-0.2,0.8-0.2
		s0.3,0.2,0.3,0.5c0,0.4-0.3,1-0.4,3.4c-0.1,0.5-0.2,2.8-0.3,3.4c-0.1,0.3-0.2,0.6-0.5,0.6c-0.4,0-0.5-0.3-0.5-0.7
		c0-0.4-0.1-1.2-0.3-1.9c-0.4-0.9-0.9-1.6-3.5-1.9c-0.9-0.1-6.3-0.2-7.4-0.2c-0.3,0-0.4,0.2-0.4,0.5v13.2c0,0.4,0.1,0.6,0.4,0.6
		c1.1,0,7.1,0,8.3-0.1c1.2-0.1,2-0.3,2.5-0.8c0.4-0.4,0.6-0.7,0.8-0.7c0.2,0,0.4,0.1,0.4,0.4s-0.2,1.1-0.4,3.8
		c-0.1,1-0.2,3.1-0.2,3.5c0,0.4,0,1-0.5,1c-0.4,0-0.5-0.2-0.5-0.5c-0.1-0.5-0.1-1.2-0.2-1.9c-0.3-1-1-1.8-2.9-2
		c-1-0.1-6.1-0.2-7.4-0.2c-0.3,0-0.3,0.2-0.3,0.5v4.1c0,1.8-0.1,6.6,0,8.1c0.1,3.6,0.9,4.4,6.2,4.4c1.4,0,3.5,0,4.9-0.6
		s2-1.7,2.3-3.8c0.1-0.6,0.2-0.8,0.6-0.8c0.4,0,0.4,0.4,0.4,0.9c0,1.2-0.4,4.7-0.7,5.8c-0.4,1.4-0.8,1.4-2.8,1.4
		c-3.9,0-6.8-0.1-9-0.2c-2.2-0.1-3.8-0.2-5.4-0.2c-0.6,0-1.7,0-3,0.1c-1.2,0-2.5,0.1-3.6,0.1c-0.7,0-1-0.2-1-0.5
		c0-0.3,0.2-0.4,0.8-0.4c0.8,0,1.4-0.1,1.9-0.2c1-0.2,1.3-1.4,1.5-2.9c0.3-2.2,0.3-6.3,0.3-11.1V418.2z"/>
	<path fill="#FFFFFF" d="M38.5,441.8c-0.8-0.4-1-0.6-1-1.8c0-2.9,0.2-6,0.3-6.8c0.1-0.8,0.2-1.4,0.6-1.4c0.5,0,0.5,0.5,0.5,0.9
		c0,0.7,0.2,1.8,0.5,2.7c1.1,3.8,4.2,5.3,7.4,5.3c4.7,0,7-3.2,7-5.9c0-2.5-0.8-4.9-5.1-8.3l-2.4-1.9c-5.7-4.5-7.7-8.1-7.7-12.3
		c0-5.7,4.8-9.8,12-9.8c3.4,0,5.6,0.5,6.9,0.9c0.5,0.1,0.7,0.3,0.7,0.6c0,0.7-0.2,2.2-0.2,6.2c0,1.1-0.2,1.6-0.6,1.6
		c-0.4,0-0.5-0.3-0.5-0.9c0-0.5-0.3-2.1-1.4-3.4c-0.8-1-2.3-2.5-5.7-2.5c-3.8,0-6.2,2.2-6.2,5.4c0,2.4,1.2,4.2,5.5,7.5l1.5,1.1
		c6.3,4.7,8.5,8.3,8.5,13.3c0,3-1.1,6.6-4.9,9c-2.6,1.7-5.5,2.1-8.3,2.1C43.1,443.1,40.8,442.7,38.5,441.8z"/>
</g>
<g>
	<path fill="#FFFFFF" d="M73.4,437.4c-5.1-4.5-6.4-10.3-6.4-15.3c0-3.5,1.1-9.7,6.1-14.2c3.7-3.4,8.7-5.5,16.4-5.5
		c3.2,0,5.1,0.2,7.5,0.5c2,0.3,3.6,0.7,5.2,0.9c0.6,0.1,0.8,0.3,0.8,0.6c0,0.4-0.2,1-0.3,2.9c-0.1,1.7-0.1,4.6-0.2,5.6
		c-0.1,0.8-0.2,1.2-0.6,1.2c-0.4,0-0.5-0.4-0.5-1.1c-0.1-1.6-0.7-3.4-2-4.8c-1.7-1.8-5.8-3.2-10.6-3.2c-4.5,0-7.5,1.1-9.8,3.2
		c-3.8,3.5-4.8,8.4-4.8,13.5c0,12.4,9.4,18.5,16.4,18.5c4.6,0,7.4-0.5,9.5-2.9c0.9-1,1.6-2.5,1.8-3.4c0.2-0.8,0.3-1,0.7-1
		c0.4,0,0.5,0.4,0.5,0.8c0,0.6-0.6,5.1-1.1,6.9c-0.3,0.9-0.5,1.1-1.4,1.5c-2.1,0.8-6,1.2-9.4,1.2C84.1,443.1,78.1,441.6,73.4,437.4z
		"/>
</g>
<g>
	<path fill="#FFFFFF" d="M114.5,418.2c0-7.9,0-9.4-0.1-11c-0.1-1.8-0.5-2.6-2.2-3c-0.4-0.1-1.3-0.2-2-0.2c-0.6,0-0.9-0.1-0.9-0.5
		s0.4-0.5,1.1-0.5c2.8,0,6,0.2,7.6,0.2c1.2,0,4.5-0.2,6.4-0.2c0.8,0,1.1,0.1,1.1,0.5s-0.3,0.5-0.8,0.5c-0.6,0-0.9,0.1-1.5,0.2
		c-1.4,0.3-1.8,1.1-1.9,3c-0.1,1.7-0.1,3.1-0.1,11v7.3c0,7.5,1.5,10.7,4.1,12.8c2.3,1.9,4.7,2.1,6.5,2.1c2.3,0,5.1-0.7,7.2-2.8
		c2.9-2.9,3-7.5,3-12.9v-6.5c0-7.9,0-9.4-0.1-11c-0.1-1.8-0.5-2.6-2.2-3c-0.4-0.1-1.3-0.2-1.9-0.2c-0.6,0-0.9-0.1-0.9-0.5
		s0.4-0.5,1.1-0.5c2.7,0,5.9,0.2,6,0.2c0.6,0,3.9-0.2,5.9-0.2c0.7,0,1.1,0.1,1.1,0.5s-0.3,0.5-0.9,0.5c-0.6,0-0.9,0.1-1.5,0.2
		c-1.4,0.3-1.8,1.1-1.9,3c-0.1,1.7-0.1,3.1-0.1,11v5.6c0,5.8-0.6,11.9-4.9,15.7c-3.7,3.2-7.4,3.7-10.8,3.7c-2.8,0-7.7-0.2-11.5-3.6
		c-2.7-2.4-4.6-6.2-4.6-13.8V418.2z"/>
</g>
<g>
	<path fill="#FFFFFF" d="M162.5,418.2c0-7.9,0-9.4-0.1-11c-0.1-1.8-0.5-2.6-2.2-3c-0.4-0.1-1.3-0.2-2-0.2c-0.6,0-0.9-0.1-0.9-0.5
		s0.4-0.5,1.1-0.5c1.4,0,2.9,0.1,4.2,0.1c1.4,0.1,2.5,0.1,3.3,0.1c1.7,0,12,0,13-0.1c1-0.1,1.8-0.2,2.2-0.3c0.3-0.1,0.6-0.2,0.8-0.2
		s0.3,0.2,0.3,0.5c0,0.4-0.3,1-0.4,3.4c-0.1,0.5-0.2,2.8-0.3,3.4c-0.1,0.3-0.2,0.6-0.5,0.6c-0.4,0-0.5-0.3-0.5-0.7
		c0-0.4-0.1-1.2-0.3-1.9c-0.4-0.9-0.9-1.6-3.5-1.9c-0.9-0.1-6.3-0.2-7.4-0.2c-0.3,0-0.4,0.2-0.4,0.5v13.2c0,0.4,0.1,0.6,0.4,0.6
		c1.1,0,7.1,0,8.3-0.1c1.2-0.1,2-0.3,2.5-0.8c0.4-0.4,0.6-0.7,0.8-0.7c0.2,0,0.4,0.1,0.4,0.4s-0.2,1.1-0.4,3.8
		c-0.1,1-0.2,3.1-0.2,3.5c0,0.4,0,1-0.5,1c-0.4,0-0.5-0.2-0.5-0.5c-0.1-0.5-0.1-1.2-0.2-1.9c-0.3-1-1-1.8-2.9-2
		c-1-0.1-6.1-0.2-7.4-0.2c-0.3,0-0.3,0.2-0.3,0.5v4.1c0,1.8-0.1,6.6,0,8.1c0.1,3.6,0.9,4.4,6.2,4.4c1.4,0,3.5,0,4.9-0.6
		s2-1.7,2.3-3.8c0.1-0.6,0.2-0.8,0.6-0.8c0.4,0,0.4,0.4,0.4,0.9c0,1.2-0.4,4.7-0.7,5.8c-0.4,1.4-0.8,1.4-2.8,1.4
		c-3.9,0-6.8-0.1-9-0.2c-2.2-0.1-3.8-0.2-5.4-0.2c-0.6,0-1.7,0-3,0.1c-1.2,0-2.5,0.1-3.6,0.1c-0.7,0-1-0.2-1-0.5
		c0-0.3,0.2-0.4,0.8-0.4c0.8,0,1.4-0.1,1.9-0.2c1-0.2,1.3-1.4,1.5-2.9c0.3-2.2,0.3-6.3,0.3-11.1V418.2z"/>
</g>
<g>
	<path fill="#FFFFFF" d="M202.4,427.3c0,6.7,0,10.2,1.1,11.2c0.9,0.8,2.2,1.1,6.3,1.1c2.8,0,4.8-0.1,6.1-1.5
		c0.6-0.7,1.2-2.1,1.4-3.1c0.1-0.5,0.2-0.8,0.6-0.8c0.4,0,0.4,0.3,0.4,0.9c0,0.6-0.4,4.5-0.8,6c-0.3,1.1-0.6,1.4-3.3,1.4
		c-3.7,0-6.4-0.1-8.8-0.2c-2.3-0.1-4.2-0.2-6.3-0.2c-0.6,0-1.7,0-3,0.1c-1.2,0-2.5,0.1-3.6,0.1c-0.7,0-1-0.2-1-0.5
		c0-0.3,0.2-0.4,0.8-0.4c0.8,0,1.4-0.1,1.9-0.2c1-0.2,1.3-1.4,1.5-2.9c0.3-2.2,0.3-6.3,0.3-11.1v-9.2c0-7.9,0-9.4-0.1-11
		c-0.1-1.8-0.5-2.6-2.2-3c-0.4-0.1-1-0.2-1.7-0.2c-0.6,0-0.9-0.1-0.9-0.5s0.4-0.5,1.1-0.5c2.4,0,5.7,0.2,7.1,0.2
		c1.2,0,5-0.2,7.1-0.2c0.7,0,1.1,0.1,1.1,0.5s-0.3,0.5-0.9,0.5c-0.6,0-1.4,0.1-2,0.2c-1.4,0.3-1.8,1.1-1.9,3
		c-0.1,1.7-0.1,3.1-0.1,11V427.3z"/>
</g>
<g>
	<path fill="#FFFFFF" d="M235.1,428.8c-0.3,0-0.4,0.1-0.5,0.4l-2.8,7.4c-0.5,1.3-0.8,2.5-0.8,3.2c0,0.9,0.5,1.6,2.1,1.6h0.8
		c0.6,0,0.8,0.1,0.8,0.4c0,0.4-0.3,0.5-0.9,0.5c-1.7,0-3.9-0.2-5.5-0.2c-0.6,0-3.4,0.2-6.1,0.2c-0.7,0-1-0.1-1-0.5
		c0-0.3,0.2-0.4,0.6-0.4c0.5,0,1.2-0.1,1.6-0.1c2.4-0.3,3.4-2.1,4.4-4.7l13.1-32.7c0.6-1.5,0.9-2.1,1.5-2.1c0.5,0,0.8,0.5,1.3,1.7
		c1.2,2.9,9.6,24.1,12.9,32c2,4.7,3.5,5.4,4.6,5.7c0.8,0.2,1.6,0.2,2.2,0.2c0.4,0,0.7,0.1,0.7,0.4c0,0.4-0.5,0.5-2.4,0.5
		c-1.9,0-5.7,0-9.8-0.1c-0.9-0.1-1.6-0.1-1.6-0.4c0-0.3,0.2-0.4,0.7-0.5c0.4-0.1,0.7-0.6,0.5-1.2l-4.2-11c-0.1-0.3-0.3-0.4-0.5-0.4
		H235.1z M245.7,426.2c0.3,0,0.3-0.2,0.3-0.3l-4.7-12.8c-0.1-0.2-0.1-0.5-0.3-0.5s-0.3,0.3-0.3,0.5l-4.8,12.8
		c-0.1,0.2,0,0.4,0.2,0.4H245.7z"/>
</g>
<g>
	<path fill="#FFFFFF" d="M288,418.2c0-7.9,0-9.4-0.1-11c-0.1-1.8-0.5-2.6-2.2-3c-0.4-0.1-1.3-0.2-2-0.2c-0.6,0-0.9-0.1-0.9-0.5
		s0.4-0.5,1.1-0.5c2.8,0,6,0.2,7.5,0.2c1.6,0,4.9-0.2,8-0.2c6.5,0,15.2,0,20.9,5.9c2.6,2.7,5,7,5,13.2c0,6.6-2.8,11.5-5.7,14.5
		c-2.4,2.4-7.8,6.1-17.4,6.1c-1.9,0-4-0.2-6-0.3c-2-0.2-3.8-0.3-5.1-0.3c-0.6,0-1.7,0-3,0.1c-1.2,0-2.5,0.1-3.6,0.1
		c-0.7,0-1-0.2-1-0.5c0-0.3,0.2-0.4,0.8-0.4c0.8,0,1.4-0.1,1.9-0.2c1-0.2,1.3-1.4,1.5-2.9c0.3-2.2,0.3-6.3,0.3-11.1V418.2z
		 M294.5,423.9c0,5.5,0.1,9.5,0.1,10.5c0.1,1.3,0.2,3.4,0.6,4c0.7,1,2.7,2.1,6.8,2.1c5.3,0,8.8-1,12-3.7c3.3-2.9,4.4-7.6,4.4-12.9
		c0-6.6-2.8-10.9-5-13c-4.8-4.6-10.7-5.2-14.8-5.2c-1,0-3,0.2-3.4,0.4c-0.5,0.2-0.6,0.5-0.6,1c-0.1,1.8-0.1,6.3-0.1,10.4V423.9z"/>
</g>
<g>
	<path fill="#FFFFFF" d="M335.6,418.2c0-7.9,0-9.4-0.1-11c-0.1-1.8-0.5-2.6-2.2-3c-0.4-0.1-1.3-0.2-2-0.2c-0.6,0-0.9-0.1-0.9-0.5
		s0.4-0.5,1.1-0.5c1.4,0,2.9,0.1,4.2,0.1c1.4,0.1,2.5,0.1,3.3,0.1c1.7,0,12,0,13-0.1c1-0.1,1.8-0.2,2.2-0.3c0.3-0.1,0.6-0.2,0.8-0.2
		s0.3,0.2,0.3,0.5c0,0.4-0.3,1-0.4,3.4c-0.1,0.5-0.2,2.8-0.3,3.4c-0.1,0.3-0.2,0.6-0.5,0.6c-0.4,0-0.5-0.3-0.5-0.7
		c0-0.4-0.1-1.2-0.3-1.9c-0.4-0.9-0.9-1.6-3.5-1.9c-0.9-0.1-6.3-0.2-7.4-0.2c-0.3,0-0.4,0.2-0.4,0.5v13.2c0,0.4,0.1,0.6,0.4,0.6
		c1.1,0,7.1,0,8.3-0.1c1.2-0.1,2-0.3,2.5-0.8c0.4-0.4,0.6-0.7,0.8-0.7c0.2,0,0.4,0.1,0.4,0.4s-0.2,1.1-0.4,3.8
		c-0.1,1-0.2,3.1-0.2,3.5c0,0.4,0,1-0.5,1c-0.4,0-0.5-0.2-0.5-0.5c-0.1-0.5-0.1-1.2-0.2-1.9c-0.3-1-1-1.8-2.9-2
		c-1-0.1-6.1-0.2-7.4-0.2c-0.3,0-0.3,0.2-0.3,0.5v4.1c0,1.8-0.1,6.6,0,8.1c0.1,3.6,0.9,4.4,6.2,4.4c1.4,0,3.5,0,4.9-0.6
		c1.4-0.6,2-1.7,2.3-3.8c0.1-0.6,0.2-0.8,0.6-0.8c0.4,0,0.4,0.4,0.4,0.9c0,1.2-0.4,4.7-0.7,5.8c-0.4,1.4-0.8,1.4-2.8,1.4
		c-3.9,0-6.8-0.1-9-0.2c-2.2-0.1-3.8-0.2-5.4-0.2c-0.6,0-1.7,0-3,0.1c-1.2,0-2.5,0.1-3.6,0.1c-0.7,0-1-0.2-1-0.5
		c0-0.3,0.2-0.4,0.8-0.4c0.8,0,1.4-0.1,1.9-0.2c1-0.2,1.3-1.4,1.5-2.9c0.3-2.2,0.3-6.3,0.3-11.1V418.2z"/>
</g>
<g>
	<path fill="#FFFFFF" d="M389.2,428.8c-0.3,0-0.4,0.1-0.5,0.4l-2.8,7.4c-0.5,1.3-0.8,2.5-0.8,3.2c0,0.9,0.5,1.6,2.1,1.6h0.8
		c0.6,0,0.8,0.1,0.8,0.4c0,0.4-0.3,0.5-0.9,0.5c-1.7,0-3.9-0.2-5.5-0.2c-0.6,0-3.4,0.2-6.1,0.2c-0.7,0-1-0.1-1-0.5
		c0-0.3,0.2-0.4,0.6-0.4c0.5,0,1.2-0.1,1.6-0.1c2.4-0.3,3.4-2.1,4.4-4.7L395,404c0.6-1.5,0.9-2.1,1.5-2.1c0.5,0,0.8,0.5,1.3,1.7
		c1.2,2.9,9.6,24.1,12.9,32c2,4.7,3.5,5.4,4.6,5.7c0.8,0.2,1.6,0.2,2.2,0.2c0.4,0,0.7,0.1,0.7,0.4c0,0.4-0.5,0.5-2.4,0.5
		c-1.9,0-5.7,0-9.8-0.1c-0.9-0.1-1.6-0.1-1.6-0.4c0-0.3,0.2-0.4,0.7-0.5c0.4-0.1,0.7-0.6,0.5-1.2l-4.2-11c-0.1-0.3-0.3-0.4-0.5-0.4
		H389.2z M399.8,426.2c0.3,0,0.3-0.2,0.3-0.3l-4.7-12.8c-0.1-0.2-0.1-0.5-0.3-0.5s-0.3,0.3-0.3,0.5l-4.8,12.8
		c-0.1,0.2,0,0.4,0.2,0.4H399.8z"/>
</g>
<g>
	<path fill="#FFFFFF" d="M427,418.2c0-7.9,0-9.4-0.1-11c-0.1-1.8-0.5-2.6-2.2-3c-0.4-0.1-1.3-0.2-2-0.2c-0.6,0-0.9-0.1-0.9-0.5
		s0.4-0.5,1.1-0.5c2.8,0,6,0.2,7.1,0.2c1.8,0,5.7-0.2,7.3-0.2c3.3,0,6.8,0.3,9.6,2.2c1.5,1,3.5,3.6,3.5,7.1c0,3.8-1.6,7.4-6.9,11.6
		c4.6,5.8,8.2,10.5,11.3,13.7c2.9,3,5,3.4,5.8,3.5c0.6,0.1,1,0.2,1.5,0.2s0.6,0.2,0.6,0.4c0,0.4-0.4,0.5-1,0.5h-4.9
		c-2.9,0-4.2-0.3-5.6-1c-2.2-1.2-4.2-3.6-7.1-7.6c-2.1-2.9-4.5-6.4-5.1-7.2c-0.3-0.3-0.6-0.4-0.9-0.4l-4.5-0.1
		c-0.3,0-0.4,0.1-0.4,0.4v0.7c0,4.8,0,8.9,0.3,11.1c0.2,1.5,0.5,2.7,2,2.9c0.8,0.1,1.9,0.2,2.5,0.2c0.4,0,0.6,0.2,0.6,0.4
		c0,0.4-0.4,0.5-1,0.5c-3,0-6.9-0.2-7.6-0.2c-1,0-4.3,0.2-6.3,0.2c-0.7,0-1-0.2-1-0.5c0-0.3,0.2-0.4,0.8-0.4c0.8,0,1.4-0.1,1.9-0.2
		c1-0.2,1.3-1.4,1.5-2.9c0.3-2.2,0.3-6.3,0.3-11.1V418.2z M433.2,422.3c0,0.6,0.1,0.8,0.5,0.9c1.1,0.4,2.7,0.5,4,0.5
		c2.1,0,2.8-0.2,3.7-0.9c1.6-1.1,3.1-3.5,3.1-7.8c0-7.4-4.9-9.5-8-9.5c-1.3,0-2.2,0.1-2.8,0.2c-0.4,0.1-0.5,0.3-0.5,0.7V422.3z"/>
</g>
<g>
	<path fill="#FFFFFF" d="M474.8,406l-7.7,0.2c-3,0.1-4.3,0.4-5,1.5c-0.5,0.8-0.8,1.4-0.9,1.8c-0.1,0.4-0.3,0.6-0.6,0.6
		c-0.4,0-0.5-0.3-0.5-0.8c0-0.8,1-5.6,1.1-6c0.2-0.7,0.3-1,0.6-1c0.4,0,0.9,0.5,2.2,0.6c1.5,0.2,3.5,0.3,5.2,0.3h20.6
		c1.7,0,2.8-0.2,3.6-0.3c0.8-0.2,1.2-0.3,1.4-0.3c0.4,0,0.4,0.3,0.4,1.1c0,1.1-0.2,4.7-0.2,6c-0.1,0.5-0.2,0.8-0.5,0.8
		c-0.4,0-0.5-0.3-0.6-1l-0.1-0.6c-0.1-1.4-1.5-2.8-6.1-2.9l-6.6-0.2v21.3c0,4.8,0,8.9,0.3,11.1c0.2,1.5,0.5,2.6,2,2.8
		c0.7,0.1,1.9,0.2,2.7,0.2c0.6,0,0.8,0.2,0.8,0.4c0,0.4-0.4,0.5-1,0.5c-3.4,0-6.7-0.2-8.2-0.2c-1.2,0-4.5,0.2-6.6,0.2
		c-0.7,0-1-0.2-1-0.5c0-0.3,0.2-0.4,0.8-0.4c0.8,0,1.4-0.1,1.9-0.2c1-0.2,1.4-1.4,1.5-2.9c0.3-2.2,0.3-6.3,0.3-11.1V406z"/>
	<path fill="#FFFFFF" d="M505.8,418.2c0-7.9,0-9.4-0.1-11c-0.1-1.8-0.5-2.6-2.2-3c-0.4-0.1-1.3-0.2-2-0.2c-0.6,0-0.9-0.1-0.9-0.5
		s0.4-0.5,1.1-0.5c1.4,0,2.9,0.1,4.2,0.1c1.4,0.1,2.5,0.1,3.3,0.1c1.7,0,12,0,13-0.1c1-0.1,1.8-0.2,2.2-0.3c0.3-0.1,0.6-0.2,0.8-0.2
		s0.3,0.2,0.3,0.5c0,0.4-0.3,1-0.4,3.4c-0.1,0.5-0.2,2.8-0.3,3.4c-0.1,0.3-0.2,0.6-0.5,0.6c-0.4,0-0.5-0.3-0.5-0.7
		c0-0.4-0.1-1.2-0.3-1.9c-0.4-0.9-0.9-1.6-3.5-1.9c-0.9-0.1-6.3-0.2-7.4-0.2c-0.3,0-0.4,0.2-0.4,0.5v13.2c0,0.4,0.1,0.6,0.4,0.6
		c1.1,0,7.1,0,8.3-0.1c1.2-0.1,2-0.3,2.5-0.8c0.4-0.4,0.6-0.7,0.8-0.7c0.2,0,0.4,0.1,0.4,0.4s-0.2,1.1-0.4,3.8
		c-0.1,1-0.2,3.1-0.2,3.5c0,0.4,0,1-0.5,1c-0.4,0-0.5-0.2-0.5-0.5c-0.1-0.5-0.1-1.2-0.2-1.9c-0.3-1-1-1.8-2.9-2
		c-1-0.1-6.1-0.2-7.4-0.2c-0.3,0-0.3,0.2-0.3,0.5v4.1c0,1.8-0.1,6.6,0,8.1c0.1,3.6,0.9,4.4,6.2,4.4c1.4,0,3.5,0,4.9-0.6
		c1.4-0.6,2-1.7,2.3-3.8c0.1-0.6,0.2-0.8,0.6-0.8c0.4,0,0.4,0.4,0.4,0.9c0,1.2-0.4,4.7-0.7,5.8c-0.4,1.4-0.8,1.4-2.8,1.4
		c-3.9,0-6.8-0.1-9-0.2c-2.2-0.1-3.8-0.2-5.4-0.2c-0.6,0-1.7,0-3,0.1c-1.2,0-2.5,0.1-3.6,0.1c-0.7,0-1-0.2-1-0.5
		c0-0.3,0.2-0.4,0.8-0.4c0.8,0,1.4-0.1,1.9-0.2c1-0.2,1.3-1.4,1.5-2.9c0.3-2.2,0.3-6.3,0.3-11.1V418.2z"/>
</g>
<g>
	<path fill="#FFFFFF" d="M42.6,483.4c0-5.9,0-7-0.1-8.2c-0.1-1.3-0.3-1.9-1.6-2.1c-0.3,0-1-0.1-1.3-0.1c-0.1,0-0.3-0.2-0.3-0.3
		c0-0.2,0.2-0.3,0.6-0.3c1.8,0,4.3,0.1,4.5,0.1c0.8,0,9.4,0,10.3,0c0.8,0,1.4,0,1.8-0.2c0.2,0,0.4-0.2,0.5-0.2
		c0.2,0,0.3,0.2,0.3,0.4c0,0.3-0.2,0.7-0.3,1.8c0,0.4-0.1,2.1-0.2,2.5c0,0.2-0.2,0.4-0.4,0.4s-0.3-0.2-0.3-0.4
		c0-0.3-0.1-0.9-0.4-1.4c-0.2-0.5-1.2-1.1-2.7-1.1l-6.5-0.1c-0.2,0-0.3,0.1-0.3,0.4v10.4c0,0.2,0,0.4,0.3,0.4l5.4,0
		c0.7,0,1.3,0,1.8,0c0.9-0.1,1.5-0.2,1.8-0.7c0.2-0.2,0.4-0.4,0.5-0.4c0.2,0,0.2,0.1,0.2,0.3c0,0.2-0.3,0.9-0.4,2.1
		c-0.1,0.8-0.1,2.3-0.1,2.6c0,0.4-0.1,0.8-0.4,0.8c-0.2,0-0.3-0.2-0.3-0.4c0-0.4-0.1-0.9-0.3-1.4c-0.2-0.5-0.8-1-2-1.2
		c-1-0.1-5.7-0.1-6.3-0.1c-0.2,0-0.3,0.1-0.3,0.4v3.1c0,3.8,0,6.8,0.2,8.3c0.1,1.1,0.4,1.8,1.4,2c0.6,0.1,1.4,0.2,1.8,0.2
		c0.2,0,0.3,0.2,0.3,0.3c0,0.2-0.2,0.3-0.6,0.3c-2.2,0-4.8-0.1-5-0.1c-0.2,0-2.7,0.1-3.9,0.1c-0.4,0-0.6-0.1-0.6-0.3
		c0-0.1,0.1-0.3,0.3-0.3c0.4,0,0.9-0.1,1.2-0.2c0.8-0.1,0.9-0.9,1-2c0.2-1.6,0.2-4.6,0.2-8.3V483.4z"/>
</g>
<g>
	<path fill="#FFFFFF" d="M73.3,473.1c0.5-1.3,0.7-1.5,0.9-1.5c0.4,0,0.5,0.5,0.9,1.4c0.7,1.6,7.1,17.4,9.5,23.2
		c1.4,3.4,2.5,3.9,3.4,4.2c0.6,0.2,1.2,0.2,1.6,0.2c0.2,0,0.5,0.1,0.5,0.3c0,0.2-0.5,0.3-0.9,0.3c-0.6,0-3.5,0-6.3-0.1
		c-0.8,0-1.4,0-1.4-0.3c0-0.2,0.1-0.2,0.3-0.3c0.2-0.1,0.6-0.4,0.4-1l-3.6-8.8c-0.1-0.2-0.1-0.2-0.4-0.2h-9.1
		c-0.2,0-0.3,0.1-0.4,0.3l-2.2,6.1c-0.4,0.9-0.6,1.9-0.6,2.6c0,0.8,0.7,1,1.3,1h0.4c0.3,0,0.4,0.1,0.4,0.3c0,0.2-0.2,0.3-0.6,0.3
		c-0.9,0-3.1-0.1-3.6-0.1c-0.4,0-2.4,0.1-4,0.1c-0.5,0-0.8-0.1-0.8-0.3c0-0.2,0.2-0.3,0.4-0.3c0.3,0,0.9,0,1.2-0.1
		c1.8-0.2,2.6-1.6,3.3-3.5L73.3,473.1z M77.7,489.1c0.2,0,0.2-0.1,0.1-0.3l-3.9-10.5c-0.2-0.6-0.4-0.6-0.7,0l-3.7,10.5
		c0,0.2,0,0.3,0.1,0.3H77.7z"/>
</g>
<g>
	<path fill="#FFFFFF" d="M95.5,497.7c-3.9-3.3-4.8-7.7-4.8-11.3c0-2.6,0.9-7,4.5-10.4c2.4-2.3,6-4.1,12.1-4.1c1.6,0,3.8,0.1,5.8,0.5
		c1.5,0.3,2.7,0.5,4,0.6c0.4,0,0.5,0.2,0.5,0.4c0,0.3-0.1,0.8-0.2,2.2c0,1.3,0,3.4-0.1,3.9c0,0.6-0.2,0.8-0.5,0.8
		c-0.3,0-0.3-0.3-0.3-0.8c0-1.5-0.6-3-1.7-3.8c-1.4-1.2-4.3-2.1-7.8-2.1c-5.1,0-7.5,1.3-8.9,2.7c-2.9,2.7-3.6,6.1-3.6,10
		c0,7.3,5.8,13.9,14.3,13.9c3,0,4.9-0.2,6.5-1.8c0.9-0.9,1.4-2.5,1.5-3.2c0.1-0.4,0.1-0.5,0.4-0.5c0.2,0,0.4,0.3,0.4,0.5
		c0,0.3-0.5,3.6-0.9,4.9c-0.2,0.7-0.3,0.9-1,1.1c-1.6,0.6-4.6,0.9-7.2,0.9C102.6,501.8,98.6,500.4,95.5,497.7z"/>
	<path fill="#FFFFFF" d="M125,483.4c0-5.9,0-7-0.1-8.2s-0.3-1.9-1.6-2.1c-0.3,0-1-0.1-1.3-0.1c-0.1,0-0.3-0.2-0.3-0.3
		c0-0.2,0.2-0.3,0.6-0.3c1.8,0,4.2,0.1,4.5,0.1c0.4,0,2.8-0.1,4-0.1c0.5,0,0.7,0.1,0.7,0.3c0,0.1-0.2,0.3-0.4,0.3
		c-0.3,0-0.5,0-1,0.1c-1,0.2-1.3,0.9-1.4,2.1c-0.1,1.2-0.1,2.3-0.1,8.2v5.4c0,5.5,1.2,7.8,2.9,9.4c1.9,1.8,3.6,2.1,5.9,2.1
		c2.4,0,4.8-1.1,6.1-2.7c1.8-2.2,2.2-5.4,2.2-9.3v-4.8c0-5.9,0-7-0.1-8.2c0-1.2-0.3-1.9-1.6-2.1c-0.3,0-1-0.1-1.4-0.1
		c-0.2,0-0.3-0.2-0.3-0.3c0-0.2,0.2-0.3,0.6-0.3c1.8,0,4,0.1,4.3,0.1c0.3,0,2.2-0.1,3.3-0.1c0.4,0,0.6,0.1,0.6,0.3
		c0,0.1-0.1,0.3-0.3,0.3c-0.3,0-0.5,0-1,0.1c-1.1,0.2-1.3,0.9-1.4,2.1c-0.1,1.2,0,2.3,0,8.2v4.1c0,4.1-0.5,8.8-3.7,11.5
		c-2.9,2.5-5.9,2.8-8.3,2.8c-1.3,0-5.4-0.1-8.2-2.7c-1.9-1.8-3.5-4.5-3.5-10V483.4z"/>
	<path fill="#FFFFFF" d="M163.6,490.3c0,5.6,0.1,7.9,0.8,8.6c0.6,0.6,2.2,0.9,5.3,0.9c2.1,0,3.8,0,4.8-1.2c0.5-0.6,0.8-1.4,0.9-2.2
		c0-0.3,0.2-0.5,0.4-0.5c0.2,0,0.3,0.2,0.3,0.6s-0.3,2.7-0.6,3.8c-0.3,0.9-0.4,1-2.5,1c-2.8,0-5,0-6.9-0.1c-1.8,0-3.1-0.1-4.3-0.1
		c-0.2,0-0.9,0-1.6,0c-0.8,0-1.7,0.1-2.3,0.1c-0.4,0-0.6-0.1-0.6-0.3c0-0.1,0.1-0.3,0.3-0.3c0.4,0,0.9-0.1,1.2-0.2
		c0.8-0.2,0.9-0.9,1-2c0.2-1.6,0.2-4.6,0.2-8.3v-6.8c0-5.9,0-7-0.1-8.2c-0.1-1.3-0.3-1.9-1.6-2.1c-0.3,0-1-0.1-1.3-0.1
		c-0.1,0-0.3-0.2-0.3-0.3c0-0.2,0.2-0.3,0.6-0.3c1.8,0,4.3,0.1,4.5,0.1c0.2,0,3.1-0.1,4.4-0.1c0.4,0,0.6,0.1,0.6,0.3
		c0,0.1-0.2,0.3-0.3,0.3c-0.3,0-0.9,0-1.3,0.1c-1.2,0.2-1.4,0.8-1.5,2.2c0,1.2,0,2.3,0,8.2V490.3z"/>
</g>
<g>
	<path fill="#FFFFFF" d="M194.7,490.2c0,3.7,0,6.7,0.2,8.3c0.1,1.1,0.3,1.8,1.5,2c0.5,0.1,1.4,0.2,1.8,0.2c0.3,0,0.3,0.2,0.3,0.3
		c0,0.2-0.2,0.3-0.6,0.3c-2.2,0-4.7-0.1-4.9-0.1c-0.2,0-2.9,0.1-4.1,0.1c-0.5,0-0.6-0.1-0.6-0.3c0-0.1,0.1-0.3,0.3-0.3
		c0.4,0,0.8-0.1,1.2-0.2c0.8-0.2,1-0.9,1.2-2.1c0.2-1.6,0.2-4.6,0.2-8.3v-16.1l-5.7,0.1c-2.5,0-3.4,0.3-4,1.2
		c-0.5,0.7-0.5,0.9-0.6,1.2c-0.1,0.3-0.2,0.4-0.4,0.4c-0.1,0-0.3-0.1-0.3-0.3c0-0.4,0.8-3.8,0.9-4.1c0.1-0.2,0.3-0.7,0.4-0.7
		c0.3,0,0.7,0.3,1.8,0.5c1.1,0.1,2.7,0.2,3.1,0.2h14.9c1.3,0,2.2-0.1,2.8-0.2c0.6-0.1,0.9-0.2,1.1-0.2c0.2,0,0.2,0.2,0.2,0.4
		c0,1.2-0.1,3.9-0.1,4.4c0,0.3-0.2,0.5-0.4,0.5c-0.2,0-0.3-0.1-0.3-0.7l0-0.4c-0.1-1.2-1-2-4.8-2.1l-4.9-0.1V490.2z"/>
</g>
<g>
	<path fill="#FFFFFF" d="M220.2,473.1c0.5-1.3,0.7-1.5,0.9-1.5c0.4,0,0.5,0.5,0.9,1.4c0.7,1.6,7.1,17.4,9.5,23.2
		c1.4,3.4,2.5,3.9,3.4,4.2c0.6,0.2,1.2,0.2,1.6,0.2c0.2,0,0.5,0.1,0.5,0.3c0,0.2-0.5,0.3-0.9,0.3c-0.6,0-3.5,0-6.3-0.1
		c-0.8,0-1.4,0-1.4-0.3c0-0.2,0.1-0.2,0.3-0.3c0.2-0.1,0.6-0.4,0.4-1l-3.6-8.8c-0.1-0.2-0.1-0.2-0.4-0.2h-9.1
		c-0.2,0-0.3,0.1-0.4,0.3l-2.2,6.1c-0.4,0.9-0.6,1.9-0.6,2.6c0,0.8,0.7,1,1.3,1h0.4c0.3,0,0.4,0.1,0.4,0.3c0,0.2-0.2,0.3-0.6,0.3
		c-0.9,0-3.1-0.1-3.6-0.1c-0.4,0-2.4,0.1-4,0.1c-0.5,0-0.8-0.1-0.8-0.3c0-0.2,0.2-0.3,0.4-0.3c0.3,0,0.9,0,1.2-0.1
		c1.8-0.2,2.6-1.6,3.3-3.5L220.2,473.1z M224.6,489.1c0.2,0,0.2-0.1,0.1-0.3l-3.9-10.5c-0.2-0.6-0.4-0.6-0.7,0l-3.7,10.5
		c0,0.2,0,0.3,0.1,0.3H224.6z"/>
</g>
<g>
	<path fill="#FFFFFF" d="M243.8,483.4c0-5.9,0-7-0.1-8.2c-0.1-1.3-0.3-1.9-1.6-2.1c-0.3,0-1-0.1-1.3-0.1c-0.1,0-0.3-0.2-0.3-0.3
		c0-0.2,0.2-0.3,0.6-0.3c1.8,0,4.4,0.1,4.6,0.1c0.4,0,3-0.1,5.3-0.1c4,0,11.2-0.4,15.9,4.4c2,2,3.9,5.2,3.9,9.7
		c0,4.8-2.1,8.5-4.3,10.8c-1.7,1.8-5.3,4.4-12,4.4c-1.7,0-3.8-0.1-5.5-0.2c-1.7-0.1-3.1-0.2-3.2-0.2c-0.1,0-0.8,0-1.6,0
		c-0.8,0-1.8,0.1-2.4,0.1c-0.4,0-0.6-0.1-0.6-0.3c0-0.1,0.1-0.3,0.3-0.3c0.4,0,0.9-0.1,1.2-0.2c0.8-0.2,0.9-0.9,1-2
		c0.2-1.6,0.2-4.6,0.2-8.3V483.4z M247.4,487.6c0,4,0,7.6,0,8.3c0,0.9,0.1,2.3,0.4,2.7c0.5,0.7,1.9,1.5,6.6,1.5
		c3.6,0,6.9-1.2,9.3-3.5c2.1-1.9,3.1-5.6,3.1-9.1c0-4.9-2.1-8-3.7-9.6c-3.7-3.8-8.1-4.3-12.8-4.3c-0.8,0-2,0.1-2.4,0.3
		c-0.4,0.1-0.5,0.3-0.5,0.8V487.6z"/>
</g>
<g>
</g>
<g>
	<path fill="#FFFFFF" d="M295.3,483.4c0-5.9,0-7-0.1-8.2c-0.1-1.3-0.3-1.9-1.6-2.1c-0.3,0-1-0.1-1.3-0.1c-0.1,0-0.3-0.2-0.3-0.3
		c0-0.2,0.2-0.3,0.6-0.3c1.8,0,4.4,0.1,4.6,0.1c0.4,0,3-0.1,5.3-0.1c4,0,11.2-0.4,15.9,4.4c2,2,3.9,5.2,3.9,9.7
		c0,4.8-2.1,8.5-4.3,10.8c-1.7,1.8-5.3,4.4-12,4.4c-1.7,0-3.8-0.1-5.5-0.2c-1.7-0.1-3.1-0.2-3.2-0.2c-0.1,0-0.8,0-1.6,0
		c-0.8,0-1.8,0.1-2.4,0.1c-0.4,0-0.6-0.1-0.6-0.3c0-0.1,0.1-0.3,0.3-0.3c0.4,0,0.9-0.1,1.2-0.2c0.8-0.2,0.9-0.9,1-2
		c0.2-1.6,0.2-4.6,0.2-8.3V483.4z M298.9,487.6c0,4,0,7.6,0,8.3c0,0.9,0.1,2.3,0.4,2.7c0.5,0.7,1.9,1.5,6.6,1.5
		c3.6,0,6.9-1.2,9.3-3.5c2.1-1.9,3.1-5.6,3.1-9.1c0-4.9-2.1-8-3.7-9.6c-3.7-3.8-8.1-4.3-12.8-4.3c-0.8,0-2,0.1-2.4,0.3
		c-0.4,0.1-0.5,0.3-0.5,0.8V487.6z"/>
</g>
<g>
	<path fill="#FFFFFF" d="M330.2,483.4c0-5.9,0-7-0.1-8.2c-0.1-1.3-0.3-1.9-1.6-2.1c-0.3,0-1-0.1-1.3-0.1c-0.1,0-0.3-0.2-0.3-0.3
		c0-0.2,0.2-0.3,0.6-0.3c1.8,0,4.4,0.1,4.6,0.1c0.3,0,8.5,0,9.4,0c0.8,0,1.5-0.2,1.8-0.2c0.2,0,0.4-0.2,0.5-0.2
		c0.1,0,0.2,0.2,0.2,0.4c0,0.3-0.2,0.7-0.3,1.8c0,0.4-0.1,2.1-0.2,2.5c0,0.2-0.2,0.4-0.4,0.4c-0.2,0-0.3-0.2-0.3-0.5
		c0-0.3,0-0.9-0.2-1.3c-0.3-0.6-0.7-0.9-2.8-1.2c-0.7-0.1-5.3-0.1-5.7-0.1c-0.2,0-0.2,0.1-0.2,0.4v10.4c0,0.3,0,0.4,0.2,0.4
		c0.5,0,5.7,0,6.6-0.1c0.9-0.1,1.5-0.1,1.9-0.5c0.3-0.3,0.5-0.5,0.6-0.5s0.2,0.1,0.2,0.3c0,0.2-0.2,0.9-0.3,2.1
		c-0.1,0.8-0.2,2.2-0.2,2.5c0,0.3-0.1,0.7-0.4,0.7c-0.2,0-0.3-0.1-0.3-0.4c0-0.4,0-0.8-0.2-1.3c-0.1-0.5-0.5-1-2-1.2
		c-1.1-0.1-5.3-0.2-6-0.2c-0.2,0-0.3,0.1-0.3,0.3v3.2c0,1.3,0,5.8,0,6.5c0.1,2.6,0.8,3.1,4.7,3.1c1,0,2.9,0,4-0.4
		c1-0.5,1.6-1.1,1.8-2.7c0.1-0.5,0.2-0.6,0.4-0.6s0.3,0.3,0.3,0.6c0,0.3-0.3,2.9-0.5,3.7c-0.3,1-0.7,1-2.2,1c-3,0-5.3-0.1-6.9-0.1
		c-1.7-0.1-2.7-0.1-3.3-0.1c-0.1,0-0.9,0-1.7,0c-0.8,0-1.7,0.1-2.3,0.1c-0.4,0-0.6-0.1-0.6-0.3c0-0.1,0.1-0.3,0.3-0.3
		c0.4,0,0.9-0.1,1.2-0.2c0.8-0.1,0.9-0.9,1-2c0.2-1.6,0.2-4.6,0.2-8.3V483.4z"/>
</g>
<g>
</g>
<g>
	<path fill="#FFFFFF" d="M375.2,473.1c0.5-1.3,0.7-1.5,0.9-1.5c0.4,0,0.5,0.5,0.9,1.4c0.7,1.6,7.1,17.4,9.5,23.2
		c1.4,3.4,2.5,3.9,3.4,4.2c0.6,0.2,1.2,0.2,1.6,0.2c0.2,0,0.5,0.1,0.5,0.3c0,0.2-0.5,0.3-0.9,0.3c-0.6,0-3.5,0-6.3-0.1
		c-0.8,0-1.4,0-1.4-0.3c0-0.2,0.1-0.2,0.3-0.3c0.2-0.1,0.6-0.4,0.4-1l-3.6-8.8c-0.1-0.2-0.1-0.2-0.4-0.2h-9.1
		c-0.2,0-0.3,0.1-0.4,0.3l-2.2,6.1c-0.4,0.9-0.6,1.9-0.6,2.6c0,0.8,0.7,1,1.3,1h0.4c0.3,0,0.4,0.1,0.4,0.3c0,0.2-0.2,0.3-0.6,0.3
		c-0.9,0-3.1-0.1-3.6-0.1c-0.4,0-2.4,0.1-4,0.1c-0.5,0-0.8-0.1-0.8-0.3c0-0.2,0.2-0.3,0.4-0.3c0.3,0,0.9,0,1.2-0.1
		c1.8-0.2,2.6-1.6,3.3-3.5L375.2,473.1z M379.6,489.1c0.2,0,0.2-0.1,0.1-0.3l-3.9-10.5c-0.2-0.6-0.4-0.6-0.7,0l-3.7,10.5
		c0,0.2,0,0.3,0.1,0.3H379.6z"/>
</g>
<g>
	<path fill="#FFFFFF" d="M398.8,483.4c0-5.9,0-7-0.1-8.2c-0.1-1.3-0.3-1.9-1.6-2.1c-0.3,0-1-0.1-1.3-0.1c-0.1,0-0.3-0.2-0.3-0.3
		c0-0.2,0.2-0.3,0.6-0.3c1.8,0,4.5,0.1,4.7,0.1c0.4,0,3.7-0.1,4.9-0.1c2.5,0,5.3,0.2,7.4,1.7c1,0.7,2.7,2.6,2.7,5.2
		c0,2.8-1.2,5.6-4.9,8.7c3.2,4,6,7.5,8.3,9.9c2.1,2.2,3.4,2.5,4.4,2.7c0.8,0.1,1.2,0.1,1.4,0.1s0.4,0.2,0.4,0.3
		c0,0.2-0.2,0.3-0.9,0.3h-2.5c-2.2,0-3.2-0.2-4.2-0.8c-1.7-0.9-3.1-2.7-5.4-5.6c-1.7-2.1-3.4-4.5-4.3-5.6c-0.2-0.2-0.3-0.2-0.5-0.2
		l-5-0.1c-0.2,0-0.3,0.1-0.3,0.3v0.9c0,3.7,0,6.7,0.2,8.2c0.1,1.1,0.4,1.8,1.6,2c0.5,0.1,1.4,0.2,1.8,0.2c0.3,0,0.3,0.2,0.3,0.3
		c0,0.2-0.2,0.3-0.6,0.3c-2.2,0-4.7-0.1-4.9-0.1c0,0-2.7,0.1-3.9,0.1c-0.4,0-0.6-0.1-0.6-0.3c0-0.1,0.1-0.3,0.3-0.3
		c0.4,0,0.9-0.1,1.2-0.2c0.8-0.2,0.9-0.9,1-2c0.2-1.6,0.2-4.6,0.2-8.3V483.4z M402.2,486.7c0,0.2,0.1,0.4,0.3,0.5
		c0.6,0.3,2.6,0.6,4.4,0.6c0.9,0,2,0,3-0.7c1.4-0.9,2.4-2.9,2.4-5.9c0-4.8-2.6-7.5-6.8-7.5c-1.2,0-2.4,0.1-2.8,0.2
		c-0.2,0.1-0.3,0.2-0.3,0.5V486.7z"/>
</g>
<g>
	<path fill="#FFFFFF" d="M438.1,490.2c0,3.7,0,6.7,0.2,8.3c0.1,1.1,0.3,1.8,1.5,2c0.5,0.1,1.4,0.2,1.8,0.2c0.3,0,0.3,0.2,0.3,0.3
		c0,0.2-0.2,0.3-0.6,0.3c-2.2,0-4.7-0.1-4.9-0.1c-0.2,0-2.9,0.1-4.1,0.1c-0.5,0-0.6-0.1-0.6-0.3c0-0.1,0.1-0.3,0.3-0.3
		c0.4,0,0.8-0.1,1.2-0.2c0.8-0.2,1-0.9,1.2-2.1c0.2-1.6,0.2-4.6,0.2-8.3v-16.1l-5.7,0.1c-2.5,0-3.4,0.3-4,1.2
		c-0.5,0.7-0.5,0.9-0.6,1.2c-0.1,0.3-0.2,0.4-0.4,0.4c-0.1,0-0.3-0.1-0.3-0.3c0-0.4,0.8-3.8,0.9-4.1c0.1-0.2,0.3-0.7,0.4-0.7
		c0.3,0,0.7,0.3,1.8,0.5c1.1,0.1,2.7,0.2,3.1,0.2h14.9c1.3,0,2.2-0.1,2.8-0.2c0.6-0.1,0.9-0.2,1.1-0.2c0.2,0,0.2,0.2,0.2,0.4
		c0,1.2-0.1,3.9-0.1,4.4c0,0.3-0.2,0.5-0.4,0.5s-0.3-0.1-0.3-0.7l0-0.4c-0.1-1.2-1-2-4.8-2.1l-5-0.1V490.2z"/>
	<path fill="#FFFFFF" d="M456.9,483.4c0-5.9,0-7-0.1-8.2c-0.1-1.3-0.3-1.9-1.6-2.1c-0.3,0-1-0.1-1.3-0.1c-0.1,0-0.3-0.2-0.3-0.3
		c0-0.2,0.2-0.3,0.6-0.3c1.8,0,4.4,0.1,4.6,0.1c0.3,0,8.5,0,9.4,0c0.8,0,1.5-0.2,1.8-0.2c0.2,0,0.4-0.2,0.5-0.2
		c0.1,0,0.2,0.2,0.2,0.4c0,0.3-0.2,0.7-0.3,1.8c0,0.4-0.1,2.1-0.2,2.5c0,0.2-0.2,0.4-0.4,0.4c-0.2,0-0.3-0.2-0.3-0.5
		c0-0.3,0-0.9-0.2-1.3c-0.3-0.6-0.7-0.9-2.8-1.2c-0.7-0.1-5.3-0.1-5.7-0.1c-0.2,0-0.2,0.1-0.2,0.4v10.4c0,0.3,0,0.4,0.2,0.4
		c0.5,0,5.7,0,6.6-0.1c0.9-0.1,1.5-0.1,1.9-0.5c0.3-0.3,0.5-0.5,0.6-0.5s0.2,0.1,0.2,0.3c0,0.2-0.2,0.9-0.3,2.1
		c-0.1,0.8-0.2,2.2-0.2,2.5c0,0.3-0.1,0.7-0.4,0.7c-0.2,0-0.3-0.1-0.3-0.4c0-0.4,0-0.8-0.2-1.3c-0.1-0.5-0.5-1-2-1.2
		c-1.1-0.1-5.3-0.2-6-0.2c-0.2,0-0.3,0.1-0.3,0.3v3.2c0,1.3,0,5.8,0,6.5c0.1,2.6,0.8,3.1,4.7,3.1c1,0,2.9,0,4-0.4
		c1-0.5,1.6-1.1,1.8-2.7c0.1-0.5,0.2-0.6,0.4-0.6c0.2,0,0.3,0.3,0.3,0.6c0,0.3-0.3,2.9-0.5,3.7c-0.3,1-0.7,1-2.2,1
		c-3,0-5.3-0.1-6.9-0.1c-1.7-0.1-2.7-0.1-3.3-0.1c-0.1,0-0.9,0-1.7,0c-0.8,0-1.7,0.1-2.3,0.1c-0.4,0-0.6-0.1-0.6-0.3
		c0-0.1,0.1-0.3,0.3-0.3c0.4,0,0.9-0.1,1.2-0.2c0.8-0.1,0.9-0.9,1-2c0.2-1.6,0.2-4.6,0.2-8.3V483.4z"/>
	<path fill="#FFFFFF" d="M478.4,500.8c-0.5-0.3-0.6-0.4-0.6-1.4c0-1.9,0.2-3.4,0.2-4c0-0.4,0.1-0.6,0.3-0.6c0.2,0,0.4,0.1,0.4,0.4
		c0,0.3,0,0.9,0.1,1.4c0.6,2.8,3.6,3.8,6.3,3.8c3.9,0,5.9-2.2,5.9-5.1c0-2.7-1.5-4-5-6.7l-1.8-1.3c-4.3-3.2-5.7-5.5-5.7-8.2
		c0-4.5,3.6-7.2,8.8-7.2c1.6,0,3.2,0.2,4.1,0.5c0.8,0.2,1.1,0.2,1.4,0.2c0.3,0,0.4,0,0.4,0.3c0,0.2-0.2,1.4-0.2,4
		c0,0.6,0,0.9-0.3,0.9c-0.3,0-0.3-0.2-0.4-0.5c0-0.5-0.4-1.5-0.6-1.9c-0.3-0.5-1.6-1.9-5.1-1.9c-2.9,0-5.3,1.4-5.3,4.1
		c0,2.4,1.2,3.8,5.1,6.5l1.1,0.8c4.8,3.3,6.5,5.9,6.5,9.2c0,2.2-0.9,4.7-3.7,6.5c-1.7,1.1-4.1,1.3-6.3,1.3
		C482.3,501.8,480,501.5,478.4,500.8z"/>
</g>
</svg>
